STARTFONT 2.1
FONT -FontForge-Mando AF-Regular-R-Normal--165-1580-75-75-M-840-ISO10646-1
SIZE 158 75 75
FONTBOUNDINGBOX 83 179 1 -3
COMMENT "Generated by fontforge, http://fontforge.sourceforge.net"
COMMENT "CC0 - public domain"
STARTPROPERTIES 40
FOUNDRY "FontForge"
FAMILY_NAME "Mando AF"
WEIGHT_NAME "Regular"
SLANT "R"
SETWIDTH_NAME "Normal"
ADD_STYLE_NAME ""
PIXEL_SIZE 165
POINT_SIZE 1580
RESOLUTION_X 75
RESOLUTION_Y 75
SPACING "M"
AVERAGE_WIDTH 840
CHARSET_REGISTRY "ISO10646"
CHARSET_ENCODING "1"
FONTNAME_REGISTRY ""
CHARSET_COLLECTIONS "ISO10646-1"
FONT_NAME "MandoAF-Regular"
FACE_NAME "Mando AF Regular"
COPYRIGHT "CC0 - public domain"
FONT_VERSION "002"
FONT_ASCENT 132
FONT_DESCENT 33
UNDERLINE_POSITION -16
UNDERLINE_THICKNESS 9
X_HEIGHT 163
CAP_HEIGHT 163
RAW_ASCENT 800
RAW_DESCENT 200
NORM_SPACE 84
RELATIVE_WEIGHT 40
RELATIVE_SETWIDTH 50
SUPERSCRIPT_X 0
SUPERSCRIPT_Y 79
SUPERSCRIPT_SIZE 115
SUBSCRIPT_X 0
SUBSCRIPT_Y 23
SUBSCRIPT_SIZE 115
FIGURE_WIDTH 84
AVG_LOWERCASE_WIDTH 840
AVG_UPPERCASE_WIDTH 840
ENDPROPERTIES
CHARS 77
STARTCHAR space
ENCODING 32
SWIDTH 510 0
DWIDTH 84 0
BBX 1 1 0 0
BITMAP
00
ENDCHAR
STARTCHAR exclam
ENCODING 33
SWIDTH 510 0
DWIDTH 84 0
BBX 22 120 31 22
BITMAP
C00000
F80000
FE0000
FE0000
FE0000
FE0000
FE0000
FE0000
FE0000
FE0000
FE0000
FE0000
FE0000
FE0000
FF0000
FF0000
FF0000
FF0000
FF0000
FF0000
FF0000
FF0000
FF0000
FF0000
FF0000
FF0000
FF0000
FF0000
FF0000
FF800C
FF801C
FF807C
FF81F8
FF87F8
FF9FF8
FFFFF8
FFFFF8
FFFFF0
FFFFF0
FFFFF0
FFFFF0
FFFFF0
FFFFE0
FFFFE0
FFFFE0
FFFFE0
FFFFE0
FFFFC0
FFFFC0
FFFFC0
FFFFC0
FFFFC0
FFFFC0
FFFF80
FFFF80
FFFF80
FFFF80
FFFF80
FFFF00
FFFF00
FFFF00
FFFF00
FFFF00
FFFE00
FFFE00
FFFE00
FFFE00
FFFE00
FFFC00
FFFC00
FFFC00
FFFC00
FFFC00
FFFC00
FFF800
FFF800
FFF800
FFF800
FFF800
FFF000
FFF000
FFF000
FFF000
FFF000
FFE000
FFE000
FFE000
FFE000
FFE000
FFC000
FFC000
FFC000
FFC000
FFC000
FF8000
FF8000
FF8000
FF8000
FF8000
FF8000
FF0000
FF0000
FF0000
FF0000
FF0000
FE0000
FE0000
FE0000
FE0000
FC0000
FC0000
F80000
F80000
F00000
F00000
E00000
E00000
C00000
800000
800000
ENDCHAR
STARTCHAR quotedbl
ENCODING 34
SWIDTH 510 0
DWIDTH 84 0
BBX 46 48 22 128
BITMAP
000020000004
000060000018
0000E0000038
0001E0000078
0007C00000F8
000FC00001F0
001FC00007F0
003FC0000FF0
007F80001FF0
00FF80003FE0
03FF80007FE0
07FF8000FFE0
0FFF0001FFE0
1FFF0007FFC0
3FFF000FFFC0
7FFE001FFFC0
FFFE001FFFC0
FFFE001FFF80
7FFE001FFF80
7FFC001FFF80
7FFC001FFF80
7FFC001FFF00
7FFC000FFF00
7FF8000FFF00
7FF8000FFE00
3FF8000FFE00
3FF0000FFE00
3FF0000FFE00
3FF00007FC00
3FF00007FC00
1FE00007FC00
1FE00007FC00
1FE00007F800
1FE00007F800
1FC00003F800
1FC00003F000
0FC00003F000
0FC00003F000
0F800003F000
0F800001E000
0F800001E000
07000001E000
07000001E000
07000001C000
07000000C000
06000000C000
020000008000
020000008000
ENDCHAR
STARTCHAR numbersign
ENCODING 35
SWIDTH 510 0
DWIDTH 84 0
BBX 80 163 2 1
BITMAP
00000000100000000000
00000000700000000000
00000001F00000000000
00000003F00000000000
0000000FF00000000000
0000003FF00000300000
0000007FF00000F00000
000001FFF00001F00000
000003FFF00003F00000
00000FFFF0000FF00000
00001FFFF0001FF00000
00003FFFF0007FF00000
00003FFFF000FFF00000
00003FFFF001FFF00000
00003FFFF007FFF00000
00003FFFF00FFFF00000
00003FFFF03FFFF00000
00003FFFF07FFFF00000
00003FFFF0FFFFF00000
00003FFFF3FFFFF00000
00003FFFF7FFFFF00000
00003FFFFFFFFFF00000
00003FFFFFFFFFF00000
00003FFFFFFFFFF00000
00003FFFFFFFFFF00000
00003FFFFFFFFFF00000
00003FFFFFFFFFF00000
00003FFFFFFFBFF00000
00003FFFFFFF3FF00000
00003FFFFFFE3FF00000
00003FFFFFFC3FF80000
00003FFFFFFC3FF80000
00003FFFFFF83FF80000
00003FFFFFF03FF80000
00003FFFFFE03FF80000
00003FFFFFC03FF80000
0000FFFFFF803FF80000
0007FFFFFF007FF80000
001FFFFFFE007FF80000
00FFFFFFFE007FF80000
07FFFFFFFC007FF80000
1FFFFFFFF8007FF80000
FFFFFFFFF0007FF80000
FFFFFFFFE0007FF80000
7FFFFFFFE0007FF80000
7FFFFFFFE0007FF80000
3FFFFFFFE0007FF80000
0FFFFFFFC0007FF80000
03FFFFFFC0007FF80000
007FFFFFC0007FF80000
000FFFFFC0007FF80000
0001FFFFC0007FF80000
00003FFFC0007FF80000
00003FFFC0007FF80000
00003FFFC0007FF80000
00003FFFC0007FF80000
00003FFFC0007FF80000
00003FFFC0007FF80000
00003FFFC0007FF80000
00003FFFC0007FF80000
00003FFFC0007FF80000
00003FFF8000FFF80000
00003FFF8000FFF80000
00003FFF8000FFF80000
00003FFF8000FFF80000
00001FFF8000FFF80000
00001FFF8000FFF80000
00001FFF8000FFF80000
00001FFF8000FFF80000
00001FFF8000FFF80000
00001FFF8000FFF80000
00001FFF8000FFF80000
00001FFF8000FFF80000
00001FFF8000FFF80000
00001FFF8000FFF80000
00001FFF8000FFF80000
00001FFF8000FFF80000
00001FFF8000FFF80000
00001FFF8000FFF80000
00001FFF8000FFF80000
00001FFF8000FFF80000
00001FFF0000FFF80000
00001FFF0000FFF80000
00001FFF0000FFF80000
00001FFF0001FFF80000
00001FFF0001FFF80000
00001FFF0001FFF80000
00001FFF0001FFF80000
00001FFF0001FFF80000
00001FFF0001FFF80000
00001FFF0001FFF80000
00001FFF0001FFF80000
00001FFF0001FFF80000
00001FFF0001FFF80000
00001FFF0001FFFC0000
00001FFF0001FFFC0000
00001FFF0001FFFC0000
00001FFF0001FFFC0000
00001FFF0001FFFC0000
00001FFF0001FFFC0000
00001FFF0001FFFC0000
00001FFF0001FFFC0000
00001FFF0001FFFC0000
00001FFE0001FFFC0000
00001FFE0003FFFC0000
00001FFE0003FFFC0000
00001FFE0003FFFC0000
00001FFE0003FFFC0000
00001FFE0003FFFC0000
00001FFE0003FFFC0000
00001FFE0003FFFC0000
00001FFE0003FFFF8000
00001FFE0003FFFFF000
00001FFE0003FFFFFE00
00001FFE0003FFFFFFC0
00001FFE0003FFFFFFF0
00001FFE0003FFFFFFFC
00001FFE0007FFFFFFFE
00001FFE0007FFFFFFFE
00001FFE0007FFFFFFFF
00001FFE000FFFFFFFFF
00001FFE001FFFFFFFFC
00001FFE001FFFFFFFE0
00001FFE003FFFFFFF80
00001FFE007FFFFFFC00
00001FFE00FFFFFFE000
00001FFE01FFFFFF8000
00000FFE03FFFFFC0000
00000FFC07FFFFFC0000
00000FFC0FFFFFFC0000
00000FFC0FFFFFFC0000
00000FFC1FFFFFFC0000
00000FFC3FFFFFFC0000
00000FFC7FFFFFFC0000
00000FFCFFFFFFFC0000
00000FFDFFFFFFFC0000
00000FFFFFFFFFFC0000
00000FFFFFFFFFFC0000
00000FFFFFFFFFFC0000
00000FFFFFFFFFFC0000
00000FFFFFFFFFFC0000
00000FFFFFFFFFFC0000
00000FFFFFEFFFFC0000
00000FFFFFC7FFFC0000
00000FFFFF87FFFC0000
00000FFFFE07FFFC0000
00000FFFFC07FFFC0000
00000FFFF007FFFC0000
00000FFFE007FFFC0000
00000FFFC00FFFFE0000
00000FFF000FFFFE0000
00000FFE000FFFFE0000
00000FFC000FFFFC0000
00000FF0000FFFF00000
00000FE0000FFFE00000
00000F80000FFF800000
00000F00000FFE000000
00000C00000FFC000000
00000000000FF0000000
00000000000FE0000000
00000000000F80000000
00000000000E00000000
00000000000C00000000
ENDCHAR
STARTCHAR dollar
ENCODING 36
SWIDTH 510 0
DWIDTH 84 0
BBX 71 164 6 0
BITMAP
000000003000000000
000004003800000000
00000C003E00000000
00000C003F00000000
00001C003F80000000
00001C003FE0000000
00003C003FE0000000
00003C003FF0000000
00007C003FF0000000
00007C003FF0000000
0000FC003FF0000000
0000FC007FF0000000
0001FC007FF0000000
0001FC007FF0000000
0001FC007FF0000000
0003FC007FF0000000
0003FC007FF0000000
0003FC007FF0000000
0003FC007FF0000000
0003FC007FF0000000
0007FC007FF0000000
0007FC007FF0000000
0007FC007FF0000000
0007FC007FF0000000
0007FC007FF0000000
000FFC007FF0000000
000FFC007FF0000000
000FFC007FF0000000
000FFC007FF0000000
000FFC007FF0000000
001FFC007FF0000000
001FFC007FF8000000
001FFC007FF8000000
001FFC007FF8000000
001FFC007FF8000000
003FFC007FF8000000
003FFC007FF8000000
003FFC007FF8000000
003FFC007FF8000000
003FFC007FF8000000
003FFC007FF8000000
007FFC00FFF8000000
007FFC00FFF8000000
007FFC00FFF8000000
007FFC00FFF8000000
007FFC00FFF8000000
00FFFC00FFF8000000
00FFFC00FFF8000000
00FFFC00FFF8000000
00FFFC00FFF8000000
00FFFC00FFF8000000
01FFFC00FFF8000000
01FFFC00FFF8000000
01FFFC00FFF8000000
01FFFC00FFF8000000
01FFFC00FFF8000000
03FFFC00FFFC000000
03FFFC00FFFC000000
03FFFC00FFFC000000
03FFFC00FFFC000000
03FFFC00FFFC000000
03FFFC00FFFC000000
07FFFC00FFFC000000
07FFFC00FFFC000000
07FFFC00FFFC000000
07FFFC00FFFE000000
07FFFC007FFE000000
0FFFFC007FFE000000
0FFFFC003FFF000000
0FFFFC003FFF000000
0FFFFC001FFF800000
0FFFFC001FFF800000
1FFFFC001FFF800000
1FFFFC000FFFC00000
1FFFFC000FFFC00000
1FFFFC0007FFE00000
1FFFFC0007FFE00000
3FFFFC0007FFF00000
3FFFFC0003FFF00000
3FFFFC0003FFF00000
3FFFFC0001FFF80000
3FFFFC0001FFF80000
7FFFFC0000FFFC0000
7FFFFC0000FFFC0000
7FFFFC0000FFFC0000
7FFFFC00007FFE0000
7FC7FC00007FFE0000
7F07FC00003FFF0000
FC07FC00003FFF0000
F807FC00001FFF8000
E007FC00001FFF8000
8007FC00001FFF8000
0007FC00000FFFC000
0007FC00000FFFC000
0007FC000007FFE000
0003FC000007FFE000
0003FC000007FFE000
0003FC000003FFF000
0003FC000003FFF000
0003FC000001FFF800
0003FC000001FFF800
0003FC000000FFFC00
0003FC000000FFFC00
0003FC000000FFFC00
0003FC0000007FFE00
0003FC0000007FFE00
0003FC0000003FFF00
0003FC0000003FFF00
0003FC0000003FFF00
0001FC0000001FFF80
0001FC0000001FFF80
0001FC0000000FFFC0
0001FC0000000FFFC0
0001FC00000007FFE0
0001FC00000007FFE0
0001FC00000007FFE0
0001FC00000003FFF0
0001FC00000003FFF0
0001FC00000001FFF8
00007C00000003FFF8
00000C00000003FFF8
00000000000003FFF8
00000000000003FFF8
00000000000003FFF8
00000000000003FFF8
00000000000003FFF8
00000000000003FFF8
00000000000003FFF8
00000000000003FFFC
00000000000003FFFC
00000000000003FFFC
00000000000003FFFC
00000000000007FFFC
00000000000007FFFC
00000000000007FFFC
00000000000007FFFC
00000000000007FFFC
00000000000007FFFC
00000000000007FFFC
00100000000007FFFC
001C0000000007FFFC
001E0000000007FFFC
001F8000000007FFFE
003FC000000007FFFE
003FC00000000FFFFE
003FE00000000FFFFE
003FE00000000FFFFE
003FE00000000FFFFE
003FE00000007FFFFC
003FF000001FFFFFF8
003FF0000FFFFFFFF0
003FF00FFFFFFFFFE0
007FFFFFFFFFFFFFC0
007FFFFFFFFFFFFF00
007FFFFFFFFFFFFE00
007FFFFFFFFFFFFC00
007FFFFFFFFFFFF000
007FFFFFFFFFFFE000
007FFFFFFFFFFFC000
007FFFFFFFFFFF8000
0007FFFFFFFFFE0000
000001FFFFFFFC0000
00000000FFFFF80000
00000000003FF00000
ENDCHAR
STARTCHAR ampersand
ENCODING 38
SWIDTH 510 0
DWIDTH 84 0
BBX 81 165 2 -2
BITMAP
00000000E0000000000000
00000001F8000000000000
00000007FF000000000000
0000000FFFE00000000000
0000003FFFF80000000000
000000FFFFFF0000000000
000001FFFFFFC000000000
000007FFFFFFE000000000
00001FFFFFFFC000000000
00003FFFFFFF8000000000
0000FFFFFFFF0000000000
0001FFFFFFFE0000000000
0001FFFFFFC00000000000
0001FFFFF0000000000000
0001FFFF80000000000000
0001FFFF80000000000000
0001FFFF80000000000000
0001FFFF80000000000000
0001FFFF80000007C00000
0001FFFF8000001FF80000
0001FFFF8000007FFF0000
0001FFFF800000FFFFE000
0001FFFF800003FFFFF800
0001FFFF800007FFFFFE00
0001FFFF80001FFFFFFF80
0001FFFF00007FFFFFFF00
0001FFFF0000FFFFFFFE00
0001FFFF0003FFFFFFFC00
0001FFFF0007FFFFFFF000
0001FFFF000FFFFFFF8000
0001FFFF000FFFFFC00000
0001FFFF000FFFFC000000
0001FFFF000FFFFC000000
0001FFFF000FFFFC000000
0001FFFF000FFFFC000000
0001FFFF000FFFFC000000
0001FFFF000FFFFC000000
0001FFFF000FFFFC000000
0001FFFF000FFFFC000000
0001FFFF000FFFFC000000
0001FFFF000FFFFC000000
0001FFFF000FFFFC000000
0000FFFF0007FFFC000000
0000FFFF0007FFFC000000
0000FFFF0007FFFC000000
0000FFFF0007FFFC000000
0000FFFF0007FFFC000000
0000FFFE0007FFFC000000
0000FFFE0007FFFC000000
0000FFFE0007FFFC000000
0000FFFE0007FFFC000000
0000FFFE0007FFFC000000
0000FFFE0007FFFC000000
0000FFFE0007FFFC000000
0000FFFE0007FFFC000000
0000FFFE0007FFFC000000
0000FFFE0007FFFC000000
0000FFFE0007FFF8000000
0000FFFE0007FFF8000000
0000FFFE0007FFF8000000
0000FFFE0007FFF8000000
0000FFFE0007FFF8000000
0000FFFE0007FFF8000000
0000FFFE0007FFF8000000
0000FFFE0007FFF8000000
0000FFFE0007FFF8000000
0000FFFE0007FFF8000000
0000FFFE0007FFF8000000
0000FFFE0007FFF8000000
0000FFFE0007FFF8000000
0000FFFE0007FFF8000000
0000FFFC0007FFF8000000
0000FFFC0007FFF8000000
0000FFFC0007FFF8000000
0000FFFC0007FFF8000000
0000FFFC0007FFF8000000
0000FFFC0007FFF8000000
0000FFFC0007FFF8000000
0000FFFC0007FFF8000000
0000FFFC0007FFF8000000
0000FFFC0007FFF8000000
0000FFFC0007FFF8000000
0000FFFC0007FFF0000000
0000FFFC0007FFF0000000
0000FFFC0007FFF0000000
0000FFFC0007FFF0000000
0000FFFC0007FFF0000000
0000FFFC0007FFF0000000
0000FFFC0007FFF0000000
0000FFFC0007FFF0000000
0000FFFC0007FFF0000000
0000FFFC0007FFF0000000
0000FFFC0007FFF0000000
0000FFF80007FFF0000000
C000FFF80007FFF0000000
E000FFF80007FFF0000000
F000FFF80007FFF0000000
FC00FFF80007FFF0000000
7E00FFF80007FFF0000000
7F00FFF80007FFF0000000
7F80FFF80007FFF0000000
7FE0FFF80003FFF0000000
3FF0FFF80003FFF0000000
3FF8FFF80003FFF0000000
3FFCFFF80003FFF0000000
3FFFFFF80003FFF0000000
1FFFFFF80003FFF0000000
1FFFFFF80003FFE0000000
1FFFFFF80003FFE0000000
1FFFFFF80003FFE0000000
0FFFFFF80003FFE0000000
0FFFFFF80003FFE0000000
0FFFFFF80003FFE0000000
0FFFFFF80003FFE0000000
07FFFFF80003FFE0000000
07FFFFF80003FFE0000000
07FFFFF80003FFE0000000
07FFFFF80003FFE0000000
03FFFFF00003FFE0000000
03FFFFF00003FFE0000000
03FFFFF00003FFE0000000
03FFFFF00003FFE0000000
01FFFFF00003FFE0000000
01FFFFF00003FFE0000000
01FFFFF00003FFE0000000
01FFFFF00003FFE0000000
00FFFFF00003FFE0000000
00FFFFF00003FFC0000000
00FFFFF00003FFC0000000
00FFFFF00003FFC0000000
007FFFF00003FFC0000000
007FFFF00003FFC0000000
007FFFF00003FFC0000000
007FFFF00003FFC0000000
003FFFF00003FFC0000000
003FFFF00003FFC0000000
003FFFF00003FFC0000000
003FFFF00003FFC0000000
001FFFF00003FFC0000000
001FFFF00003FFC0000000
001FFFF00003FFC0000000
001FFFE00003FFC0000000
000FFFE00003FFC0000000
000FFFE00003FFC0000000
000FFFE00003FF80000000
000FFFE00003FF80000000
0007FFE00003FF80000000
0007FFE00003FF80000000
0007FFE00003FF80000000
0007FFE00003FF80000000
0003FFE00003FF80000000
0003FFE00003FF80000000
0003FFE00003FF80000000
0003FFE00003FF80000000
0001FFE00001FF80000000
0001FFE00001FF80000000
0001FFE00001FF00000000
0001FFE00001FF00000000
0000FFC00001FE00000000
0000FF800001FC00000000
0000FF000001F800000000
0000FE000001E000000000
000078000001C000000000
0000700000018000000000
0000400000000000000000
ENDCHAR
STARTCHAR quotesingle
ENCODING 39
SWIDTH 510 0
DWIDTH 84 0
BBX 19 48 33 128
BITMAP
000020
0000C0
0001C0
0003C0
0007C0
001F80
003F80
007F80
00FF80
01FF00
03FF00
07FF00
1FFE00
3FFE00
7FFE00
FFFE00
FFFC00
FFFC00
FFFC00
FFFC00
FFF800
FFF800
FFF800
7FF800
7FF000
7FF000
7FF000
7FE000
7FE000
3FE000
3FE000
3FC000
3FC000
3FC000
1FC000
1F8000
1F8000
1F8000
1F0000
1F0000
0F0000
0F0000
0E0000
0E0000
0E0000
060000
040000
040000
ENDCHAR
STARTCHAR comma
ENCODING 44
SWIDTH 510 0
DWIDTH 84 0
BBX 27 43 28 0
BITMAP
00000040
000000C0
000001C0
000001C0
000003C0
000003C0
000007C0
00000FC0
00000FC0
00001FC0
00001FE0
00003FE0
00003FE0
00007FE0
0000FFE0
0000FFE0
0001FFE0
0001FFE0
0003FFE0
0007FFE0
0007FFE0
000FFFE0
000FFFE0
001FFFE0
001FFFE0
003FFFC0
007FFF80
007FFE00
00FFFC00
00FFF800
01FFE000
01FFC000
03FF0000
07FE0000
07F80000
0FF00000
0FE00000
1F800000
1F000000
3C000000
78000000
60000000
C0000000
ENDCHAR
STARTCHAR hyphen
ENCODING 45
SWIDTH 510 0
DWIDTH 84 0
BBX 66 33 9 72
BITMAP
0000000000007F0000
000000000007FF8000
00000000003FFFE000
0000000001FFFFF000
000000000FFFFFFC00
000000007FFFFFFE00
00000003FFFFFFFF80
0000000FFFFFFFFF80
0000003FFFFFFFFFC0
000000FFFFFFFFFFC0
000003FFFFFFFFFFC0
00000FFFFFFFFFFFC0
00003FFFFFFFFFFF80
0000FFFFFFFFFFF800
0003FFFFFFFFFF8000
0007FFFFFFFFFC0000
001FFFFFFFFFC00000
003FFFFFFFFE000000
00FFFFFFFFF0000000
01FFFFFFFF00000000
01FFFFFFF800000000
03FFFFFFC000000000
07FFFFFE0000000000
07FFFFF00000000000
0FFFFF000000000000
0FFFF8000000000000
1FFFC0000000000000
3FFE00000000000000
3FF800000000000000
7FC000000000000000
7E0000000000000000
F80000000000000000
800000000000000000
ENDCHAR
STARTCHAR period
ENCODING 46
SWIDTH 510 0
DWIDTH 84 0
BBX 26 43 29 0
BITMAP
40000000
60000000
70000000
70000000
78000000
78000000
7C000000
7C000000
7E000000
FF000000
FF000000
FF800000
FF800000
FFC00000
FFE00000
FFE00000
FFF00000
FFF00000
FFF80000
FFF80000
FFFC0000
FFFE0000
FFFE0000
FFFF0000
FFFF0000
7FFF8000
3FFF8000
1FFFC000
07FFE000
03FFE000
00FFF000
007FF000
001FF800
000FF800
0007FC00
0001FE00
0000FE00
00003F00
00001F00
00000780
00000380
000000C0
00000040
ENDCHAR
STARTCHAR zero
ENCODING 48
SWIDTH 510 0
DWIDTH 84 0
BBX 64 165 12 -1
BITMAP
0000000000020000
00000000000F8000
00000000001FF000
00010000007FFE00
0007000001FFFF80
000F000003FFFFF0
003F00000FFFFFFC
007F00003FFFFFFF
00FF00007FFFFFFF
01FF0001FFFFFFFE
01FF0007FFFFFFFC
03FF000FFFFFFFF8
03FF000FFFFFFFC0
03FF000FFFFFE000
03FF000FFFFC0000
03FF000FFFFC0000
03FF000FFFFC0000
03FF000FFFFC0000
03FF000FFFFC0000
03FF000FFFFC0000
03FF000FFFFC0000
03FF800FFFF80000
03FF800FFFF80000
03FF800FFFF80000
03FF800FFFF80000
03FF800FFFF80000
03FF800FFFF80000
03FF800FFFF80000
07FF800FFFF80000
07FF800FFFF80000
07FF800FFFF80000
07FF800FFFF80000
07FF800FFFF80000
07FF800FFFF80000
07FF800FFFF80000
07FF800FFFF80000
07FF800FFFF80000
07FF800FFFF80000
07FF800FFFF00000
07FF800FFFF00000
07FF800FFFF00000
07FF800FFFF00000
07FF800FFFF00000
0FFF800FFFF00000
0FFF800FFFF00000
0FFF800FFFF00000
0FFF800FFFF00000
0FFF800FFFF00000
0FFF800FFFF00000
0FFF800FFFF00000
0FFF800FFFF00000
0FFF800FFFF00000
0FFF800FFFF00000
0FFF800FFFF00000
0FFF800FFFE00000
0FFF800FFFE00000
0FFF800FFFE00000
0FFF800FFFE00000
1FFF800FFFE00000
1FFF800FFFE00000
1FFF800FFFE00000
1FFF800FFFE00000
1FFF800FFFE00000
1FFF800FFFE00000
1FFF800FFFE00000
1FFF800FFFE00000
1FFF800FFFE00000
1FFF800FFFE00000
1FFF800FFFE00000
1FFF800FFFE00000
1FFF800FFFE00000
1FFF800FFFC00000
1FFF800FFFC00000
3FFF800FFFC00000
3FFFC00FFFC00000
3FFFC00FFFC00000
3FFFC00FFFC00000
3FFFC00FFFC00000
3FFFC00FFFC00000
3FFFC00FFFC00000
3FFFC00FFFC00000
3FFFC00FFFC00000
3FFFC00FFFC00000
3FFFC00FFFC00000
3FFFC00FFFC00000
3FFFC00FFFC00000
3FFFC00FFFC00000
7FFFC00FFFC00000
7FFFC00FFF800000
7FFFC00FFF800000
7FFFC00FFF800000
7FFFC00FFF800000
7FFFC00FFF800000
7FFFC00FFF800000
7FFFC00FFF800000
7FFFC00FFF800000
7FFFC00FFF800000
7FFFC00FFF800000
7FFFC00FFF800000
7FFFC00FFF800000
7FFFC00FFF800000
7FFFC00FFF800000
FFFFC00FFF800000
FFFFC00FFF800000
FFFFC00FFF000000
FFFFC00FFF000000
FFFF800FFF000000
FFFE000FFF000000
FFF8000FFF000000
FFF0000FFF000000
FFC0000FFF000000
FF80000FFF000000
FE00000FFF000000
FC00000FFF000000
F000000FFF000000
C000000FFF000000
0000000FFF000000
0000000FFF000000
0000000FFF000000
0000000FFF000000
0000000FFF000000
0000000FFE000000
0000000FFE000000
0000000FFE000000
0000000FFE000000
0000000FFE000000
0000000FFE000000
0000000FFE000000
0000000FFE000000
0000000FFE000000
0000000FFE000000
0000000FFE000000
0000000FFE000000
0000000FFE000000
0000000FFE000000
0000000FFE000000
0000000FFE000000
0000000FFC000000
0000000FFC000000
0000000FFC000000
0000000FFC000000
0000000FFC000000
0000000FFC000000
0000000FFC000000
0000000FFC000000
0000000FFC000000
0000000FFC000000
0000000FFC000000
0000000FFC000000
0000000FFC000000
0000000FFC000000
0000000FFC000000
0000000FFC000000
0000000FF8000000
0000000FF8000000
0000000FF8000000
0000000FF8000000
0000000FF8000000
0000000FF8000000
0000000FF0000000
0000000FE0000000
0000000F80000000
0000000F00000000
0000000E00000000
0000000800000000
ENDCHAR
STARTCHAR one
ENCODING 49
SWIDTH 510 0
DWIDTH 84 0
BBX 83 165 1 -1
BITMAP
0000000010010000000000
0000000070018000000000
00000000F001E000000000
00000001F001F000000000
00000007F001F800000000
0000000FF001FC00000000
0000001FF001FE00000000
0000001FF001FF00000000
0000001FF001FF00000000
0000001FF001FF00000000
0000001FF001FF00000000
0000001FF001FF00000000
0000003FF001FF00000000
0000003FF003FF00000000
0000003FF003FF00000000
0000003FF003FF00000000
0000003FF003FF00000000
0000003FF003FF00000000
0000003FF003FF80000000
0000003FF003FF80000000
0000003FF003FF80000000
0000003FF003FF80000000
0000003FF003FF80000000
0000003FF003FF80000000
0000003FF003FF80000000
0000003FF003FF80000000
0000003FF003FF80000000
0000003FF003FF80000000
0000007FF003FF80000000
0000007FF003FF80000000
0000007FF003FF80000000
0000007FF003FF80000000
0000007FF003FF80000000
0000007FF003FF80000000
0000007FF003FF80000000
0000007FF003FFC0000000
0000007FF003FFC0000000
0000007FF003FFC0000000
0000007FF003FFC0000000
0000007FF003FFC0000000
0000007FF003FFC0000000
0000007FF003FFC0000000
0000007FF003FFC0000000
0000007FF003FFC0000000
000000FFF003FFC0000000
000000FFF003FFC0000000
000000FFF003FFC0000000
000000FFF003FFC0000000
000000FFF003FFC0000000
000000FFF003FFC0000000
000000FFF003FFC0000000
000000FFF003FFE0000000
000000FFF003FFE0000000
000000FFF003FFE0000000
000000FFF003FFE0000000
000000FFF003FFE0000000
000000FFF003FFE0000000
000000FFF003FFE0000000
000000FFF003FFE0000000
000000FFF003FFE0000000
000000FFF003FFE0000000
000001FFF003FFE0000000
000001FFF003FFE0000000
000001FFF003FFE0000000
000001FFF003FFE0000000
000001FFF003FFE0000000
000001FFF003FFE0000000
000001FFF003FFF0000000
000001FFF003FFF0000000
000001FFF003FFF0000000
000001FFF003FFF0000000
000001FFF003FFF0000000
000001FFF003FFF0000000
000001FFF003FFF0000000
000001FFF003FFF0000000
000001FFF003FFF0000000
000001FFF003FFF0000000
000001FFF003FFF0000000
000003FFF003FFF0000000
000003FFF003FFF0000000
000003FFF003FFF0000000
000003FFF003FFF0000000
000003FFF003FFF0000000
000003FFF003FFF0000000
000003FFF003FFF8000000
000003FFF003FFF8000000
000003FFF003FFF8000000
000003FFF003FFF8000000
000003FFF003FFF8000000
000003FFF003FFF8000000
000003FFF003FFF8000000
000003FFF003FFF8000000
000003FFF003FFF8000000
000003FFF003FFF8000000
000003FFF003FFF8000000
000007FFF003FFF8000000
000007FFF003FFF8000000
000007FFF003FFF8000000
000007FFF003FFF8000000
000007FFF003FFF8000000
000007FFF003FFF8000000
000007FFF003FFFC000000
000007FFF003FFFC000000
000007FFF003FFFC000000
000007FFF003FFFC000000
000007FFF003FFFC000000
000007FFF003FFFC000000
000007FFF003FFFC000000
000007FFF003FFFC000000
000007FFF003FFFC000000
000007FFF003FFFC000000
00000FFFF003FFFC000000
00000FFFF003FFFC000000
00000FFFF003FFFC000000
00000FFFF003FFFC000000
00000FFFF003FFFC000000
00000FFFF003FFFC000000
00000FFFF003FFFC000000
00000FFFF003FFFE000000
00000FFFF003FFFE000000
00000FFFF003FFFE000000
00000FFFF003FFFE000000
00000FFFF003FFFE000000
00000FFFF003FFFE000000
00000FFFF003FFFE000000
00000FFFF003FFFE000000
00000FFFF003FFFE000000
00000FFFF003FFFE000000
00001FFFF003FFFE000000
00001FFFF003FFFE000000
00001FFFF003FFFE000000
00001FFFF003FFFE000000
00001FFFF003FFFE000000
00001FFFF003FFFE000000
00001FFFF003FFFF000000
00001FFFF003FFFF000000
00001FFFF003FFFF000000
00001FFFF003FFFF000000
00001FFFF003FFFF000000
00001FFFF003FFFF000000
00001FFFF003FFFF000000
00001FFFF003FFFF000000
00001FFFF003FFFF000000
00001FFFF003FFFF000000
00001FFFF003FFFF000000
00003FFFF003FFFF000000
00003FFFF003FFFF000000
00003FFFF003FFFF000000
00003FFFF003FFFF000000
00003FFFF003FFFF000000
00007FFFF003FFFF800000
0007FFFFF003FFFFF80000
03FFFFFFF003FFFFFFF800
1FFFFFFFF003FFFFFFFE00
3FFFFFFFE000FFFFFFFF00
7FFFFFFF80003FFFFFFF80
FFFFFFFE00001FFFFFFFC0
FFFFFFFC000007FFFFFFE0
3FFFFFF0000001FFFFFF80
07FFFFC0000000FFFFFC00
01FFFF800000003FFFF000
003FFE000000000FFF8000
000FF80000000003FE0000
0001F00000000001F00000
0000400000000000400000
ENDCHAR
STARTCHAR two
ENCODING 50
SWIDTH 510 0
DWIDTH 84 0
BBX 44 164 20 0
BITMAP
100000000000
1C0000000000
1E0000000000
1F8000000010
1FC000000070
1FE0000000F0
1FF0000003F0
1FF000000FF0
1FF000001FF0
1FF800007FF0
1FF80000FFF0
3FF80003FFF0
3FF80007FFF0
3FF8001FFFF0
3FF8003FFFF0
3FF8003FFFF0
3FF8003FFFF0
3FF8003FFFF0
3FF8003FFFF0
3FF8003FFFF0
3FF8003FFFF0
3FF8003FFFF0
3FF8003FFFF0
3FF8003FFFE0
3FF8003FFFE0
3FF8003FFFE0
3FF8003FFFE0
3FF8003FFFE0
3FF8003FFFE0
3FF8003FFFE0
3FF8003FFFE0
3FF8003FFFE0
3FF8003FFFE0
3FF8003FFFE0
3FF8003FFFE0
3FF8003FFFE0
3FF8003FFFE0
3FF8003FFFE0
3FF8003FFFE0
3FF8003FFFE0
3FF8003FFFE0
3FF8003FFFE0
3FF8003FFFE0
3FF8003FFFE0
3FF8003FFFE0
3FFC003FFFE0
3FFC003FFFC0
3FFC003FFFC0
3FFC001FFFC0
3FFC001FFFC0
3FFC001FFFC0
3FFC001FFFC0
3FFC001FFFC0
7FFC001FFFC0
7FFC001FFFC0
7FFC001FFFC0
7FFC001FFFC0
7FFC001FFFC0
7FFC001FFFC0
7FFC001FFFC0
7FFC001FFFC0
7FFC001FFFC0
7FFC001FFFC0
7FFC001FFFC0
7FFC001FFFC0
7FFC001FFFC0
7FFC001FFF80
7FFC001FFF80
7FFC001FFF80
7FFC001FFF80
7FFC001FFF80
7FFC001FFF80
7FFC001FFF80
7FFC001FFF80
7FFE001FFF80
7FFE001FFF80
7FFE001FFF80
7FFE001FFF80
7FFE001FFF80
7FFE001FFF80
7FFE001FFF80
7FFE001FFF80
7FFE001FFF00
7FFE001FFF00
7FFE001FFF00
7FFE001FFF00
7FFE001FFF00
7FFE001FFF00
7FFE001FFF00
7FFE001FFF00
7FFE001FFF00
7FFE001FFF00
7FFE001FFF00
7FFE001FFF00
7FFE001FFF00
7FFE001FFF00
7FFE001FFF00
7FFE001FFF00
7FFE001FFF00
FFFE001FFE00
FFFE001FFE00
FFFF001FFE00
FFFF001FFE00
FFFF001FFE00
FFFF001FFE00
FFFF001FFE00
FFFF001FFE00
FFFF000FFE00
FFFF000FFE00
FFFF000FFE00
FFFF000FFE00
FFFF000FFE00
FFFF000FFE00
FFFF000FFE00
FFFF000FFE00
FFFF000FFC00
FFFF000FFC00
FFFF000FFC00
FFFF000FFC00
FFFF000FFC00
FFFF000FFC00
FFFF000FFC00
FFFF000FFC00
FFFF000FFC00
FFFF000FFC00
FFFF000FFC00
FFFF000FFC00
FFFF000FFC00
FFFF000FFC00
FFFF800FFC00
FFFF800FFC00
FFFF800FFC00
FFFF800FF800
FFFF800FE000
FFFF800FC000
FFFF800F0000
FFFF800E0000
FFFF800C0000
FFFF80000000
FFFF80000000
FFFF80000000
FFFF80000000
FFFF80000000
FFFF80000000
FFFF80000000
FFFF80000000
FFFF80000000
FFFF80000000
FFFF80000000
FFFF80000000
FFFFC0000000
FFFFFF000000
FFFFFFF80000
FFFFFFFF0000
3FFFFFFF8000
0FFFFFFFC000
07FFFFFFE000
01FFFFFFE000
00FFFFFF8000
003FFFFC0000
000FFFE00000
0007FF800000
0001FC000000
0000E0000000
ENDCHAR
STARTCHAR three
ENCODING 51
SWIDTH 510 0
DWIDTH 84 0
BBX 82 165 1 -1
BITMAP
0001C00000000000C00000
0007F00000000003F80000
003FF8000000000FFE0000
00FFFE000000001FFFC000
07FFFF800000007FFFF000
1FFFFFE0000001FFFFFE00
7FFFFFF0000003FFFFFF80
FFFFFFFC00000FFFFFFFC0
7FFFFFFF00003FFFFFFFC0
7FFFFFFF80007FFFFFFF80
3FFFFFFFE001FFFFFFFF00
1FFFFFFFF003FFFFFFFC00
00FFFFFFF003FFFFFFC000
0000FFFFF003FFFFE00000
00003FFFF003FFFF000000
00003FFFF003FFFF000000
00003FFFF003FFFF000000
00003FFFF003FFFF000000
00003FFFF003FFFF000000
00003FFFF003FFFF000000
00003FFFF003FFFF000000
00003FFFF003FFFF000000
00003FFFF003FFFF000000
00003FFFF003FFFE000000
00003FFFF003FFFE000000
00003FFFF003FFFE000000
00001FFFF003FFFE000000
00001FFFF003FFFE000000
00001FFFF003FFFE000000
00001FFFF003FFFE000000
00001FFFF003FFFE000000
00001FFFF003FFFE000000
00001FFFF003FFFE000000
00001FFFF003FFFE000000
00001FFFF003FFFE000000
00001FFFF003FFFE000000
00001FFFF003FFFE000000
00001FFFF003FFFE000000
00001FFFF003FFFE000000
00001FFFF003FFFE000000
00001FFFF003FFFE000000
00001FFFF003FFFC000000
00001FFFF003FFFC000000
00000FFFF003FFFC000000
00000FFFF003FFFC000000
00000FFFF003FFFC000000
00000FFFF003FFFC000000
00000FFFF003FFFC000000
00000FFFF003FFFC000000
00000FFFF003FFFC000000
00000FFFF003FFFC000000
00000FFFF003FFFC000000
00000FFFF003FFFC000000
00000FFFF003FFFC000000
00000FFFF003FFFC000000
00000FFFF003FFFC000000
00000FFFF003FFFC000000
00000FFFF003FFFC000000
00000FFFF003FFF8000000
000007FFF003FFF8000000
000007FFF003FFF8000000
000007FFF003FFF8000000
000007FFF003FFF8000000
000007FFF003FFF8000000
000007FFF003FFF8000000
000007FFF003FFF8000000
000007FFF003FFF8000000
000007FFF003FFF8000000
000007FFF003FFF8000000
000007FFF003FFF8000000
000007FFF003FFF8000000
000007FFF003FFF8000000
000007FFF003FFF8000000
000007FFF003FFF8000000
000007FFF003FFF0000000
000007FFF003FFF0000000
000003FFF003FFF0000000
000003FFF003FFF0000000
000003FFF003FFF0000000
000003FFF003FFF0000000
000003FFF003FFF0000000
000003FFF003FFF0000000
000003FFF003FFF0000000
000003FFF003FFF0000000
000003FFF003FFF0000000
000003FFF003FFF0000000
000003FFF003FFF0000000
000003FFF003FFF0000000
000003FFF003FFF0000000
000003FFF003FFF0000000
000003FFF003FFF0000000
000003FFF003FFE0000000
000003FFF003FFE0000000
000001FFF003FFE0000000
000001FFF003FFE0000000
000001FFF003FFE0000000
000001FFF003FFE0000000
000001FFF003FFE0000000
000001FFF003FFE0000000
000001FFF003FFE0000000
000001FFF003FFE0000000
000001FFF003FFE0000000
000001FFF003FFE0000000
000001FFF003FFE0000000
000001FFF003FFE0000000
000001FFF003FFE0000000
000001FFF003FFE0000000
000001FFF003FFE0000000
000001FFF003FFC0000000
000001FFF003FFC0000000
000000FFF003FFC0000000
000000FFF003FFC0000000
000000FFF003FFC0000000
000000FFF003FFC0000000
000000FFF003FFC0000000
000000FFF003FFC0000000
000000FFF003FFC0000000
000000FFF003FFC0000000
000000FFF003FFC0000000
000000FFF003FFC0000000
000000FFF003FFC0000000
000000FFF003FFC0000000
000000FFF003FFC0000000
000000FFF003FFC0000000
000000FFF003FF80000000
000000FFF003FF80000000
0000007FF003FF80000000
0000007FF003FF80000000
0000007FF003FF80000000
0000007FF003FF80000000
0000007FF003FF80000000
0000007FF003FF80000000
0000007FF003FF80000000
0000007FF003FF80000000
0000007FF003FF80000000
0000007FF003FF80000000
0000007FF003FF80000000
0000007FF003FF80000000
0000007FF003FF80000000
0000007FF003FF80000000
0000007FF003FF00000000
0000007FF003FF00000000
0000007FF003FF00000000
0000003FF003FF00000000
0000003FF003FF00000000
0000003FF003FF00000000
0000003FF003FF00000000
0000003FF003FF00000000
0000003FF003FF00000000
0000003FF003FF00000000
0000003FF003FF00000000
0000003FF003FF00000000
0000003FF003FF00000000
0000003FF003FF00000000
0000003FF003FF00000000
0000003FF003FF00000000
0000003FF003FE00000000
0000001FF003FE00000000
0000001FF003FE00000000
0000000FF003FC00000000
00000003F003F000000000
00000001F003E000000000
00000000F003C000000000
0000000030030000000000
0000000010020000000000
ENDCHAR
STARTCHAR four
ENCODING 52
SWIDTH 510 0
DWIDTH 84 0
BBX 44 164 20 0
BITMAP
000060000000
0001FC000000
0007FF000000
000FFFE00000
003FFFFC0000
00FFFFFF0000
01FFFFFFE000
07FFFFFFE000
0FFFFFFFC000
3FFFFFFF8000
7FFFFFFF0000
FFFFFFFC0000
FFFFFF000000
FFFFE0000000
FFFF80000000
FFFF80000000
FFFF80000000
FFFF80000000
FFFF80000000
FFFF80000000
FFFF80000000
FFFF80000000
FFFF80000000
FFFF80000000
FFFF80000000
FFFF80000000
FFFF80080000
FFFF800E0000
FFFF800F0000
FFFF800FC000
FFFF800FE000
FFFF800FF000
FFFF800FFC00
FFFF800FFC00
FFFF800FFC00
FFFF000FFC00
FFFF000FFC00
FFFF000FFC00
FFFF000FFC00
FFFF000FFC00
FFFF000FFC00
FFFF000FFC00
FFFF000FFC00
FFFF000FFC00
FFFF000FFC00
FFFF000FFC00
FFFF000FFC00
FFFF000FFC00
FFFF000FFC00
FFFF000FFE00
FFFF000FFE00
FFFF000FFE00
FFFF000FFE00
FFFF000FFE00
FFFF000FFE00
FFFF000FFE00
FFFF000FFE00
FFFF000FFE00
FFFF000FFE00
FFFF001FFE00
FFFF001FFE00
FFFF001FFE00
FFFF001FFE00
FFFE001FFE00
FFFE001FFE00
7FFE001FFF00
7FFE001FFF00
7FFE001FFF00
7FFE001FFF00
7FFE001FFF00
7FFE001FFF00
7FFE001FFF00
7FFE001FFF00
7FFE001FFF00
7FFE001FFF00
7FFE001FFF00
7FFE001FFF00
7FFE001FFF00
7FFE001FFF00
7FFE001FFF00
7FFE001FFF00
7FFE001FFF80
7FFE001FFF80
7FFE001FFF80
7FFE001FFF80
7FFE001FFF80
7FFE001FFF80
7FFE001FFF80
7FFE001FFF80
7FFE001FFF80
7FFC001FFF80
7FFC001FFF80
7FFC001FFF80
7FFC001FFF80
7FFC001FFF80
7FFC001FFF80
7FFC001FFF80
7FFC001FFF80
7FFC001FFFC0
7FFC001FFFC0
7FFC001FFFC0
7FFC001FFFC0
7FFC001FFFC0
7FFC001FFFC0
7FFC001FFFC0
7FFC001FFFC0
7FFC001FFFC0
7FFC001FFFC0
7FFC001FFFC0
7FFC001FFFC0
7FFC001FFFC0
7FFC001FFFC0
3FFC001FFFC0
3FFC001FFFC0
3FFC001FFFC0
3FFC001FFFC0
3FFC001FFFC0
3FFC003FFFC0
3FFC003FFFE0
3FF8003FFFE0
3FF8003FFFE0
3FF8003FFFE0
3FF8003FFFE0
3FF8003FFFE0
3FF8003FFFE0
3FF8003FFFE0
3FF8003FFFE0
3FF8003FFFE0
3FF8003FFFE0
3FF8003FFFE0
3FF8003FFFE0
3FF8003FFFE0
3FF8003FFFE0
3FF8003FFFE0
3FF8003FFFE0
3FF8003FFFE0
3FF8003FFFE0
3FF8003FFFE0
3FF8003FFFE0
3FF8003FFFE0
3FF8003FFFE0
3FF8003FFFF0
3FF8003FFFF0
3FF8003FFFF0
3FF8003FFFF0
3FF8003FFFF0
3FF8003FFFF0
3FF8003FFFF0
3FF8003FFFF0
3FF8003FFFF0
3FF8001FFFF0
3FF8000FFFF0
3FF80003FFF0
3FF80000FFF0
1FF000007FF0
1FF000001FF0
1FF000000FF0
1FF0000003F0
1FE0000001F0
1FC000000070
1F8000000010
1E0000000000
1C0000000000
100000000000
ENDCHAR
STARTCHAR five
ENCODING 53
SWIDTH 510 0
DWIDTH 84 0
BBX 79 164 2 0
BITMAP
0001E0000000001E0000
000FF8000000007FC000
003FFE00000000FFF800
01FFFF00000003FFFE00
07FFFFC000000FFFFFC0
3FFFFFF000001FFFFFF8
FFFFFFF800007FFFFFFE
7FFFFFFE0001FFFFFFFC
7FFFFFFF0003FFFFFFF8
3FFFFFFFC00FFFFFFFF0
0FFFFFFFF01FFFFFFFE0
01FFFFFFF01FFFFFFF00
0007FFFFF01FFFFF8000
00003FFFF01FFFF80000
00003FFFF01FFFF80000
00003FFFF01FFFF80000
00003FFFF01FFFF00000
00003FFFF01FFFF00000
00003FFFF01FFFF00000
00003FFFF01FFFF00000
00003FFFF01FFFF00000
00003FFFF01FFFF00000
00003FFFF01FFFF00000
00003FFFF01FFFF00000
00003FFFF01FFFF00000
00001FFFF01FFFF00000
00001FFFF01FFFF00000
00001FFFF01FFFF00000
00001FFFF01FFFF00000
00001FFFF01FFFF00000
00001FFFF01FFFF00000
00001FFFF01FFFF00000
00001FFFF01FFFF00000
00001FFFF01FFFF00000
00001FFFF01FFFE00000
00001FFFF01FFFE00000
00001FFFF01FFFE00000
00001FFFF01FFFE00000
00001FFFF01FFFE00000
00001FFFF01FFFE00000
00001FFFF01FFFE00000
00001FFFF01FFFE00000
00001FFFF01FFFE00000
00001FFFF01FFFE00000
00001FFFF01FFFE00000
00000FFFF01FFFE00000
00000FFFF01FFFE00000
00000FFFF01FFFE00000
00000FFFF01FFFE00000
00000FFFE01FFFE00000
00000FFFE01FFFE00000
00000FFFE01FFFE00000
00000FFFE01FFFE00000
00000FFFE01FFFE00000
00000FFFE01FFFE00000
00000FFFE01FFFC00000
00000FFFE01FFFC00000
00000FFFE01FFFC00000
00000FFFE01FFFC00000
00000FFFE01FFFC00000
00000FFFE01FFFC00000
00000FFFE01FFFC00000
00000FFFE01FFFC00000
00000FFFE01FFFC00000
00000FFFE01FFFC00000
00000FFFE01FFFC00000
00000FFFE01FFFC00000
000007FFE01FFFC00000
000007FFE01FFFC00000
000007FFE01FFFC00000
000007FFE01FFFC00000
000007FFE01FFFC00000
000007FFE01FFFC00000
000007FFE01FFFC00000
000007FFE01FFFC00000
000007FFE01FFFC00000
000007FFE01FFFC00000
000007FFE01FFF800000
000007FFE01FFF800000
000007FFE01FFF800000
000007FFE01FFF800000
000007FFE01FFF800000
000007FFE01FFF800000
000007FFE01FFF800000
000007FFE01FFF800000
000007FFE00FFF800000
000007FFE00FFF800000
000007FFE00FFF800000
000007FFE00FFF800000
000003FFE00FFF800000
000003FFE00FFF800000
000003FFE00FFF800000
000003FFE00FFF800000
000003FFE00FFF800000
000003FFE00FFF800000
000003FFE00FFF800000
000003FFE00FFF800000
000003FFE00FFF800000
000003FFE00FFF800000
000003FFE00FFF800000
000003FFE00FFF000000
000003FFE00FFF000000
000003FFE00FFF000000
000003FFE00FFF000000
000003FFE00FFF000000
000003FFE00FFF000000
000003FFE00FFF000000
000003FFE00FFF000000
000003FFE00FFF000000
000003FFE00FFF000000
000003FFC00FFF000000
000003FFC00FFF000000
000003FFC00FFF000000
000003FFC00FFF000000
000001FFC00FFF000000
000001FFC00FFF000000
000001FFC00FFF000000
000001FFC00FFF000000
000001FFC00FFF000000
000001FFC00FFF000000
000001FFC00FFF000000
000001FFC00FFF000000
000001FFC00FFF000000
000001FFC00FFF000000
000001FFC00FFE000000
000001FFC00FFE000000
000001FFC00FFE000000
000001FFC00FFE000000
000001FFC00FFE000000
000001FFC00FFE000000
000001FFC00FFE000000
000001FFC00FFE000000
000001FFC00FFE000000
000001FFC00FFE000000
000001FFC00FFE000000
000001FFC00FFE000000
000001FFC00FFE000000
000000FFC00FFE000000
000000FFC007FE000000
000000FFC007FE000000
000000FFC007FE000000
000000FFC007FE000000
000000FFC007FE000000
000000FFC007FE000000
000000FFC007FE000000
000000FFC007FE000000
000000FFC007FE000000
000000FFC007FE000000
000000FFC007FE000000
000000FFC007FE000000
000000FFC007FE000000
000FFFFFC007FFFFC000
07FFFFFFC007FFFFFF00
1FFFFFFF8003FFFFFFE0
3FFFFFFF0001FFFFFFF0
3FFFFFFC0000FFFFFFF8
7FFFFFF800003FFFFFFC
FFFFFFE000001FFFFFFC
3FFFFFC0000007FFFFF0
07FFFF80000003FFFF80
00FFFE00000001FFFC00
003FFC000000007FF000
0007F0000000003F8000
0000E0000000000C0000
ENDCHAR
STARTCHAR six
ENCODING 54
SWIDTH 510 0
DWIDTH 84 0
BBX 36 164 24 0
BITMAP
0000F00000
0001FE0000
0007FFC000
001FFFF800
003FFFFE00
00FFFFFFC0
01FFFFFFF0
07FFFFFFE0
1FFFFFFFE0
3FFFFFFFC0
FFFFFFFF00
FFFFFFF800
FFFFFE0000
FFFFC00000
FFFFC00000
FFFFC00000
FFFFC00000
FFFFC00000
FFFFC00000
FFFFC00000
FFFFC00000
FFFFC00000
FFFFC00000
FFFFC00000
FFFF800000
FFFF800000
FFFF800000
FFFF800000
FFFF800000
FFFF800000
FFFF800000
FFFF800000
FFFF800000
FFFF800000
FFFF800000
FFFF800000
FFFF800000
FFFF800000
FFFF800000
FFFF800000
FFFF800000
FFFF800000
FFFF800000
FFFF800000
FFFF000000
FFFF000000
FFFF000000
FFFF000000
FFFF000000
FFFF000000
FFFF000000
FFFF000000
FFFF000000
FFFF000000
7FFF000000
7FFF000000
7FFF000000
7FFF000000
7FFF000000
7FFF000000
7FFF000000
7FFF000000
7FFF000000
7FFF000000
7FFF000000
7FFF000000
7FFE000000
7FFE000000
7FFE000000
7FFE000000
7FFE000000
7FFE000000
7FFE000000
7FFE000000
7FFE000000
7FFE000000
7FFE000000
7FFE000000
7FFE000000
7FFE000000
7FFE000000
7FFE000000
7FFE000000
7FFE000000
7FFE000000
7FFE000000
7FFE000000
7FFE000000
7FFC000000
7FFC000000
7FFC000000
7FFC000000
7FFC000000
7FFC000000
7FFC000000
7FFC000000
7FFC000000
7FFC000000
7FFC000000
7FFC000000
7FFC000000
7FFC000000
7FFC000000
7FFC000000
7FFC000000
7FFC000000
7FFC000000
7FFC000000
7FFC000000
7FFC000000
7FFC000000
7FF8000000
3FF8000000
3FF8000000
3FF8000000
3FF8000000
3FF8000000
3FF8000000
3FF8000000
3FF8000000
3FF8000000
3FF8000000
3FF8000000
3FF8000000
3FF8000000
3FF8000000
3FF8000000
3FF8000000
3FF8000000
3FF8000000
3FF8000000
3FF8000000
3FF8000000
3FF8000000
3FF8000000
3FF8000000
3FF0000000
3FF0000000
3FF0000000
3FF0000000
3FF0000000
3FF0000000
3FF0000000
3FF0000000
3FF0000000
3FF0000000
3FF0000000
3FF0000000
3FF0000000
3FF0000000
3FF0000000
3FFFFF0000
3FFFFFFC00
1FFFFFFF00
0FFFFFFF80
03FFFFFFE0
01FFFFFFE0
007FFFFFF0
003FFFFF80
001FFFFE00
0007FFF000
0003FF8000
0000FE0000
0000700000
ENDCHAR
STARTCHAR seven
ENCODING 55
SWIDTH 510 0
DWIDTH 84 0
BBX 82 164 1 0
BITMAP
0000000000000001E00000
0000000000000003F80000
000000000000000FFF0000
000000000000003FFFC000
000000000000007FFFF800
00000000000001FFFFFE00
00000000000007FFFFFFC0
0000000000000FFFFFFFC0
0000000000003FFFFFFF80
000000001000FFFFFFFF00
000000007001FFFFFFFE00
00000000F003FFFFFFFC00
00000001F003FFFFFF8000
00000007F003FFFFC00000
0000000FF003FFFF000000
0000001FF003FFFF000000
0000001FF003FFFF000000
0000001FF003FFFF000000
0000003FF003FFFF000000
0000003FF003FFFF000000
0000003FF003FFFF000000
0000003FF003FFFF000000
0000003FF003FFFF000000
0000003FF003FFFE000000
0000003FF003FFFE000000
0000003FF003FFFE000000
0000003FF003FFFE000000
0000003FF003FFFE000000
0000003FF003FFFE000000
0000003FF003FFFE000000
0000003FF003FFFE000000
0000003FF003FFFE000000
0000007FF003FFFE000000
0000007FF003FFFE000000
0000007FF003FFFE000000
0000007FF003FFFE000000
0000007FF003FFFE000000
0000007FF003FFFE000000
0000007FF003FFFE000000
0000007FF003FFFC000000
0000007FF003FFFC000000
0000007FF003FFFC000000
0000007FF003FFFC000000
0000007FF003FFFC000000
0000007FF003FFFC000000
0000007FF003FFFC000000
0000007FF003FFFC000000
000000FFF003FFFC000000
000000FFF003FFFC000000
000000FFF003FFFC000000
000000FFF003FFFC000000
000000FFF003FFFC000000
000000FFF003FFFC000000
000000FFF003FFFC000000
000000FFF003FFFC000000
000000FFF003FFF8000000
000000FFF003FFF8000000
000000FFF003FFF8000000
000000FFF003FFF8000000
000000FFF003FFF8000000
000000FFF003FFF8000000
000000FFF003FFF8000000
000001FFF003FFF8000000
000001FFF003FFF8000000
000001FFF003FFF8000000
000001FFF003FFF8000000
000001FFF003FFF8000000
000001FFF003FFF8000000
000001FFF003FFF8000000
000001FFF003FFF8000000
000001FFF003FFF0000000
000001FFF003FFF0000000
000001FFF003FFF0000000
000001FFF003FFF0000000
000001FFF003FFF0000000
000001FFF003FFF0000000
000001FFF003FFF0000000
000001FFF003FFF0000000
000003FFF003FFF0000000
000003FFF003FFF0000000
000003FFF003FFF0000000
000003FFF003FFF0000000
000003FFF003FFF0000000
000003FFF003FFF0000000
000003FFF003FFF0000000
000003FFF003FFF0000000
000003FFF003FFE0000000
000003FFF003FFE0000000
000003FFF003FFE0000000
000003FFF003FFE0000000
000003FFF003FFE0000000
000003FFF003FFE0000000
000003FFF003FFE0000000
000007FFF003FFE0000000
000007FFF003FFE0000000
000007FFF003FFE0000000
000007FFF003FFE0000000
000007FFF003FFE0000000
000007FFF003FFE0000000
000007FFF003FFE0000000
000007FFF003FFE0000000
000007FFF003FFC0000000
000007FFF003FFC0000000
000007FFF003FFC0000000
000007FFF003FFC0000000
000007FFF003FFC0000000
000007FFF003FFC0000000
000007FFF003FFC0000000
000007FFF003FFC0000000
00000FFFF003FFC0000000
00000FFFF003FFC0000000
00000FFFF003FFC0000000
00000FFFF003FFC0000000
00000FFFF003FFC0000000
00000FFFF003FFC0000000
00000FFFF003FFC0000000
00000FFFF003FFC0000000
00000FFFF003FF80000000
00000FFFF003FF80000000
00000FFFF003FF80000000
00000FFFF003FF80000000
00000FFFF003FF80000000
00000FFFF003FF80000000
00000FFFF003FF80000000
00000FFFF003FF80000000
00001FFFF003FF80000000
00001FFFF003FF80000000
00001FFFF003FF80000000
00001FFFF003FF80000000
00001FFFF003FF80000000
00001FFFF003FF80000000
00001FFFF003FF80000000
00001FFFF003FF00000000
00001FFFF003FF00000000
00001FFFF003FF00000000
00001FFFF003FF00000000
00001FFFF003FF00000000
00001FFFF003FF00000000
00001FFFF003FF00000000
00001FFFF003FF00000000
00001FFFF003FF00000000
00003FFFF003FF00000000
00003FFFF003FF00000000
00003FFFF003FF00000000
00003FFFF003FF00000000
00003FFFF003FF00000000
00003FFFF003FF00000000
00003FFFF003FE00000000
00003FFFF003FE00000000
00003FFFF003FE00000000
00003FFFF003FE00000000
000FFFFFF003FC00000000
0FFFFFFFF003F800000000
1FFFFFFFF003F000000000
3FFFFFFFC003C000000000
7FFFFFFF80038000000000
FFFFFFFE00030000000000
FFFFFFF800000000000000
3FFFFFF000000000000000
0FFFFFC000000000000000
01FFFF0000000000000000
007FFE0000000000000000
000FF80000000000000000
0001E00000000000000000
ENDCHAR
STARTCHAR eight
ENCODING 56
SWIDTH 510 0
DWIDTH 84 0
BBX 36 164 24 -3
BITMAP
0800000000
0E00000000
1F00000000
1F80000000
1FE0000000
1FF0000000
1FF0000000
1FF0000000
1FF0000000
1FF0000000
1FF0000000
1FF0000000
1FF8000000
1FF8000000
1FF8000000
1FF8000000
1FF8000000
1FF8000000
1FF8000000
1FF8000000
1FF8000000
1FF8000000
1FF8000000
1FF8000000
1FF8000000
1FF8000000
1FF8000000
1FF8000000
1FF8000000
1FF8000000
1FF8000000
3FF8000000
3FF8000000
3FF8000000
3FF8000000
3FFC000000
3FFC000000
3FFC000000
3FFC000000
3FFC000000
3FFC000000
3FFC000000
3FFC000000
3FFC000000
3FFC000000
3FFC000000
3FFC000000
3FFC000000
3FFC000000
3FFC000000
3FFC000000
3FFC000000
3FFC000000
3FFC000000
3FFC000000
3FFC000000
3FFC000000
3FFC000000
3FFC000000
3FFE000000
3FFE000000
3FFE000000
3FFE000000
3FFE000000
3FFE000000
3FFE000000
3FFE000000
3FFE000000
3FFE000000
3FFE000000
3FFE000000
3FFE000000
3FFE000000
3FFE000000
3FFE000000
3FFE000000
3FFE000000
3FFE000000
3FFE000000
7FFE000000
7FFE000000
7FFE000000
7FFE000000
7FFE000000
7FFE000000
7FFE000000
7FFF000000
7FFF000000
7FFF000000
7FFF000000
7FFF000000
7FFF000000
7FFF000000
7FFF000000
7FFF000000
7FFF000000
7FFF000000
7FFF000000
7FFF000000
7FFF000000
7FFF000000
7FFF000000
7FFF000000
7FFF000000
7FFF000000
7FFF000000
7FFF000000
7FFF000000
7FFF000000
7FFF000000
7FFF000000
7FFF000000
7FFF000000
7FFF800000
7FFF800000
7FFF800000
7FFF800000
7FFF800000
7FFF800000
7FFF800000
7FFF800000
7FFF800000
7FFF800000
7FFF800000
7FFF800000
7FFF800000
7FFF800000
FFFF800000
FFFF800000
FFFF800000
FFFF800000
FFFF800000
FFFF800000
FFFF800000
FFFF800000
FFFF800000
FFFF800000
FFFF800000
FFFF800000
FFFF800000
FFFF800000
FFFF800000
FFFFC00000
FFFFC00000
FFFFC00000
FFFFC00000
FFFFC00000
FFFFC00000
FFFFC00000
FFFFC00000
FFFFC00000
FFFFFE0000
FFFFFFF800
FFFFFFFF00
3FFFFFFFC0
0FFFFFFFE0
07FFFFFFF0
01FFFFFFF0
00FFFFFFC0
003FFFFF00
000FFFF800
0007FFC000
0001FF0000
0000780000
ENDCHAR
STARTCHAR nine
ENCODING 57
SWIDTH 510 0
DWIDTH 84 0
BBX 63 164 11 0
BITMAP
08000000000E0000
1C000000003FC000
1E000000007FF800
1F80000001FFFE00
1FC0000007FFFFC0
1FE000000FFFFFF0
1FF000003FFFFFFE
1FF00000FFFFFFFC
1FF00001FFFFFFF8
1FF00007FFFFFFF0
1FF0000FFFFFFFE0
1FF0001FFFFFFF80
1FF0001FFFFFF000
1FF0001FFFFC0000
1FF0001FFFF80000
1FF0001FFFF80000
1FF0001FFFF80000
1FF8001FFFF80000
1FF8001FFFF80000
1FF8001FFFF80000
1FF8001FFFF00000
1FF8001FFFF00000
3FF8001FFFF00000
3FF8001FFFF00000
3FF8001FFFF00000
3FF8001FFFF00000
3FF8001FFFF00000
3FF8001FFFF00000
3FF8001FFFF00000
3FF8001FFFF00000
3FF8001FFFF00000
3FF8001FFFF00000
3FF8001FFFF00000
3FF8001FFFF00000
3FF8001FFFF00000
3FF8001FFFF00000
3FF8001FFFF00000
3FF8001FFFF00000
3FF8001FFFF00000
3FF8001FFFF00000
3FFC001FFFF00000
3FFC001FFFF00000
3FFC001FFFF00000
3FFC001FFFF00000
3FFC001FFFF00000
3FFC001FFFF00000
3FFC001FFFF00000
3FFC001FFFF00000
3FFC000FFFF00000
3FFC000FFFE00000
3FFC000FFFE00000
3FFC000FFFE00000
3FFC000FFFE00000
3FFC000FFFE00000
3FFC000FFFE00000
3FFC000FFFE00000
3FFC000FFFE00000
3FFC000FFFE00000
3FFC000FFFE00000
3FFC000FFFE00000
3FFC000FFFE00000
3FFC000FFFE00000
3FFC000FFFE00000
3FFC000FFFE00000
3FFC000FFFE00000
3FFC000FFFE00000
3FFE000FFFE00000
3FFE000FFFE00000
7FFE000FFFE00000
7FFE000FFFE00000
7FFE000FFFE00000
7FFE000FFFE00000
7FFE000FFFE00000
7FFE000FFFE00000
7FFE000FFFE00000
7FFE000FFFE00000
7FFE000FFFE00000
7FFE000FFFE00000
7FFE000FFFC00000
7FFE000FFFC00000
7FFE000FFFC00000
7FFE000FFFC00000
7FFE000FFFC00000
7FFE000FFFC00000
7FFE000FFFC00000
7FFE000FFFC00000
7FFE000FFFC00000
7FFE000FFFC00000
7FFE000FFFC00000
7FFE000FFFC00000
7FFE000FFFC00000
7FFE000FFFC00000
7FFE000FFFC00000
7FFF000FFFC00000
7FFF000FFFC00000
7FFF000FFFC00000
7FFF0007FFC00000
7FFF0007FFC00000
7FFF0007FFC00000
7FFF0007FFC00000
7FFF0007FFC00000
7FFF0007FFC00000
7FFF0007FF800000
7FFF0007FF800000
7FFF0007FF800000
7FFF0007FF800000
7FFF0007FF800000
7FFF0007FF800000
7FFF0007FF800000
7FFF0007FF800000
7FFF0007FF800000
7FFF0007FF800000
7FFF0007FF800000
7FFF0007FF800000
7FFF0007FF800000
7FFF0007FF800000
7FFF0007FF800000
FFFF0007FF000000
FFFF0007FF000000
FFFF0007FF000000
FFFF8007FF000000
FFFF8007FF000000
FFFF8007FF000000
FFFF8007FF000000
FFFF8007FF000000
FFFF8007FF000000
FFFF8007FF000000
FFFF8007FF000000
FFFF8007FE000000
FFFF8007FE000000
FFFF8007FE000000
FFFF8007FE000000
FFFF8003FE000000
FFFF8003FE000000
FFFF8003F8000000
FFFF8003F0000000
FFFF8003E0000000
FFFF800380000000
FFFF800300000000
FFFF800200000000
FFFF800000000000
FFFF800000000000
FFFF800000000000
FFFF800000000000
FFFF800000000000
FFFF800000000000
FFFF800000000000
FFFF800000000000
FFFF800000000000
FFFF800000000000
FFFFC00000000000
FFFFFF0000000000
FFFFFFFC00000000
7FFFFFFF80000000
3FFFFFFFC0000000
0FFFFFFFE0000000
03FFFFFFF0000000
01FFFFFFF0000000
007FFFFF80000000
003FFFFE00000000
000FFFF000000000
0003FF8000000000
0001FE0000000000
0000700000000000
ENDCHAR
STARTCHAR colon
ENCODING 58
SWIDTH 510 0
DWIDTH 84 0
BBX 28 86 28 46
BITMAP
00000020
00000060
000000E0
000000E0
000001E0
000001E0
000003E0
000003E0
000007E0
00000FE0
00000FE0
00001FF0
00001FF0
00003FF0
00007FF0
00007FF0
0000FFF0
0000FFF0
0001FFF0
0001FFF0
0003FFF0
0007FFF0
0007FFF0
000FFFF0
000FFFF0
001FFFE0
001FFFC0
003FFF80
007FFE00
007FFC00
00FFF000
00FFE000
01FFC000
03FF0000
03FE0000
07F80000
07F00000
0FC00000
0F800000
1E000000
1C000000
30000000
60000000
00000080
00000180
00000180
00000380
00000380
00000780
00000FC0
00000FC0
00001FC0
00001FC0
00003FC0
00007FC0
00007FC0
0000FFC0
0000FFC0
0001FFC0
0001FFC0
0003FFC0
0007FFC0
0007FFE0
000FFFE0
000FFFE0
001FFFE0
001FFFE0
003FFFC0
007FFF80
007FFF00
00FFFE00
00FFFC00
01FFF000
03FFE000
03FF8000
07FF0000
07FC0000
0FF80000
0FE00000
1FC00000
1F800000
3E000000
7C000000
70000000
E0000000
80000000
ENDCHAR
STARTCHAR semicolon
ENCODING 59
SWIDTH 510 0
DWIDTH 84 0
BBX 30 129 27 3
BITMAP
00000010
00000018
00000038
00000038
00000078
00000078
000000F8
000001F8
000001F8
000003F8
000003F8
000007F8
00000FF8
00000FFC
00001FFC
00001FFC
00003FFC
00003FFC
00007FFC
0000FFFC
0000FFFC
0001FFFC
0001FFFC
0003FFFC
0007FFFC
0007FFF8
000FFFF0
000FFFE0
001FFF80
001FFF00
003FFC00
007FF800
007FE000
00FFC000
00FF8000
01FE0000
01FC0000
03F00000
07E00000
07800000
0F000000
0C000000
18000000
00000020
00000060
00000060
000000E0
000001E0
000001E0
000003E0
000003E0
000007F0
00000FF0
00000FF0
00001FF0
00001FF0
00003FF0
00003FF0
00007FF0
0000FFF0
0000FFF0
0001FFF0
0001FFF0
0003FFF0
0003FFF0
0007FFF8
000FFFF8
000FFFF0
001FFFE0
001FFFC0
003FFF80
007FFE00
007FFC00
00FFF800
00FFE000
01FFC000
01FF0000
03FE0000
07F80000
07F00000
0FC00000
0F800000
1E000000
1C000000
30000000
20000000
00000080
00000180
00000180
00000380
000003C0
000007C0
000007C0
00000FC0
00001FC0
00001FC0
00003FC0
00003FC0
00007FC0
0000FFC0
0000FFC0
0001FFC0
0001FFC0
0003FFE0
0003FFE0
0007FFE0
000FFFE0
000FFFE0
001FFFE0
001FFFE0
003FFFE0
007FFFC0
007FFF00
00FFFE00
00FFFC00
01FFF000
01FFE000
03FF8000
07FF0000
07FC0000
0FF80000
0FE00000
1FC00000
1F800000
3E000000
3C000000
70000000
E0000000
80000000
ENDCHAR
STARTCHAR question
ENCODING 63
SWIDTH 510 0
DWIDTH 84 0
BBX 62 164 11 0
BITMAP
000000003FE00000
000001FFFFF00000
0003FFFFFFF80000
07FFFFFFFFFE0000
FFFFFFFFFFFF0000
FFFFFFFFFFFF8000
FFFFFFFFFFFFC000
FFFFFFFFFFFFF000
FFFFFFFFFFFFF800
FFFFFFFFFFFFFC00
7FFFFFFFFFFFFE00
7FFFFFFFFFFFFF80
7FF00FFFFFFFFFC0
7FE0001FFFFFFFE0
7FE000003FFFFFF0
7FE00000007FFFF8
7FC00000001FFFFC
7FC00000001FFFFC
7FC00000000FFFFC
3FC00000000FFFFC
3F800000000FFFFC
3F000000000FFFFC
3E000000000FFFFC
38000000000FFFFC
20000000000FFFF8
00000000000FFFF8
00000000000FFFF8
00000000000FFFF8
00000000000FFFF8
00000000000FFFF8
000000000007FFF8
000000000007FFF8
000000000007FFF8
000000000007FFF8
000000000007FFF8
000000000007FFF8
000000000007FFF8
000000000007FFF8
000000000007FFF0
000000000007FFF0
000000000007FFF0
000000000007FFF0
000000000003FFF0
000000000003FFF0
000000000003FFF0
000000000003FFF0
000000000007FFE0
000000000007FFE0
000000000007FFE0
00000000000FFFC0
00000000000FFFC0
00000000001FFF80
00000000001FFF80
00000000001FFF80
00000000003FFF00
00000000003FFF00
00000000007FFE00
00000000007FFE00
0000000000FFFC00
0000000000FFFC00
0000000000FFFC00
0000000001FFF800
0000000001FFF800
0000000003FFF000
0000000003FFF000
0000000003FFF000
0000000007FFE000
0000000007FFE000
000000000FFFC000
000000000FFFC000
000000001FFF8000
000000001FFF8000
000000001FFF8000
000000003FFF0000
000000003FFF0000
000000007FFE0000
000000007FFE0000
00000000FFFE0000
00000000FFFC0000
00000000FFFC0000
00000001FFF80000
00000001FFF80000
00000003FFF00000
00000003FFF00000
00000003FFF00000
00000007FFE00000
00000007FFE00000
0000000FFFC00000
0000000FFFC00000
0000001FFFC00000
0000001FFF800000
0000001FFF800000
0000003FFF000000
0000003FFF000000
0000007FFE000000
0000007FFE000000
0000007FFE000000
000000FFFC000000
000000FFFC000000
000001FFF8000000
000001FFF8000000
000001FFF8000000
000001FFF8000000
000001FFF8000000
000001FFF8000000
000001FFF8000000
000001FFF8000000
000001FFF8000000
000001FFF8000000
000001FFF8000000
000001FFF8000000
000001FFF8000000
000001FFF8000000
000001FFF0000000
000001FFF0000000
000001FFF0000000
000001FFF0000000
000000FFF0000000
000000FFF0000000
000000FFF0000000
000000FFF0000000
000000FFF0000000
000000FFF0000000
000000FFF0000000
000000FFF0000000
000000FFF0000000
000000FFF0000000
000000FFF0000000
000000FFF0000000
000000FFF0000000
000000FFF0000000
000000FFF0000000
000000FFF0000000
000000FFF0000000
000000FFF0000000
000000FFF0000000
000000FFF0000000
000000FFF0000000
000000FFE0000000
000000FFE0000000
000000FFE0000000
000000FFE0000000
000000FFE0000000
000000FFE0000000
000000FFE0000000
000000FFE0000000
000000FFE0000000
000000FFE0000000
0000007FE0000000
0000007FE0000000
0000007FE0000000
0000007FE0000000
0000007FE0000000
0000007FE0000000
0000007FE0000000
0000007FE0000000
0000007FE0000000
0000007FE0000000
0000007FC0000000
0000007F80000000
0000007E00000000
0000007C00000000
0000007800000000
0000006000000000
ENDCHAR
STARTCHAR at
ENCODING 64
SWIDTH 510 0
DWIDTH 84 0
BBX 66 164 9 1
BITMAP
000000000080000000
000000000180000000
000004000380000000
000004000780000000
00000C000F80000000
00000C001F80000000
00001E003F80000000
00001E007F80000000
00003E00FF80000000
00003E00FF80000000
00007E00FF80000000
00007E00FF80000000
0000FE00FF80000000
0000FE00FF80000000
0001FE00FF80000000
0001FE00FF80000000
0001FE00FF80000000
0001FE00FF80000000
0003FE01FF80000000
0003FE01FF80000000
0003FE01FF80000000
0003FE01FF80000000
0003FE01FF80000000
0007FE01FF80000000
0007FE01FF80000000
0007FE01FF80000000
0007FE01FF80000000
0007FE01FF80000000
0007FE01FF80000000
000FFE01FF80000000
000FFE01FF80000000
000FFE01FF80000000
000FFE01FF80000000
000FFE01FF80000000
001FFE01FFC0000000
001FFE01FFC0000000
001FFE01FFC0000000
001FFE01FFC0000000
001FFE01FFC0000000
003FFE01FFC0000000
003FFE01FFC0000000
003FFE01FFC0000000
003FFE01FFC0000000
003FFE01FFC0000000
007FFE01FFC0000000
007FFE01FFC0000000
007FFE01FFC0000000
007FFE01FFC0000000
007FFE01FFC0000000
00FFFE03FFC0000000
00FFFE03FFC0000000
00FFFE03FFC0000000
00FFFE03FFC0000000
00FFFE03FFC0000000
01FFFE03FFC0000000
01FFFE03FFC0000000
01FFFE03FFC0000000
01FFFE03FFC0000000
01FFFE03FFC0000000
01FFFE03FFC0000000
03FFFE03FFC0000000
03FFFE03FFC0000000
03FFFE03FFC0000000
03FFFE03FFC0000000
03FFFE03FFC0000000
07FFFE03FFC0000000
07FFFE03FFC0000000
07FFFE03FFC0000000
07FFFE03FFC0000000
07FFFE03FFC0000000
0FFFFE03FFC0000000
0FFFFE03FFC0000000
0FFFFE03FFC0000000
0FFFFE03FFC0000000
0FFFFE03FFC0000000
0FFFFE03FFC0000000
1FFFFE03FFC0000000
1FFFFE03FFC0000000
1FFFFE03FFC0000000
1FFFFE07FFC0000000
1FFFFE07FFC0000000
3FFFFE07FFC0000000
3FFFFE0FFFC0000000
3FFFFE0FFFC0000000
3FFFFE0FFF80000000
3FFFFE1FFF80000000
7FFFFE1FFF80000000
7FC7FE1FFF00000000
7F07FE3FFF00000000
7E07FE3FFF00000000
7803FE3FFF00000000
E003FE7FFE00000000
8003FE7FFE00000000
0003FE7FFE00000000
0003FEFFFC00000000
0003FEFFFC00000000
0003FEFFFC00000000
0003FFFFFC00000000
0003FFFFF800000000
0003FFFFF800000000
0003FFFFF800000000
0003FFFFF000000000
0003FFFFF000000000
0003FFFFF000000000
0001FFFFE000000000
0001FFFFE000000000
0001FFFFE000000000
0001FFFFE000000000
0001FFFFC000000000
0001FFFFC000000000
0001FFFFC000000000
0001FFFF8000000000
0001FFFF8000000000
0001FFFF8000000000
0001FFFF8000000000
0001FFFF0000000000
0001FFFF0000000000
0001FFFF0000000000
0000FFFE0000000000
0000FFFE0000000000
0001FFFE0000000000
0001FFFC0000000000
0001FFFC0000000000
0003FFFC0000000000
0003FFFC0000000000
0003FFF80000000000
0007FFF80000000000
0007FFF80000000000
0007FFF00000000000
000FFFF00000000000
000FFFF00000000000
000FFFE00000000000
001FFFE00000000000
001FFFE00000000000
001FFFE00000000000
003FFFC00000000000
003FFFC00000000000
003FFFC00000000000
007FFF800000000000
007FFF800000000100
007FFF800000000700
00FFFF000000001F00
00FFFF000000003F00
00FFFF000000007F00
01FFFF00000000FF00
01FFFE00000000FF80
00FFFF00000000FF80
007FFFC0000000FF80
003FFFFC000001FF80
001FFFFFF00001FF80
000FFFFFFFE001FF80
0007FFFFFFFFC3FF80
0003FFFFFFFFFFFF80
0001FFFFFFFFFFFF80
0000FFFFFFFFFFFF80
00007FFFFFFFFFFFC0
00003FFFFFFFFFFFC0
00001FFFFFFFFFFFC0
00000FFFFFFFFFFFC0
000007FFFFFFFFFF80
000003FFFFFFFF8000
000001FFFFFF000000
000000FFFE00000000
0000007C0000000000
ENDCHAR
STARTCHAR A
ENCODING 65
SWIDTH 510 0
DWIDTH 84 0
BBX 50 164 17 -1
BITMAP
00000400000000
00000C00000000
00001C00000000
00001C00180000
00003C001C0000
00003C001E0000
00007C001F8000
00007C001FC000
0000FC001FE000
0000FC001FF000
0001FC001FF000
0001FC001FF000
0001FC001FF000
0003FC001FF000
0003FC001FF000
0003FC001FF000
0003FC001FF000
0003FC001FF000
0007FC001FF800
0007FC001FF800
0007FC001FF800
0007FC001FF800
0007FC001FF800
000FFC001FF800
000FFC003FF800
000FFC003FF800
000FFC003FF800
000FFC003FF800
000FFC003FF800
001FFC003FF800
001FFC003FF800
001FFC003FF800
001FFC003FF800
001FFC003FF800
003FFC003FF800
003FFC003FF800
003FFC003FF800
003FFC003FF800
003FFC003FF800
007FFC003FF800
007FFC003FF800
007FFC003FF800
007FFC003FFC00
007FFC003FFC00
00FFFC003FFC00
00FFFC003FFC00
00FFFC003FFC00
00FFFC003FFC00
00FFFC003FFC00
00FFFC003FFC00
01FFFC003FFC00
01FFFC003FFC00
01FFFC003FFC00
01FFFC003FFC00
01FFFC003FFC00
03FFFC003FFC00
03FFFC003FFC00
03FFFC003FFC00
03FFFC003FFC00
03FFFC003FFC00
07FFFC003FFC00
07FFFC003FFC00
07FFFC003FFC00
07FFFC003FFC00
07FFFC003FFC00
0FFFFC003FFE00
0FFFFC003FFE00
0FFFFC003FFE00
0FFFFC003FFE00
0FFFFC003FFE00
1FFFFC003FFE00
1FFFFC003FFE00
1FFFFC003FFE00
1FFFFC003FFE00
1FFFFC003FFE00
1FFFFC003FFE00
3FFFFC003FFE00
3FFFFC003FFE00
3FFFFC003FFE00
3FFFFC003FFE00
3FFFFC003FFE00
7FFFFC003FFE00
7FFFFC003FFE00
7FFFFC003FFE00
7FFFFC003FFE00
7FC7FC003FFE00
FF07FC003FFE00
FC07FC003FFE00
F007FC003FFF00
E007FC003FFF00
8007FC003FFF00
0007FC003FFF00
0007FC007FFF00
0007FC007FFF00
0007FC007FFF00
0003FC007FFF00
0003FC007FFF00
0003FC007FFF00
0003FC007FFF00
0003FC007FFF00
0003FC007FFF00
0003FC007FFF00
0003FC007FFF00
0003FC007FFF00
0003FC007FFF00
0003FC007FFF00
0003FC007FFF00
0003FC007FFF00
0003FC007FFF00
0003FC007FFF00
0001FC007FFF00
0001FC007FFF00
0001FC007FFF80
0001FC007FFF80
0001FC007FFF80
0001FC007FFF80
0001FC007FFF80
0001FC007FFF80
00007C007FFF80
00000C007FFF80
000000007FFF80
000000007FFF80
000000007FFF80
000000007FFF80
000000007FFF80
000000007FFF80
000000007FFF80
000000007FFF80
000000007FFF80
000000007FFF80
000000007FFF80
000000007FFF80
000000007FFF80
000000007FFF80
000000007FFF80
000000007FFF80
000000007FFF80
000000007FFF80
000000007FFFC0
000000007FFFC0
000000007FFFC0
000000007FFFC0
000000007FFFC0
000000007FFFC0
000000007FFFC0
000000007FFFC0
000000007FFFC0
000000007FFFC0
000000007FFFC0
000000007FFFC0
000000007FFFC0
000000007FFFC0
000000007FFFC0
000000007FFFC0
000000001FFFC0
0000000007FFC0
0000000003FFC0
0000000000FFC0
00000000007FC0
00000000001FC0
000000000007C0
000000000003C0
000000000000C0
00000000000040
ENDCHAR
STARTCHAR B
ENCODING 66
SWIDTH 510 0
DWIDTH 84 0
BBX 52 165 16 0
BITMAP
00000000400000
00000001F80000
00000003FF0000
0000000FFFC000
0000001FFFF800
0000007FFFFF00
000001FFFFFFC0
000003FFFFFFE0
00000FFFFFFFE0
00003FFFFFFFC0
00007FFFFFFF80
0000FFFFFFFF00
0000FFFFFFF000
0000FFFFF80000
0000FFFFC00000
0000FFFF800000
0000FFFF800000
0000FFFF800000
0000FFFF800000
0000FFFF800000
0000FFFF800000
0000FFFF800000
0000FFFF800000
0000FFFF800000
0000FFFF800000
0000FFFF800000
0000FFFF800000
0000FFFF800000
0000FFFF800000
0000FFFF800000
0000FFFF800000
0000FFFF800000
0000FFFF000000
0000FFFF000000
0000FFFF000000
0000FFFF000000
0000FFFF000000
0000FFFF000000
0000FFFF000000
0000FFFF000000
0000FFFF000000
0000FFFF000000
0000FFFF000000
0000FFFF000000
0000FFFF000000
0000FFFF000000
0000FFFF000000
0000FFFF000000
0000FFFF000000
0000FFFFC00000
0000FFFFF00000
0000FFFFFE0000
0000FFFFFF8000
0000FFFFFFF000
0000FFFFFFFC00
0000FFFFFFFF80
0000FFFFFFFFF0
0000FFFFFFFFF0
0000FFFFFFFFF0
0000FFFFFFFFE0
0000FFFFFFFFC0
0000FFFFFFFF80
0000FFFFFFFE00
0000FFFFFF8000
0000FFFE000000
0000FFFE000000
0000FFFE000000
0000FFFE000000
0000FFFE000000
0000FFFE000000
0000FFFE000000
0000FFFE000000
0000FFFE000000
0000FFFE000000
0000FFFE000000
0000FFFE000000
0000FFFE000000
0000FFFE000000
0000FFFE000000
0000FFFC000000
0000FFFC000000
0000FFFC000000
0000FFFC000000
0000FFFC000000
0000FFFC000000
0000FFFC000000
0000FFFC000000
0000FFFC000000
0000FFFC000000
0000FFFC000000
0000FFFC000000
00007FFC000000
00007FFC000000
00007FFC000000
C0007FFC000000
E0007FFC000000
70007FFC000000
7C007FFC000000
7E007FFC000000
7F007FFC000000
3F807FFC000000
3FE07FFC000000
3FF07FF8000000
3FF87FF8000000
1FFE7FF8000000
1FFF7FF8000000
1FFFFFF8000000
1FFFFFF8000000
1FFFFFF8000000
0FFFFFF8000000
0FFFFFF8000000
0FFFFFF8000000
0FFFFFF8000000
07FFFFF8000000
07FFFFF8000000
07FFFFF8000000
07FFFFF8000000
03FFFFF8000000
03FFFFF8000000
03FFFFF8000000
03FFFFF8000000
01FFFFF8000000
01FFFFF8000000
01FFFFF8000000
01FFFFF8000000
00FFFFF8000000
00FFFFF0000000
00FFFFF0000000
00FFFFF0000000
007FFFF0000000
007FFFF0000000
007FFFF0000000
007FFFF0000000
003FFFF0000000
003FFFF0000000
003FFFF0000000
003FFFF0000000
001FFFF0000000
001FFFF0000000
001FFFF0000000
001FFFF0000000
000FFFF0000000
000FFFF0000000
000FFFF0000000
000FFFF0000000
0007FFF0000000
0007FFF0000000
0007FFF0000000
0007FFF0000000
0003FFF0000000
0003FFE0000000
0003FFE0000000
0003FFE0000000
0001FFE0000000
0001FFE0000000
0001FFE0000000
0001FFE0000000
0000FFE0000000
0000FFE0000000
0000FFC0000000
00007F80000000
00007E00000000
00007C00000000
00007800000000
00002000000000
ENDCHAR
STARTCHAR C
ENCODING 67
SWIDTH 510 0
DWIDTH 84 0
BBX 52 165 16 0
BITMAP
00002000000000
00007800000000
0001FF00000000
0007FFE0000000
000FFFF8000000
003FFFFF000000
007FFFFFC00000
01FFFFFFF00000
07FFFFFFF00000
0FFFFFFFE00000
3FFFFFFFC00000
FFFFFFFF800000
FFFFFFF8000000
FFFFFE00000000
FFFFC000000000
7FFFC000000000
7FFFC000000000
7FFFC000000000
7FFFC000000000
7FFFC000000000
7FFFC000000000
7FFFC000000000
7FFFC000000000
7FFFC000000000
7FFFC000000000
7FFFC000000000
7FFFC000000000
7FFFC000000000
7FFFC000000000
7FFFC000000000
7FFFC000000000
7FFFC000000000
7FFF8000000000
7FFF8000000000
7FFF8000000000
7FFF8000000000
7FFF8000000000
7FFF8000000000
7FFF8000000000
7FFF8000000000
7FFF8000000000
7FFF8000000000
7FFF8000000000
7FFF8000000000
7FFF8000000000
7FFF8000000000
7FFF8000000000
7FFF8000000000
7FFF8000000000
7FFF8000000000
7FFF8000000000
7FFF8000000000
7FFF8000000000
7FFF8000000000
7FFF8000000000
7FFF0000000000
7FFF0000000000
7FFF0000000000
7FFF0000000000
7FFF0000000000
7FFF0000000000
7FFF0000000000
7FFF0000000000
7FFF0000000000
7FFF0000000000
7FFF0000000000
7FFF0000000000
7FFF0000000000
7FFF0000000000
7FFF0000000000
7FFF0000000000
7FFF0000000000
7FFF0000000000
7FFF0000000000
7FFF0000000000
7FFF0000000000
7FFF0000000000
7FFF0000000000
7FFF0000000000
7FFE0000000000
7FFE0000000000
7FFE0000000000
7FFE0000000000
7FFE0000000000
7FFE0000000000
7FFE0000000000
7FFE0000000000
7FFE0000000000
3FFE0000000000
3FFE0000000000
3FFE0000000000
3FFE0000000000
3FFE0000000000
3FFE0000000000
3FFE0000000000
3FFE0000000000
3FFE0000000000
3FFE0000000000
3FFE0000000000
3FFE0000000000
3FFE0000000000
3FFE0000000000
3FFE0000000000
3FFE0000000000
3FFC0000000000
3FFC0000000000
3FFC0000000000
3FFC0000000000
3FFC0000000000
3FFC0000000000
3FFC0000000000
3FFC0000000000
3FFC0000000000
3FFC0000000000
3FFC0000000000
3FFC0000000000
3FFC0000000000
3FFC0000000000
3FFC0000000000
3FFC0000000000
3FFC0000000000
3FFC0000000000
3FFC0000000000
3FFC0000000000
3FFC0000000000
3FFC0000000000
3FFC0000000000
3FFC0000000000
3FFC0000000000
3FFC0000000000
3FFC0000000000
3FFC0000000000
3FF80000000000
3FF80000000000
3FF80000000000
3FF80000000000
3FF80000000000
3FF80000000000
3FF80000000000
3FF80000000000
3FF80000000040
3FF800000001C0
3FF800000003C0
3FF80000000FE0
3FF80000001FE0
3FF80000001FE0
3FF80000001FE0
3FF80000003FE0
1FF80000003FE0
1FFF8000003FE0
1FFFFF00007FE0
1FFFFFFC007FE0
1FFFFFFFF87FF0
1FFFFFFFFFFFF0
0FFFFFFFFFFFF0
07FFFFFFFFFFF0
07FFFFFFFFFFF0
03FFFFFFFFFFF0
01FFFFFFFFFFF0
00FFFFFFFFFFF0
00FFFFFFFFFFC0
007FFFFFFFC000
003FFFFF800000
001FFE00000000
000C0000000000
ENDCHAR
STARTCHAR D
ENCODING 68
SWIDTH 510 0
DWIDTH 84 0
BBX 61 165 11 -2
BITMAP
0000000000080000
00000000003E0000
00000000007FC000
0000000001FFF800
0000000007FFFE00
020000000FFFFFC0
030000003FFFFFF8
03C000007FFFFFF8
03E00001FFFFFFF8
03F00007FFFFFFF0
03F8000FFFFFFFE0
07FE001FFFFFFF80
07FE001FFFFFFC00
07FE001FFFFE0000
07FE001FFFF00000
07FE001FFFF00000
07FE001FFFF00000
07FE001FFFF00000
07FE001FFFF00000
07FE001FFFF00000
07FE001FFFF00000
07FE001FFFF00000
07FE001FFFF00000
07FE001FFFE00000
07FE001FFFE00000
07FE001FFFE00000
07FE001FFFE00000
07FE001FFFE00000
07FE001FFFE00000
07FE001FFFE00000
07FE001FFFE00000
07FE001FFFE00000
07FE001FFFE00000
07FE001FFFE00000
07FE001FFFE00000
07FE001FFFE00000
0FFE001FFFE00000
0FFE001FFFE00000
0FFE001FFFE00000
0FFE001FFFE00000
0FFE001FFFE00000
0FFE001FFFE00000
0FFE001FFFE00000
0FFE001FFFE00000
0FFE001FFFE00000
0FFE001FFFC00000
0FFE001FFFC00000
0FFF001FFFC00000
0FFF001FFFC00000
0FFF001FFFC00000
0FFF001FFFC00000
0FFF001FFFC00000
0FFF001FFFC00000
0FFF001FFFC00000
0FFF001FFFC00000
0FFF001FFFC00000
0FFF001FFFC00000
0FFF001FFFC00000
0FFF001FFFC00000
0FFF001FFFC00000
0FFF001FFFC00000
1FFF001FFFC00000
1FFF001FFFC00000
1FFF001FFFC00000
1FFF001FFFC00000
1FFF001FFFC00000
1FFF001FFFC00000
1FFF001FFFC00000
1FFF001FFF800000
1FFF001FFF800000
1FFF001FFF800000
1FFF001FFF800000
1FFF001FFF800000
1FFF001FFF800000
1FFF001FFF800000
1FFF001FFF800000
1FFF001FFF800000
1FFF001FFF800000
1FFF001FFF800000
1FFF001FFF800000
1FFF001FFF800000
1FFF001FFF800000
1FFF001FFF800000
1FFF001FFF800000
1FFF001FFF800000
1FFF001FFF800000
1FFF001FFF800000
3FFF001FFF800000
3FFF001FFF800000
3FFF001FFF800000
3FFF001FFF800000
3FFF001FFF800000
3FFF001FFF000000
3FFF001FFF000000
3FFF801FFF000000
3FFF801FFF000000
3FFF800FFF000000
3FFF800FFF000000
3FFF800FFF000000
3FFF800FFF000000
3FFF800FFF000000
3FFF800FFF000000
3FFF800FFF000000
3FFF800FFF000000
3FFF800FFF000000
3FFF800FFF000000
3FFF800FFF000000
3FFF800FFF000000
3FFF800FFF000000
3FFF800FFF000000
3FFF800FFF000000
3FFF800FFF000000
3FFF800FFF000000
3FFF800FFF000000
3FFF800FFF000000
7FFF800FFE000000
7FFF800FFE000000
7FFF800FFE000000
7FFF800FFE000000
7FFF800FFE000000
7FFF800FFE000000
7FFF800FFE000000
7FFF800FFE000000
7FFF800FFE000000
7FFF800FFE000000
7FFF800FFE000000
7FFF800FFE000000
7FFF800FFE000000
7FFF800FFE000000
7FFF800FFE000000
7FFF800FFE000000
7FFF800FFE000000
7FFF800FFE000000
7FFF800FFE000000
7FFFC00FFE000000
7FFFC00FFE000000
7FFFC00FFE000000
7FFFC00FFE000000
7FFFC00FFE000180
7FFFC00FFC000780
7FFFC00FFC000F80
7FFFC00FFC003F80
7FFFC00FFC007F80
7FFFC00FFC00FF80
7FFFC00FFC00FF80
7FFFC00FFC00FF80
FFFFC00FFC01FF80
FFFFF80FFC01FF80
FFFFFFFFFC01FF80
FFFFFFFFFC01FF80
FFFFFFFFFF03FF80
FFFFFFFFFFFFFF80
FFFFFFFFFFFFFF80
FFFFFFFFFFFFFF80
7FFFFFFFFFFFFF80
3FFFFFFFFFFFFF80
1FFFFFFFFFFFFF80
0FFFFFFFFFFFFF80
03FFFFFFFFFFFF80
01FFFFFFFFFFE000
00FFFFFFFFF00000
007FFFFFF8000000
003FFFFC00000000
001FFE0000000000
000F800000000000
ENDCHAR
STARTCHAR E
ENCODING 69
SWIDTH 510 0
DWIDTH 84 0
BBX 56 165 14 -1
BITMAP
00000000070000
000000001FE000
000000003FFC00
00000000FFFF80
00000003FFFFE0
00000007FFFFFC
0000001FFFFFFF
0000003FFFFFFF
000000FFFFFFFE
000001FFFFFFFC
000003FFFFFFF8
00000FFFFFFFE0
00001FFFFFF800
00007FFFFC0000
0001FFFFFC0000
000FFFFFFC0000
007FFFFFFC0000
01FFFFFFFC0000
0FFFFFFFFC0000
3FFFFFFFFC0000
FFFFFFFFFC0000
FFFFFFFFFC0000
7FFFFFFFFC0000
3FFFFFFFFC0000
1FFFFFFFFC0000
07FFFFFFF80000
01FFFFFFF80000
00000FFFF80000
00000FFFF80000
00000FFFF80000
00000FFFF80000
00000FFFF80000
00000FFFF80000
00000FFFF80000
00000FFFF80000
00000FFFF80000
00000FFFF80000
00000FFFF80000
00000FFFF80000
00000FFFF80000
00000FFFF80000
00000FFFF80000
00000FFFF80000
00000FFFF80000
00000FFFF80000
00000FFFF80000
00000FFFF80000
00000FFFF80000
00000FFFF00000
000007FFF00000
000007FFF00000
000007FFF00000
000007FFF00000
000007FFF00000
000007FFF00000
000007FFF00000
000007FFF00000
000007FFF00000
000007FFF00000
000007FFF00000
000007FFF00000
000007FFF00000
000007FFF00000
000007FFF00000
000007FFF00000
000007FFF00000
000007FFF00000
000007FFF00000
000007FFF00000
000007FFF00000
000007FFF00000
000007FFF00000
000007FFE00000
000007FFE00000
000007FFE00000
000007FFE00000
000007FFE00000
000007FFE00000
000007FFE00000
000007FFE00000
000007FFE00000
000007FFE00000
000007FFE00000
000007FFE00000
000007FFE00000
000007FFE00000
000007FFE00000
000007FFE00000
000007FFE00000
000007FFE00000
000007FFE00000
000007FFE00000
000007FFE00000
000007FFE00000
000007FFE00000
000007FFE00000
000007FFC00000
000007FFC00000
000007FFC00000
000007FFC00000
000007FFC00000
000007FFC00000
000007FFC00000
000007FFC00000
000007FFC00000
000007FFC00000
000007FFC00000
000007FFC00000
000007FFC00000
000007FFC00000
000007FFC00000
000007FFC00000
000003FFC00000
000003FFC00000
000003FFC00000
000003FFC00000
000003FFC00000
000003FFC00000
000003FFC00000
000003FFC00000
000003FF800000
000003FF800000
000003FF800000
000003FF800000
000003FF800000
000003FF800000
000003FF800000
000003FF800000
000003FF800000
000003FF800000
000003FF800000
000003FF800000
000003FF800000
000003FF800000
000003FF800000
000003FF800000
000003FF800000
000003FF800000
000003FF800000
000003FF800000
000003FF800000
000003FF800000
000003FF800000
000003FF800000
000003FF000000
000003FF000000
000003FF000000
000003FF000000
000003FF000000
000003FF000000
000003FF000000
000003FF000000
000003FF000000
000003FF000000
000003FF000000
000003FF000000
000003FF000000
000003FF000000
000003FF000000
000003FE000000
000003F8000000
000003F0000000
000003E0000000
00000380000000
00000300000000
ENDCHAR
STARTCHAR F
ENCODING 70
SWIDTH 510 0
DWIDTH 84 0
BBX 73 165 6 1
BITMAP
00000010000000000000
0000003FE00000000000
000000FFFF8000000000
000001FFFFFF00000000
000003FFFFFFFC000000
000007FFFFFFFFF00000
00000FFFFFFFFFFFE000
00001FFFFFFFFFFFFF80
00003FFFFFFFFFFFFF80
0000FFFFFFFFFFFFFF80
0001FFFFFFFFFFFFFF80
0003FFFFFFFFFFFFFF80
0007FFFFFFFFFFFFFF80
0007FFFFFFFFFFFFFF80
0007FFFFFFFFFFFFFF80
0007FFFFFFFFFF07FF00
0007FFFFFFFF8007FF00
0007FFFFFFE00007FF00
0007FFFFF0000003FF00
0007FFFF00000003FF00
0007FFFF00000003FF00
0007FFFF00000003FF00
0003FFFF00000001FF00
0003FFFE00000001FF00
0003FFFE00000000FF00
0003FFFE000000007F00
0003FFFE000000001F00
0003FFFE000000000700
0003FFFE000000000000
0003FFFE000000000000
0003FFFE000000000000
0003FFFE000000000000
0003FFFE000000000000
0003FFFE000000000000
0003FFFE000000000000
0003FFFE000000000000
0003FFFE000000000000
0003FFFE000000000000
0003FFFE000000000000
C003FFFE000000000000
E003FFFE000000000000
F003FFFE000000000000
FC03FFFE000000000000
FE03FFFE000000000000
7F03FFFE000000000000
7F83FFFE000000000000
7FE3FFFE000000000000
7FF1FFFE000000000000
3FF9FFFE000000000000
3FFDFFFE000000000000
3FFFFFFE000000000000
3FFFFFFE000000000000
3FFFFFFE000000000000
1FFFFFFC000000000000
1FFFFFFC000000000000
1FFFFFFC000000000000
1FFFFFFC000000000000
0FFFFFFC000000000000
0FFFFFFC000000000000
0FFFFFFC000000000000
0FFFFFFC000000000000
07FFFFFC000000000000
07FFFFFC000000000000
07FFFFFC000000000000
07FFFFFC000000000000
03FFFFFC000000000000
03FFFFFC000000000000
03FFFFFC000000000000
03FFFFFC000000000000
01FFFFFC000000000000
01FFFFFC000000000000
01FFFFFC000000000000
01FFFFFC000000000000
00FFFFFC000000000000
00FFFFFC000000000000
00FFFFFC000000000000
00FFFFFC000000000000
007FFFFC000000000000
007FFFFC000000000000
007FFFFC000000000000
007FFFFC000000000000
003FFFFC000000000000
003FFFFC000000000000
003FFFFC000000000000
003FFFFC000000000000
001FFFFC000000000000
001FFFFC000000000000
001FFFF8000000000000
001FFFF8000000000000
000FFFF8000000000000
000FFFF8000000000000
000FFFF8000000000000
000FFFF8000000000000
0007FFF8000000000000
0007FFF8000000000000
0007FFF8000000000000
0007FFF8000000000000
0003FFF8000000000000
0003FFF8000000000000
0003FFF8000000000000
0003FFF8000000000000
0001FFF8000000000000
0001FFF8000000000000
0001FFF8000000000000
0001FFF8000000000000
0000FFF8000000000000
0000FFF8000000000000
0000FFF8000000000000
0000FFF8000000000000
0000FFF8000000000000
0000FFF8000000000000
0000FFF8000000000000
0000FFF8000000000000
0000FFF8000000000000
0000FFF8000000000000
0000FFF8000000000000
0000FFF8000000000000
0000FFF8000000000000
00007FF8000000000000
00007FF8000000000000
00007FF0000000000000
00007FF0000000000000
00007FF0000000000000
00007FF0000000000000
00007FF0000000000000
00007FF0000000000000
00007FF0000000000000
00007FF0000000000000
00007FF0000000000000
00007FF0000000000000
00007FF0000000000000
00007FF0000000000000
00007FF0000000000000
00007FF0000000000000
00007FF0000000000000
00007FF0000000000000
00007FF0000000000000
00007FF0000000000000
00007FF0000000000000
00007FF0000000000000
00007FF0000000000000
00007FF0000000000000
00007FF0000000000000
00007FF0000000000000
00007FF0000000000000
00007FF0000000000000
00007FF0000000000000
00007FF0000000000000
00007FF0000000000000
00007FF0000000000000
00007FF0000000000000
00007FF0000000000000
00007FF0000000000000
00003FF0000000000000
00003FF0000000000000
00003FF0000000000000
00003FE0000000000000
00003FE0000000000000
00003FE0000000000000
00003FC0000000000000
00003F80000000000000
00003E00000000000000
00003C00000000000000
00003800000000000000
00002000000000000000
ENDCHAR
STARTCHAR G
ENCODING 71
SWIDTH 510 0
DWIDTH 84 0
BBX 62 164 11 1
BITMAP
0000000400000000
0000000600000000
0000000700000000
0000000780000000
00000007C0000000
00000007E0000000
00000007F0000000
00000007F8000000
00000007FC000000
00000007FC000000
00000007FC000000
00000007FC000000
00000007FC000000
00000007FC000000
00000007FC000000
00000007FC000000
00000007FC000000
00000007FC000000
00000007FC000000
00000007FC000000
00000007FC000000
00000007FC000000
00000007FC000000
00000007FE000000
00000007FE000000
00000007FE000000
00000007FE000000
00000007FE000000
00000007FE000000
00000007FE000000
00000007FE000000
00000007FE000000
00000007FE000000
00000007FE000000
00000007FE000000
00000007FE000000
00000007FE000000
00000007FE000000
00000007FE000000
00000007FE000000
00000007FE000000
00000007FE000000
00000007FE000000
00000007FE000000
00000007FE000000
00000007FE000000
00000007FE000000
00000007FE000000
00000007FE000000
00000007FE000000
00000007FE000000
00000007FE000000
00000007FE000000
00000007FE000000
00000007FE000000
00000007FE000000
00000007FE000000
00000007FF000000
00000007FF000000
00000007FF000000
00000007FF000000
00000007FF000000
00000007FF000000
00000007FF000000
00000007FF000000
00000007FF000000
00000007FF000000
00000007FF000000
00000007FF000000
00000007FF000000
00000007FF000000
00000007FF000000
00000007FF000000
00000007FF000000
00000007FF000000
00000007FF000000
00000007FF000000
00000007FF000000
00000007FF000000
00000007FF000000
00000007FF800000
00000007FF800000
00000007FF800000
00000007FFC00000
80000007FFC00000
E0000007FFC00000
F0000007FFE00000
78000007FFE00000
7E000007FFE00000
7F000003FFF00000
3F800003FFF00000
3FE00003FFF00000
3FF00001FFF80000
3FF80001FFF80000
1FFE0001FFF80000
1FFF0001FFFC0000
1FFF8000FFFC0000
0FFFC000FFFC0000
0FFFE000FFFE0000
0FFFF0007FFE0000
07FFF0007FFE0000
07FFE0007FFF0000
07FFE0003FFF0000
03FFE0003FFF0000
03FFE0003FFF8000
03FFE0003FFF8000
01FFE0001FFF8000
01FFE0001FFFC000
01FFE0001FFFC000
00FFC0000FFFC000
00FFC0000FFFE000
00FFC0000FFFE000
007FC0000FFFE000
007FC00007FFF000
007FC00007FFF000
007FC00007FFF000
003F800003FFF800
003F800003FFF800
003F800003FFF800
001F800001FFFC00
001F800001FFFC00
001F800001FFFC00
000F800001FFFE00
000F000000FFFE00
000F000000FFFE00
0007000000FFFF00
00070000007FFF00
00070000007FFF00
00030000007FFF80
00020000007FFF80
00020000003FFF80
00000000003FFFC0
00000000003FFFC0
00000000001FFFC0
00000000001FFFE0
00000000001FFFE0
00000000001FFFE0
00000000000FFFF0
00000000000FFFF0
00000000000FFFF0
030000000007FFF8
03C000000007FFF8
03E000000007FFF8
03F000000007FFFC
07F800000003FFFC
07F800000003FFFC
07FC00000003FFFC
07FC00000003FFF8
07FC0000001FFFF0
07FE00000FFFFFE0
07FE0003FFFFFFC0
07FE01FFFFFFFF80
0FFE7FFFFFFFFF00
0FFFFFFFFFFFFE00
0FFFFFFFFFFFFE00
0FFFFFFFFFFFFC00
0FFFFFFFFFFFF800
0FFFFFFFFFFFF000
0FFFFFFFFFFFE000
0FFFFFFFFFFFC000
007FFFFFFFFF8000
00007FFFFFFF0000
0000001FFFFE0000
0000000007FC0000
ENDCHAR
STARTCHAR H
ENCODING 72
SWIDTH 510 0
DWIDTH 84 0
BBX 59 164 13 0
BITMAP
0000F80000000000
0003FF0000000000
000FFFE000000000
001FFFFC00000000
007FFFFF00000000
01FFFFFFC0000000
03FFFFFFF0000000
0FFFFFFFE0000000
1FFFFFFFC0000000
7FFFFFFF80000000
FFFFFFFF00000000
FFFFFFF000000000
FFFFF80000000000
FFFF800000000000
FFFF800000000000
FFFF800000000000
FFFF800000000000
FFFF800000000000
FFFF800000000000
FFFF800000000000
FFFF800000000000
FFFF800000000000
FFFF800000000000
FFFF800000000000
FFFF800000000000
FFFF800000000000
FFFF800000000000
FFFF800000000000
FFFF800000000000
FFFF800000000000
FFFF800000000000
FFFF800000000000
FFFF800000000000
FFFF800000000000
FFFF800000000000
FFFF000000000000
FFFF000000000000
FFFF000000000000
FFFF000000000000
FFFF000000000000
FFFF000000000000
FFFF000000000000
FFFF000000000000
FFFF000000000000
FFFF000000000000
FFFF080000000000
FFFF0C0000000000
FFFF070000000000
FFFF078000018000
FFFF07E00001C000
FFFF03F00001E000
FFFF03F80001F000
FFFF03FE0001F800
FFFF01FF0001FC00
FFFF01FF8001FC00
FFFF01FFC001FC00
FFFF00FFF001FC00
FFFF00FFF801FE00
FFFE00FFFC01FE00
FFFE007FFE01FE00
FFFE007FFF01FE00
FFFE007FFF01FE00
FFFE007FFF01FE00
FFFE003FFF01FE00
FFFE003FFF01FE00
FFFE003FFF01FE00
FFFE001FFF01FE00
FFFE001FFF01FE00
FFFE001FFF01FE00
FFFE000FFE01FE00
FFFE000FFE01FE00
FFFE000FFE01FE00
FFFE0007FE03FE00
FFFE0007FE03FE00
FFFE0007FE03FE00
FFFE0003FE03FE00
FFFE0003FE03FE00
FFFE0003FC03FE00
FFFE0001FC03FE00
FFFE0001FC03FE00
7FFE0001FC03FE00
7FFE0000FC03FF00
7FFC0000FC03FF00
7FFC0000FC03FF00
7FFC00007803FF00
7FFC00007803FF00
7FFC00007803FF00
7FFC00003803FF00
7FFC00003803FF00
7FFC00003803FF00
7FFC00001803FF00
7FFC00001003FF00
7FFC00001003FF00
7FFC00000003FF00
7FFC00000003FF00
7FFC00000003FF00
7FFC00000003FF00
7FFC00000003FF00
7FFC00000003FF00
7FFC00000003FF00
7FFC00000003FF00
7FFC00000003FF00
7FFC00000003FF00
7FFC00000003FF00
7FFC00000003FF00
7FF800000003FF80
7FF800000003FF80
7FF800000003FF80
7FF800000003FF80
7FF800000003FF80
7FF800000003FF80
7FF800000003FF80
7FF800000003FF80
7FF800000003FF80
7FF800000003FF80
7FF800000003FF80
7FF800000003FF80
7FF800000003FF80
7FF800000003FF80
7FF800000003FF80
7FF800000007FF80
7FF800000007FF80
7FF800000007FF80
7FF800000007FF80
7FF800000007FF80
7FF800000007FF80
7FF800000007FF80
7FF800000007FF80
7FF800000007FF80
7FF000000007FF80
7FF000000007FFC0
7FF000000007FFC0
7FF000000007FFC0
7FF000000007FFC0
7FF000000007FFC0
7FF000000007FFC0
7FF000000007FFC0
7FF000000007FFC0
7FF000000007FFC0
7FF000000007FFC0
7FF000000007FFC0
7FF000000007FFC0
7FF000000007FFC0
7FF000000007FFC0
7FF000000007FFC0
7FF000000007FFC0
7FF000000007FFC0
7FF000000007FFC0
3FF000000007FFC0
3FF000000007FFC0
3FF000000007FFC0
3FF000000007FFC0
3FF000000003FFC0
3FF000000001FFC0
3FE0000000007FC0
3FE0000000003FC0
3FE0000000001FE0
3FE0000000000FE0
3FC00000000007E0
3F800000000001E0
3F000000000000E0
3E00000000000060
3C00000000000000
3000000000000000
ENDCHAR
STARTCHAR I
ENCODING 73
SWIDTH 510 0
DWIDTH 84 0
BBX 58 164 13 0
BITMAP
0000000000100000
0000000000700000
0000000001F00000
0000000003F00000
000000000FF00000
000000003FF00000
000000007FF00000
00000001FFF00000
00000003FFF00000
0000000FFFF00000
0000001FFFF00000
0000001FFFF00000
0000001FFFF00000
0000001FFFF00000
0000001FFFF00000
0000001FFFF00000
0000001FFFF00000
0000001FFFF00000
0000001FFFF00000
0000001FFFF00000
0000001FFFF00000
0000001FFFF00000
0000001FFFF00000
0000001FFFF00000
0000001FFFE00000
0000001FFFE00000
0000001FFFE00000
0000001FFFE00000
0000001FFFE00000
0000001FFFE00000
0000001FFFE00000
0000001FFFE00000
0000001FFFE00000
0000001FFFE00000
0000001FFFE00000
0000001FFFE00000
0000001FFFE00000
0000001FFFE00000
0000001FFFE00000
0000001FFFE00000
0000001FFFE00000
0000001FFFE00000
0000001FFFE00000
0000001FFFE00000
0000001FFFE00000
0000001FFFE00000
0000001FFFE00000
0000001FFFE00000
0000001FFFE00000
0000001FFFC00000
0000001FFFC00000
0000001FFFC00000
0000001FFFC00000
0000001FFFC00000
0000001FFFC00000
0000001FFFC00000
0000001FFFC00000
0000001FFFC00000
0000001FFFC00000
0000001FFFC00000
0000001FFFC00000
0000001FFFC00000
0000001FFFC00000
0000001FFFC00000
0000001FFFC00000
0000001FFFC00000
0000001FFFC00000
0000001FFFC00000
0000001FFFC00000
0000001FFFC00000
0000001FFFC00000
0000001FFFC00000
0000001FFFC00000
0000001FFF800000
0000001FFF800000
0000001FFF800000
0000001FFF800000
0000001FFF800000
0000001FFF800000
0000001FFF800000
0000001FFF800000
0000001FFF800000
0000001FFF800000
0000001FFF800000
0000001FFF800000
0000001FFF800000
0000001FFF800000
0000001FFF800000
0000001FFF800000
0000001FFF800000
0000001FFF800000
0000001FFF800000
0000001FFF800000
0000001FFF800000
0000001FFF800000
0000001FFF000000
0000001FFF000000
0000001FFF000000
0000001FFF000000
0000001FFF000000
0000001FFF000000
0000001FFF000000
0000001FFF000000
0000001FFF000000
0000001FFF000000
0000001FFF000000
0000001FFF000000
0000001FFF000000
0000001FFF000000
0000001FFF000000
0000001FFF000000
0000001FFF000000
0000001FFF000000
0000001FFF000000
0000001FFF800000
0000001FFFF00000
0000001FFFFF0000
0000001FFFFFE000
0000001FFFFFFC00
0000001FFFFFFF00
0000003FFFFFFF80
0000007FFFFFFF80
000000FFFFFFFFC0
000001FFFFFFFFC0
000003FFFFFFFFC0
000003FFFFFFFE00
000007FFFFFFF800
00000FFFFFFFC000
00001FFFFFFE0000
00003FFFFFF80000
00007FFFFFC00000
0000FFFFFE000000
0001FFFFFE000000
0001FFFFFE000000
0003FFFFFE000000
0007FFFFFE000000
000FFFFFFE000000
001FFFFFFE000000
003FFFFFFE000000
007FFFFFFE000000
00FFFFFFFE000000
00FFFFFFFE000000
01FFFFEFFE000000
03FFFF8FFC000000
07FFFF0FFC000000
0FFFFE0FFC000000
1FFFF80FFC000000
1FFFF00FFC000000
1FFFC00FFC000000
3FFF800FFC000000
3FFF000FFC000000
3FFC000FFC000000
3FF8000FFC000000
7FF0000FFC000000
7FC0000FFC000000
7F80000FFC000000
7E00000FFC000000
FC00000FFC000000
F000000FF8000000
E000000FF0000000
8000000FC0000000
0000000F80000000
0000000F00000000
0000000C00000000
ENDCHAR
STARTCHAR J
ENCODING 74
SWIDTH 510 0
DWIDTH 84 0
BBX 36 165 32 0
BITMAP
0000700000
0000FE0000
0003FFC000
000FFFF800
001FFFFE00
007FFFFFC0
01FFFFFFF0
03FFFFFFF0
0FFFFFFFE0
1FFFFFFFC0
7FFFFFFF80
FFFFFFFE00
FFFFFF8000
FFFFC00000
FFFFC00000
FFFFC00000
FFFFC00000
FFFFC00000
FFFFC00000
FFFFC00000
FFFFC00000
FFFFC00000
FFFFC00000
FFFFC00000
FFFFC00000
FFFFC00000
FFFFC00000
FFFFC00000
FFFF800000
FFFF800000
FFFF800000
FFFF800000
FFFF800000
FFFF800000
FFFF800000
FFFF800000
FFFF800000
FFFF800000
FFFF800000
FFFF800000
FFFF800000
FFFF800000
FFFF800000
FFFF800000
7FFF800000
7FFF800000
7FFF800000
7FFF800000
7FFF800000
7FFF800000
7FFF000000
7FFF000000
7FFF000000
7FFF000000
7FFF000000
7FFF000000
7FFF000000
7FFF000000
7FFF000000
7FFF000000
7FFF000000
7FFF000000
7FFF000000
7FFF000000
7FFF000000
7FFF000000
7FFF000000
7FFF000000
7FFF000000
7FFF000000
7FFF000000
7FFF000000
7FFF000000
7FFE000000
7FFE000000
7FFE000000
7FFE000000
7FFE000000
7FFE000000
7FFE000000
7FFE000000
7FFE000000
7FFE000000
7FFE000000
7FFE000000
7FFE000000
7FFE000000
7FFE000000
7FFE000000
7FFE000000
7FFE000000
7FFE000000
7FFE000000
7FFE000000
7FFE000000
7FFE000000
7FFE000000
7FFC000000
7FFC000000
7FFC000000
7FFC000000
7FFC000000
7FFC000000
7FFC000000
3FFC000000
3FFC000000
3FFC000000
3FFC000000
3FFC000000
3FFC000000
3FFC000000
3FFC000000
3FFC000000
3FFC000000
3FFC000000
3FFC000000
3FFC000000
3FFC000000
3FFC000000
3FFC000000
3FFC000000
3FF8000000
3FF8000000
3FF8000000
3FF8000000
3FF8000000
3FF8000000
3FF8000000
3FF8000000
3FF8000000
3FF8000000
3FF8000000
3FF8000000
3FF8000000
3FF8000000
3FF8000000
3FF8000000
3FF8000000
3FF8000000
3FF8000000
3FF8000000
3FF8000000
3FF8000000
3FF8000000
3FF8000000
3FF0000000
3FF0000000
3FF0000000
3FF0000000
3FF0000000
3FF0000000
3FF0000000
3FF0000000
3FF0000000
3FF0000000
3FF0000000
3FF0000000
3FF0000000
3FF0000000
3FE0000000
3F80000000
3F00000000
3E00000000
3800000000
1000000000
ENDCHAR
STARTCHAR K
ENCODING 75
SWIDTH 510 0
DWIDTH 84 0
BBX 58 165 13 0
BITMAP
0000000000E00000
0000000003FC0000
000000000FFF0000
000000003FFFE000
000000007FFFFC00
00000001FFFFFF00
00000007FFFFFFC0
0000000FFFFFFFC0
0000003FFFFFFF80
000000FFFFFFFF00
000001FFFFFFFE00
000003FFFFFFF800
000003FFFFFE0000
000003FFFF800000
000003FFFF000000
000003FFFF000000
000003FFFF000000
000003FFFF000000
000003FFFF000000
000003FFFF000000
000003FFFF000000
000003FFFF000000
000003FFFF000000
000003FFFF000000
000003FFFF000000
000003FFFF000000
000003FFFF000000
000003FFFF000000
000001FFFF000000
000001FFFF000000
000001FFFF000000
000001FFFF000000
000001FFFF000000
000001FFFE000000
800001FFFE000000
E00001FFFE000000
700001FFFE000000
7C0001FFFE000000
7E0001FFFE000000
7F0001FFFE000000
3FC001FFFE000000
3FE001FFFE000000
3FF001FFFE000000
1FFC01FFFE000000
1FFE01FFFE000000
1FFF01FFFE000000
1FFFC1FFFE000000
0FFFE1FFFE000000
0FFFF9FFFE000000
0FFFFFFFFE000000
07FFFFFFFE000000
03FFFFFFFE000000
01FFFFFFFE000000
00FFFFFFFE000000
00FFFFFFFE000000
007FFFFFFE000000
003FFFFFFE000000
001FFFFFFC000000
000FFFFFFC000000
0007FFFFFC000000
0003FFFFFC000000
0001FFFFFC000000
0001FFFFFC000000
0000FFFFFC000000
00007FFFFC000000
00003FFFFC000000
00001FFFFC000000
00000FFFFC000000
000007FFFC000000
000003FFFC000000
000003FFFC000000
000001FFFC000000
000001FFFC000000
000001FFFC000000
000001FFFC000000
000001FFFC000000
000001FFFC000000
000001FFFC000000
000001FFFC000000
000001FFFC000000
000001FFFC000000
000001FFFC000000
000001FFF8000000
000001FFF8000000
000001FFF8000000
000001FFF8000000
000001FFF8000000
000001FFF8000000
000001FFF8000000
00000FFFF8000000
00007FFFF8000000
0003FFFFF8000400
000FFFFFF8001C00
007FFFFFF8003C00
03FFFFFFF8007800
0FFFFFFFF800F800
7FFFFFFFF803F800
FFFFFFFFF807F000
7FFFFFFFF80FF000
7FFFFFFFF81FF000
3FFFFFFFF87FE000
1FFFFFFFF8FFE000
07FFFFFFF9FFE000
00FFFFFFFBFFE000
000000FFFFFFC000
000000FFFFFFC000
000000FFFFFFC000
000000FFFFFF8000
000000FFFFFF8000
000000FFFFFF8000
000000FFFFFF8000
000000FFFFFF0000
000000FFFFFF0000
000000FFFFFF0000
000000FFFFFE0000
000000FFFFFE0000
000007FFFFFE0000
00003FFFFFFC0000
0001FFFFFFFC0000
000FFFFFFFFC0000
003FFFFFFFFC0000
01FFFFFFFFF80000
0FFFFFFFFFF80000
3FFFFFFFFFF80000
FFFFFFFFFFF00000
FFFFFFFFFFF00000
7FFFFFFFFFF00000
3FFFFFFFFFE00000
1FFFFFFFFFE00000
0FFFFFFFFFE00000
007FFFFFFFE00000
000000FFFFC00000
000000FFFFC00000
000000FFFFC00000
000000FFFF800000
000000FFFF800000
000000FFFF800000
000000FFFF000000
000000FFFF000000
000000FFFF000000
000000FFFF000000
000000FFFE000000
000000FFFE000000
000000FFFE000000
000000FFFC000000
000000FFFC000000
000000FFFC000000
000000FFF8000000
000000FFF8000000
000000FFF8000000
000000FFF8000000
000000FFF0000000
000000FFF0000000
000000FFF0000000
000000FFE0000000
000000FFE0000000
000000FFE0000000
000000FFC0000000
000000FFC0000000
000000FF80000000
0000007E00000000
0000007C00000000
0000007800000000
0000006000000000
0000004000000000
ENDCHAR
STARTCHAR L
ENCODING 76
SWIDTH 510 0
DWIDTH 84 0
BBX 67 165 11 0
BITMAP
000000000800000000
000000001800000000
000000003800000000
00000000F800000000
00000001F800000000
00000003F800000000
0000000FF800000060
0000000FF8000000E0
0000000FF8000003E0
0000000FF800000FC0
0000001FF800001FC0
0000001FF800007FC0
0000001FF80001FF80
0000001FF80003FF80
0000001FF8000FFF80
0000001FF8001FFF00
0000001FF8007FFF00
0000001FF801FFFF00
0000001FF803FFFE00
0000001FF80FFFFE00
0000001FF83FFFFC00
0000001FF87FFFFC00
0000001FF9FFFFF800
0000001FFFFFFFF000
0000001FFFFFFFE000
0000001FFFFFFFC000
0000003FFFFFFF8000
0000003FFFFFFF0000
0000003FFFFFFE0000
0000003FFFFFFC0000
0000003FFFFFF80000
0000003FFFFFF00000
0000007FFFFFE00000
000001FFFFFF800000
00000FFFFFFF000000
00007FFFFFFE000000
0007FFFFFFFC000000
003FFFFFFFF8000000
01FFFFFFFFF0000000
03FFFFFFFFE0000000
03FFFFFFFFC0000000
01FFFFFFFF80000000
01FFFFFFFF00000000
00FFFFFFFE00000000
003FFFFFFC00000000
000FFFFFF800000000
0001FFFFF800000000
00007FFFF800000000
00000FFFF800000000
000003FFFC00000000
000000FFFC00000000
0000007FFC00000000
0000007FFC00000000
0000007FFC00000000
0000007FFC00000000
0000007FFC00000000
0000007FFC00000000
0000007FFC00000000
0000007FFC00000000
0000007FFC00000000
0000007FFC00000000
0000007FFC00000000
0000007FFC00000000
0000007FFC00000000
0000007FFC00000000
0000007FFC00000000
0000007FFC00000000
0000007FFC00000000
0000007FFC00000000
0000007FFC00000000
0000007FFC00000000
0000007FFC00000000
0000007FFC00000000
000000FFFC00000000
000000FFFC00000000
000000FFFC00000000
000000FFFC00000000
000000FFFC00000000
000000FFFC00000000
000000FFFC00000000
000000FFFC00000000
000000FFFC00000000
000000FFFC00000000
000000FFFC00000000
000000FFFC00000000
000000FFFC00000000
000000FFFC00000000
000000FFFC00000000
000000FFFC00000000
000000FFFC00000000
000000FFFC00000000
000001FFFC00000000
00000FFFFC00000000
00007FFFFC00000000
0003FFFFFC00000000
001FFFFFFC00000000
00FFFFFFFC00000000
03FFFFFFFC00000000
1FFFFFFFFC00000000
FFFFFFFFFC00000000
FFFFFFFFFC00000000
7FFFFFFFFC00000000
7FFFFFFFFC00000000
3FFFFFFFFC00000000
1FFFFFFFFC00000000
07FFFFFFFC00000000
007FFFFFFC00000000
000001FFFC00000000
000001FFFC00000000
000001FFFC00000000
000001FFFC00000000
000001FFFC00000000
000001FFFC00000000
000001FFFE00000000
000001FFFE00000000
000001FFFE00000000
000003FFFE00000000
00001FFFFE00000000
0000FFFFFE00000000
0003FFFFFE00000000
001FFFFFFE00000000
00FFFFFFFE00000000
07FFFFFFFE00000000
1FFFFFFFFE00000000
FFFFFFFFFE00000000
FFFFFFFFFE00000000
7FFFFFFFFE00000000
7FFFFFFFFE00000000
3FFFFFFFFE00000000
1FFFFFFFFE00000000
07FFFFFFFE00000000
003FFFFFFE00000000
000003FFFE00000000
000003FFFE00000000
000003FFFE00000000
000003FFFE00000000
000003FFFE00000000
000003FFFE00000000
000003FFFE00000000
000003FFFE00000000
000003FFFE00000000
000003FFFE00000000
000003FFFE00000000
000003FFFE00000000
000007FFFE00000000
000007FFFE00000000
000007FFFE00000000
000007FFFE00000000
000007FFFE00000000
000007FFFE00000000
000007FFFE00000000
000007FFFE00000000
000007FFFE00000000
000007FFFE00000000
000007FFFE00000000
000007FFF800000000
000007FFF000000000
000007FFC000000000
000007FF8000000000
000007FE0000000000
000007F80000000000
000007F00000000000
000007C00000000000
000007000000000000
000004000000000000
ENDCHAR
STARTCHAR M
ENCODING 77
SWIDTH 510 0
DWIDTH 84 0
BBX 63 164 6 0
BITMAP
00000000001F0000
00000000007FE000
0000000001FFFC00
0000000003FFFF00
000000000FFFFFE0
000000003FFFFFFC
000000007FFFFFFC
00000001FFFFFFFC
00000003FFFFFFF8
0000000FFFFFFFF0
0000001FFFFFFFC0
0000001FFFFFFC00
0000001FFFFF0000
0000001FFFF80000
0000001FFFF80000
0000001FFFF00000
0000001FFFF00000
0000001FFFF00000
0000001FFFF00000
0000001FFFF00000
0000001FFFF00000
0000001FFFF00000
0000001FFFF00000
0000001FFFF00000
0000001FFFF00000
0000001FFFF00000
0000001FFFF00000
0000001FFFF00000
0000001FFFF00000
0000001FFFF00000
0000001FFFF00000
0000001FFFF00000
0000001FFFF00000
0000001FFFF00000
0000001FFFF00000
0000001FFFE00000
0000001FFFE00000
0000001FFFE00000
0000001FFFE00000
0000001FFFE00000
0000001FFFE00000
0000001FFFE00000
0000001FFFE00000
0000001FFFE00000
0000001FFFE00000
8000001FFFE00000
C000001FFFE00000
F000001FFFE00000
7800001FFFE00000
7C00001FFFE00000
7F00001FFFE00000
3F80001FFFE00000
3FC0001FFFE00000
3FE0001FFFE00000
1FF8001FFFE00000
1FFC001FFFE00000
1FFE001FFFE00000
1FFF001FFFE00000
0FFFC01FFFC00000
0FFFE01FFFC00000
0FFFF01FFFC00000
07FFF01FFFC00000
07FFF01FFFC00000
07FFF01FFFC00000
03FFF01FFFC00000
03FFE01FFFC00000
03FFE01FFFC00000
01FFE01FFFC00000
01FFE01FFFC00000
01FFE01FFFC00000
00FFE01FFFC00000
00FFE01FFFC00000
00FFE01FFFC00000
007FC00FFFC00000
007FC00FFFC00000
007FC00FFFC00000
007FC00FFFC00000
003FC00FFFC00000
003FC00FFFC00000
003FC00FFFC00000
001F800FFFC00000
001F800FFF800000
001F800FFF800000
000F800FFF800000
000F800FFF800000
000F800FFF800000
0007000FFF800000
0007000FFF800000
0007000FFF800000
0003000FFF800000
0003000FFF800000
0001000FFF800000
0000000FFF800000
0000000FFF800000
0000000FFF800000
0000000FFF800000
0000000FFF800000
0000000FFF800000
0000000FFF800000
0000000FFF800000
0000000FFF800000
0000000FFF800000
0000000FFF800000
0000000FFF800000
0000000FFF000000
0000000FFF000000
0000000FFF000000
0000000FFF000000
0000000FFF000000
0000000FFF000000
0000000FFF000000
0000000FFF000000
0000000FFF000000
0000000FFF000000
0000000FFF000000
0000000FFF000000
0000000FFF000000
0000000FFF000000
0000000FFF000000
0000000FFF000000
0000000FFF000000
0000000FFF000000
0000000FFF000000
0000000FFF000000
0000000FFF000000
0000000FFF000000
0000000FFF000000
0000000FFE000000
0000000FFE000000
00000007FE000000
00000007FE000000
00000007FE000000
00000007FE000000
00000007FE000000
00000007FE000000
00000007FE000000
00000007FE000000
00000007FE000000
00000007FE000000
00000007FE000000
00000007FE000000
00000007FE000000
00000007FE000000
00000007FE000000
00000007FE000000
00000007FE000000
00000007FE000000
00000007FE000000
00000007FE000000
00000007FE000000
00000007FE000000
00000007FFFFC000
00000007FFFFFF00
00000007FFFFFFE0
00000001FFFFFFF0
00000000FFFFFFF8
000000007FFFFFFC
000000001FFFFFFE
000000000FFFFFF8
0000000003FFFFC0
0000000001FFFE00
00000000007FF800
00000000003FC000
00000000001E0000
ENDCHAR
STARTCHAR N
ENCODING 78
SWIDTH 510 0
DWIDTH 84 0
BBX 62 165 11 0
BITMAP
00000000000E0000
00000000003F8000
0000000000FFF000
0000000003FFFE00
0000000007FFFFC0
000000001FFFFFF0
000000007FFFFFFC
00000000FFFFFFFC
00000003FFFFFFF8
00000007FFFFFFF0
0000001FFFFFFFE0
0000003FFFFFFF80
0000003FFFFFE000
0000003FFFF80000
0000003FFFF00000
0000003FFFF00000
0000003FFFF00000
0000003FFFF00000
0000003FFFF00000
0000003FFFF00000
0000003FFFF00000
0000003FFFF00000
0000003FFFF00000
0000003FFFF00000
0000003FFFF00000
0000003FFFF00000
0000003FFFF00000
0000001FFFF00000
0000001FFFF00000
0000001FFFF00000
0000001FFFF00000
0000001FFFE00000
0000001FFFE00000
0000001FFFE00000
0000001FFFE00000
0000001FFFE00000
0000001FFFE00000
0000001FFFE00000
0000001FFFE00000
0000001FFFE00000
0000001FFFE00000
0000001FFFE00000
0000001FFFE00000
0000001FFFE00000
0000001FFFE00000
0000001FFFE00000
8000001FFFE00000
C000001FFFE00000
F000001FFFE00000
F800001FFFE00000
7C00001FFFE00000
7F00001FFFE00000
7F80001FFFE00000
3FC0001FFFE00000
3FF0001FFFE00000
3FF8001FFFC00000
1FFC001FFFC00000
1FFE001FFFC00000
1FFF801FFFC00000
0FFFC01FFFC00000
0FFFE01FFFC00000
0FFFF01FFFC00000
07FFF01FFFC00000
07FFF01FFFC00000
07FFE01FFFC00000
03FFE01FFFC00000
03FFE01FFFC00000
03FFE01FFFC00000
03FFE01FFFC00000
01FFE01FFFC00000
01FFE01FFFC00000
01FFE01FFFC00000
00FFC01FFFC00000
00FFC01FFFC00000
00FFC01FFFC00000
007FC01FFFC00000
007FC01FFFC00000
007FC01FFFC00000
003FC01FFF800000
003FC01FFF800000
003F801FFF800000
001F801FFF800000
001F801FFF800000
001F801FFF800000
000F801FFF800000
000F801FFF800000
000F801FFF800000
0007001FFF800000
0007001FFF800000
0007001FFF800000
0003000FFF800000
0003000FFF800000
0003000FFF800000
0000000FFF800000
0000000FFF800000
0000000FFF800000
0000000FFF800000
0000000FFF800000
0000000FFF800000
0000000FFF800000
0000000FFF800000
0000000FFF800000
0000000FFF000000
0000000FFF000000
0000000FFF000000
0000000FFF000000
0000000FFF000000
0000000FFF000000
0000000FFF000000
0000000FFF000000
0000000FFF000000
0000000FFF000000
0000000FFF000000
0000000FFF000000
0000000FFF000000
0000000FFF000000
0000000FFF000000
0000000FFF000000
0000000FFF000000
0000000FFF000000
0000000FFF000000
0000000FFF000000
0000000FFF000000
0000000FFF000000
0000000FFF000000
0000000FFE000000
0000000FFE000000
0000000FFE000000
0000000FFE000000
0000000FFE000000
0000000FFE000000
0000000FFE000000
0000000FFE000000
0000000FFE000000
0000000FFE000000
0000000FFE000000
0000000FFE000000
0000000FFE000000
0000000FFE000000
0000000FFE000000
0000000FFE000000
0000000FFE000000
0000000FFE000000
0000000FFE000000
0000000FFE000000
0000000FFE000000
0000000FFE000000
0000000FFE000000
0000000FFE000000
0000000FFE000000
0000000FFC000000
0000000FFC000000
0000000FFC000000
0000000FFC000000
0000000FFC000000
0000000FFC000000
0000000FFC000000
00000007FC000000
00000007FC000000
00000007F8000000
00000007F0000000
00000007C0000000
0000000780000000
0000000700000000
0000000400000000
ENDCHAR
STARTCHAR O
ENCODING 79
SWIDTH 510 0
DWIDTH 84 0
BBX 70 164 7 0
BITMAP
000000000100000000
000000000180000000
0000040001C0000000
00003C0001F0000000
0001FC0003F8000000
0001FC0003FC000000
0001FC0003FE000000
0001FC0003FF000000
0001FC0003FF000000
0001FC0003FF000000
0001FC0003FF000000
0001FC0003FF000000
0001FC0003FF000000
0001FC0003FF000000
0001FC0003FF000000
0003FC0003FF000000
0003FC0003FF000000
0003FC0003FF000000
0003FC0003FF000000
0003FC0003FF000000
0003FC0003FF000000
0003FC0003FF000000
0003FC0003FF000000
0003FC0003FF000000
0003FC0003FF000000
0003FC0003FF000000
0003FC0003FF000000
0003FC0003FF000000
0003FC0003FF000000
0007FC0003FF000000
0007FC0003FF800000
0007FC0003FF800000
C007FC0003FF800000
E007FC0003FF800000
F807FC0007FF800000
FE07FC0007FF800000
FF87FC0007FF800000
7FE7FC0007FF800000
7FFFFC0007FF800000
7FFFFC0007FF800000
7FFFFC0007FF800000
7FFFFC0007FF800000
3FFFFC0007FF800000
3FFFFC0007FF800000
3FFFFC0007FF800000
3FFFFC0007FF800000
3FFFFC0007FF800000
1FFFFC0007FF800000
1FFFFC0007FF800000
1FFFFC0007FF800000
1FFFFC0007FF800000
1FFFFC0007FF800000
0FFFFC0007FF800000
0FFFFC0007FF800000
0FFFFC0007FF800000
0FFFFC0007FF800000
0FFFFC0007FF800000
0FFFFC0007FF800000
07FFFC0007FF800000
07FFFC0007FF800000
07FFFC0007FFC00000
07FFFC0007FFC00000
07FFFC0007FFC00000
03FFFC0007FFC00000
03FFFC0007FFC00000
03FFFC0007FFC00000
03FFFC0007FFC00000
03FFFC0007FFC00000
01FFFC0007FFC00000
01FFFC0007FFC00000
01FFFC0007FFC00000
01FFFC0007FFC00000
01FFFC0007FFC00000
00FFFC0007FFC00000
00FFFC0007FFC00000
00FFFC000FFFC00000
00FFFC000FFFC00000
00FFFC000FFFC00000
007FFC000FFFC00000
007FFC000FFFC00000
007FFC000FFFC00000
007FFC000FFFC00000
007FFC000FFFC00000
003FFC000FFFC00000
003FFC000FFFC00000
003FFC000FFFC00000
003FFC000FFFC00000
003FFC000FFFC00000
001FFC000FFFC00000
001FFC000FFFC00000
001FFC000FFFC00000
001FFC000FFFC00000
001FFF000FFFE00000
001FFFE00FFFE00000
000FFFF80FFFE00000
000FFFFF0FFFE00000
000FFFFFEFFFE00000
000FFFFFFFFFE00000
000FFFFFFFFFE00000
0007FFFFFFFFE00000
0007FFFFFFFFE00000
0007FFFFFFFFE00000
0007FFFFFFFFE00000
0007FFFFFFFFE00000
0003FFFFFFFFE00000
0003FFFC0FFFE00000
0003FC000FFFE00000
0003FC000FFFE00000
0003FC000FFFE00000
0001FC000FFFE00000
0001FC000FFFE00000
0001FC000FFFE00000
0001FC000FFFE00000
0000FC000FFFE00000
0000FC000FFFE00000
00007C000FFFE00000
00007C001FFFE00000
00003C001FFFE00000
00003C001FFFE00000
00001C001FFFE00000
00001C001FFFE00000
00000C001FFFE00000
000004001FFFF00000
000004001FFFF00000
000000001FFFF00000
000000001FFFF00000
000000001FFFF00000
000000001FFFF00000
000000001FFFF00000
000000001FFFF00000
000000001FFFF00000
000000001FFFF00000
000000001FFFF00000
000000001FFFF00000
000000001FFFF00000
000000001FFFF00000
000000001FFFF00000
000000001FFFF00000
000000001FFFF00000
000000001FFFF00000
000000001FFFF00000
000000001FFFF00000
000000001FFFF00000
000000001FFFF00000
000000001FFFF00000
000000001FFFF00000
000000001FFFF00000
000000001FFFF00000
000000001FFFF00000
000000001FFFF80000
000000001FFFFC0000
000000001FFFFFF000
000000001FFFFFFF80
000000000FFFFFFFE0
0000000003FFFFFFF0
0000000001FFFFFFF8
00000000007FFFFFFC
00000000003FFFFFFC
00000000000FFFFFE0
000000000007FFFF80
000000000001FFFC00
0000000000007FE000
0000000000003F8000
0000000000000C0000
ENDCHAR
STARTCHAR P
ENCODING 80
SWIDTH 510 0
DWIDTH 84 0
BBX 68 164 8 0
BITMAP
000000001000000000
000000001800000000
000000001C00000000
000000001E00000000
000000001F80000000
000000001FC0000000
000000001FE0000000
000000001FF0000000
000004001FF0000000
000004001FF0000000
000004001FF0000000
00000C001FF0000000
00000C001FF0000000
00001C001FF0000000
00001C001FF0000000
00003C001FF0000000
00003C003FF8000000
00007C003FF8000000
00007C003FF8000000
0000FC003FF8000000
0000FC003FF8000000
0001FC003FF8000000
0001FC003FF8000000
0001FC003FF8000000
0001FC003FF8000000
0003FC003FF8000000
0003FC003FF8000000
0003FC003FF8000000
0003FC003FF8000000
0003FC003FF8000000
0003FC003FF8000000
0007FC003FF8000000
0007FC003FF8000000
0007FC003FF8000000
0007FC003FF8000000
0007FC003FF8000000
000FFC003FF8000000
000FFC003FF8000000
000FFC003FF8000000
000FFC003FF8000000
000FFC003FF8000000
001FFC003FFC000000
001FFC003FFC000000
001FFC003FFC000000
001FFC003FFC000000
001FFE003FFC000000
003FFE003FFC000000
003FFE003FFC000000
003FFE003FFC000000
003FFE003FFC000000
003FFE003FFC000000
007FFE003FFC000000
007FFE003FFC000000
007FFE003FFC000000
007FFE003FFC000000
007FFE003FFC000000
007FFE003FFC000000
00FFFE003FFC000000
00FFFE003FFC000000
00FFFE003FFC000000
00FFFE003FFC000000
00FFFE003FFC000000
01FFFE003FFC000000
01FFFE003FFC000000
01FFFE003FFC000000
01FFFE003FFC000000
01FFFE003FFE000000
03FFFE003FFE000000
03FFFE003FFE000000
03FFFE007FFE000000
03FFFE007FFE000000
03FFFE007FFE000000
07FFFE007FFE000000
07FFFE007FFE000000
07FFFE007FFE000000
07FFFE007FFE000000
07FFFE007FFE000000
07FFFE007FFE000000
0FFFFE007FFE000000
0FFFFE007FFE000000
0FFFFE007FFE000000
0FFFFE007FFE000000
0FFFFE007FFE000000
1FFFFE007FFE000000
1FFFFE007FFE000000
1FFFFE007FFE000000
1FFFFE007FFE000000
1FFFFE007FFE000000
3FFFFE007FFE000000
3FFFFE007FFE000000
3FFFFE007FFE000000
3FFFFE007FFE000000
3FFFFE007FFF000000
3FFFFE007FFF000000
7FFFFE007FFF000000
7FE7FE007FFF000000
7F87FE007FFF000000
7E07FE007FFF000000
7807FE007FFF000000
7007FE007FFF000000
C007FE007FFF000000
0003FE007FFF000000
0003FE007FFF000000
0003FE007FFF000000
0003FE007FFF000000
0003FE007FFF000000
0003FE007FFF000000
0003FE007FFF000000
0003FE007FFF000000
0003FE007FFF000000
0003FE007FFF000000
0003FE007FFF000000
0003FE007FFF000000
0003FE007FFF000000
0001FE007FFF000000
0001FE007FFF000000
0001FE007FFF000000
0001FE007FFF800000
0001FE007FFF800000
0001FE007FFF800000
0001FE007FFF800000
0001FC007FFF800000
0001FC007FFF800000
0001FC007FFF800000
0001FC00FFFF800000
0001FC00FFFF800000
0001FC00FFFF800000
0000FC00FFFF800000
0000FC00FFFF800000
00001C00FFFF800000
00000000FFFF800000
00000000FFFF800000
00000000FFFF800000
00000000FFFF800000
00000000FFFF800000
00000000FFFF800000
00000000FFFF800000
00000000FFFF800000
00000000FFFF800000
00000000FFFFC00000
00000000FFFFC00000
00000000FFFFC00000
00000000FFFFC00000
00000000FFFFC00000
00000000FFFFC00000
00000000FFFFC00000
00000000FFFFC00000
00000000FFFFC00000
00000000FFFFC00000
00000000FFFFC00000
00000000FFFFC00000
00000000FFFFFC0000
00000000FFFFFFF800
00000000FFFFFFFF00
000000003FFFFFFF80
000000000FFFFFFFC0
0000000007FFFFFFE0
0000000001FFFFFFF0
0000000000FFFFFFC0
00000000003FFFFE00
00000000000FFFF800
000000000007FFC000
000000000001FF0000
000000000000F80000
ENDCHAR
STARTCHAR Q
ENCODING 81
SWIDTH 510 0
DWIDTH 84 0
BBX 58 164 13 0
BITMAP
0000000003E00000
000000000FFC0000
000000003FFF8000
000000007FFFF000
00000001FFFFFC00
00000003FFFFFF00
0000000FFFFFFFC0
0000003FFFFFFF80
0000007FFFFFFF00
000001FFFFFFFE00
000003FFFFFFFC00
000003FFFFFFC000
000003FFFFE00000
000003FFFF000000
000003FFFF000000
000003FFFE000000
000003FFFE000000
000003FFFE000000
000003FFFE000000
000003FFFE000000
000003FFFE000000
000003FFFE000000
000003FFFE000000
000003FFFE000000
000003FFFE000000
000003FFFE000000
000003FFFE000000
000003FFFE000000
000003FFFE000000
000003FFFE000000
000003FFFE000000
000003FFFE000000
000003FFFE000000
000003FFFE000000
800003FFFE000000
C00003FFFE000000
F00003FFFE000000
F80003FFFC000000
FC0003FFFC000000
7F0003FFFC000000
7F8003FFFC000000
7FE003FFFC000000
3FF003FFFC000000
3FF803FFFC000000
3FFE03FFFC000000
3FFF03FFFC000000
1FFF83FFFC000000
1FFFE3FFFC000000
1FFFF3FFFC000000
0FFFFFFFFC000000
07FFFFFFFC000000
07FFFFFFFC000000
03FFFFFFFC000000
01FFFFFFFC000000
00FFFFFFFC000000
007FFFFFFC000000
003FFFFFFC000000
001FFFFFFC000000
001FFFFFFC000000
000FFFFFFC000000
0007FFFFFC000000
0003FFFFF8000000
0001FFFFF8000000
0000FFFFF8000000
00007FFFF8000000
00007FFFF8000000
00003FFFF8000000
00001FFFF8000000
00000FFFF8000000
000007FFF8000000
000003FFF8000000
000003FFF8000000
000003FFF8000000
000003FFF8000000
000003FFF8000000
000003FFF8000000
000003FFF8000000
000003FFF8000000
000003FFF8000000
000001FFF8000000
000001FFF8000000
000001FFF8000000
000001FFF8000000
000001FFF8000000
000001FFF8000000
000001FFF0000000
000001FFF0000000
000001FFF0000000
000001FFF0000000
000001FFF0000000
000001FFF0000000
000001FFF0000800
000001FFF0003800
000001FFF0007800
000001FFF000F000
000001FFF001F000
000001FFF007F000
000001FFF00FE000
000001FFF01FE000
000001FFF03FE000
000001FFF0FFE000
000001FFF1FFC000
000001FFF3FFC000
000001FFFFFFC000
000001FFFFFF8000
000001FFFFFF8000
000001FFFFFF8000
000001FFFFFF0000
000001FFFFFF0000
000001FFFFFF0000
000001FFFFFF0000
000001FFFFFE0000
000001FFFFFE0000
000001FFFFFE0000
000001FFFFFC0000
000001FFFFFC0000
000001FFFFFC0000
000001FFFFF80000
000001FFFFF80000
000001FFFFF80000
000001FFFFF80000
000001FFFFF00000
000001FFFFF00000
000001FFFFF00000
000001FFFFE00000
000001FFFFE00000
000001FFFFE00000
000001FFFFC00000
000001FFFFC00000
000001FFFFC00000
000001FFFFC00000
000001FFFF800000
000001FFFF800000
000001FFFF800000
000001FFFF000000
000001FFFF000000
000001FFFF000000
000001FFFF000000
000001FFFE000000
000001FFFE000000
000001FFFE000000
000001FFFC000000
000000FFFC000000
000000FFFC000000
000000FFF8000000
000000FFF8000000
000000FFF8000000
000000FFF0000000
000000FFF0000000
000000FFF0000000
000000FFF0000000
000000FFE0000000
000000FFE0000000
000000FFE0000000
000000FFC0000000
000000FFC0000000
000000FFC0000000
000000FFC0000000
000000FF80000000
000000FF00000000
000000FC00000000
000000F800000000
000000F000000000
000000C000000000
ENDCHAR
STARTCHAR R
ENCODING 82
SWIDTH 510 0
DWIDTH 84 0
BBX 53 164 15 1
BITMAP
00000000380000
000000007F0000
00000001FFE000
00000003FFF800
0000000FFFFF00
0000003FFFFFE0
0000007FFFFFF8
000001FFFFFFF8
000003FFFFFFF0
00000FFFFFFFE0
00001FFFFFFFC0
00003FFFFFFF00
00003FFFFFE000
00003FFFF00000
00003FFFE00000
00003FFFE00000
00003FFFE00000
00003FFFE00000
00003FFFE00000
00003FFFE00000
00003FFFE00000
00003FFFE00000
00003FFFE00000
00003FFFE00000
00003FFFE00000
00003FFFE00000
00003FFFE00000
00003FFFE00000
00003FFFE00000
00003FFFE00000
00003FFFE00000
00003FFFE00000
00003FFFE00000
00003FFFC00000
00003FFFC00000
00003FFFC00000
00003FFFC00000
00003FFFC00000
00003FFFC00000
00003FFFC00000
00003FFFC00000
00003FFFC00000
00003FFFC00000
00003FFFC00000
00003FFFC00000
00003FFFC00000
00003FFFC00000
00003FFFC00000
00003FFFC00000
00003FFFF00000
00003FFFFE0000
00003FFFFF8000
00003FFFFFF000
00003FFFFFFE00
00003FFFFFFF80
00003FFFFFFFF0
00003FFFFFFFF8
00003FFFFFFFF8
00003FFFFFFFF0
00003FFFFFFFF0
00003FFFFFFFE0
00003FFFFFFF80
00003FFFFFFC00
00003FFF800000
00003FFF800000
00003FFF800000
00003FFF800000
00003FFF800000
00003FFF800000
00003FFF800000
00003FFF800000
00003FFF800000
00003FFF800000
00003FFF800000
00003FFF800000
00003FFF800000
00003FFF800000
00003FFF800000
00003FFF800000
00003FFF800000
00003FFF000000
00003FFF000000
00003FFF000000
00003FFF000000
00003FFF000000
00003FFF000000
00003FFF000000
00003FFF000000
00001FFF000000
00001FFFC00000
00001FFFF80000
80001FFFFF0000
60001FFFFFE000
70001FFFFFF800
78001FFFFFFF00
7C001FFFFFFFC0
3F001FFFFFFFF8
3F801FFFFFFFF8
3FC01FFFFFFFF8
1FE01FFFFFFFF0
1FF81FFFFFFFE0
1FFC1FFFFFFFC0
1FFE1FFFFFFF00
0FFF3FFFFFF000
0FFFBFFE000000
0FFFFFFE000000
07FFFFFE000000
07FFFFFE000000
07FFFFFE000000
07FFFFFE000000
03FFFFFE000000
03FFFFFE000000
03FFFFFE000000
01FFFFFE000000
01FFFFFE000000
01FFFFFE000000
01FFFFFFC00000
00FFFFFFF80000
00FFFFFFFF0000
00FFFFFFFFE000
007FFFFFFFF800
007FFFFFFFFF00
007FFFFFFFFFE0
003FFFFFFFFFF8
003FFFFFFFFFF8
003FFFFFFFFFF8
003FFFFFFFFFF0
001FFFFFFFFFE0
001FFFFFFFFFC0
001FFFFFFFFF00
000FFFFF820000
000FFFFC000000
000FFFFC000000
0007FFFC000000
0007FFFC000000
0007FFFC000000
0007FFFC000000
0003FFFC000000
0003FFFC000000
0003FFFC000000
0001FFFC000000
0001FFFC000000
0001FFFC000000
0001FFFC000000
0000FFFC000000
0000FFFC000000
0000FFFC000000
00007FFC000000
00007FF8000000
00007FF8000000
00007FF8000000
00003FF8000000
00003FF8000000
00003FF8000000
00003FF8000000
00001FF8000000
00001FF8000000
00001FF8000000
00001FF0000000
00000FE0000000
00000FC0000000
00000F00000000
00000E00000000
00000800000000
ENDCHAR
STARTCHAR S
ENCODING 83
SWIDTH 510 0
DWIDTH 84 0
BBX 59 165 14 -1
BITMAP
0000000010000000
0000000070000000
00000000F0000000
00000003F0000000
0000000FF0000000
0000001FF0000020
0000007FF0000060
000000FFF00001E0
000003FFF00003E0
000007FFF00007E0
00001FFFF0001FC0
00003FFFF0003FC0
00003FFFF000FFC0
00003FFFF001FF80
00003FFFF003FF80
00003FFFF00FFF80
00003FFFF01FFF80
00003FFFF07FFF00
00003FFFF0FFFF00
00003FFFF1FFFF00
00003FFFF7FFFE00
00003FFFFFFFFE00
00003FFFFFFFFC00
00003FFFFFFFF800
00003FFFFFFFF000
00003FFFFFFFE000
00003FFFFFFFC000
00003FFFFFFF8000
00003FFFFFFF8000
00003FFFFFFF0000
00003FFFFFFE0000
00001FFFFFFC0000
00001FFFFFF80000
00001FFFFFF00000
00001FFFFFE00000
00001FFFFFC00000
0000FFFFFFC00000
0003FFFFFF800000
001FFFFFFF000000
00FFFFFFFE000000
03FFFFFFFC000000
1FFFFFFFF8000000
7FFFFFFFF0000000
FFFFFFFFE0000000
7FFFFFFFE0000000
3FFFFFFFE0000000
1FFFFFFFE0000000
0FFFFFFFE0000000
03FFFFFFE0000000
007FFFFFE0000000
000FFFFFE0000000
0001FFFFE0000000
00003FFFE0000000
00003FFFE0000000
00001FFFC0000000
00001FFFC0000000
00001FFFC0000000
00001FFFC0000000
00001FFFC0000000
00001FFFC0000000
00001FFFC0000000
00001FFFC0000000
00001FFFC0000000
00001FFFC0000000
00001FFFC0000000
00001FFFC0000000
00001FFFC0000000
00001FFFC0000000
00001FFFC0000000
00001FFFC0000000
00001FFFC0000000
00001FFFC0000000
00001FFFC0000000
00001FFF80000000
00001FFF80000000
00001FFF80000000
00001FFF80000000
00001FFF80000000
00001FFF80000000
00001FFF80000000
00001FFF80000000
00001FFF80000000
00001FFF80000000
00001FFF80000000
00001FFF80000000
00001FFF80000000
00001FFF80000000
00001FFF80000000
00001FFF80000000
00001FFF80000000
00001FFF80000000
00001FFF80000000
00001FFF80000000
00001FFF80000000
00001FFF80000000
00001FFF80000000
00001FFF00000000
00001FFF00000000
00001FFF00000000
00001FFF00000000
00001FFF00000000
00001FFF00000000
00001FFF00000000
00001FFF00000000
00001FFF00000000
00001FFF00000000
00001FFF00000000
00000FFF00000000
00000FFF00000000
00000FFF00000000
00000FFF00000000
00000FFF00000000
00000FFF00000000
00000FFF00000000
00000FFF00000000
00000FFF00000000
00000FFF00000000
00000FFF00000000
00000FFF00000000
00000FFE00000000
00000FFE00000000
00000FFE00000000
00000FFE00000000
00000FFE00000000
00000FFE00000000
00000FFE00000000
00000FFE00000000
00000FFE00000000
00000FFE00000000
00000FFE00000000
00000FFE00000000
00000FFE00000000
00000FFE00000000
00000FFE00000000
00000FFE00000000
00000FFE00000000
00000FFE00000000
00000FFE00000000
00000FFE00000000
00000FFE00000000
00000FFE00000000
00000FFE00000000
00000FFE00000000
00000FFE00000000
00000FFC00000000
00000FFC00000000
00000FFC00000000
00000FFC00000000
00000FFC00000000
00000FFC00000000
00000FFC00000000
00000FFC00000000
00000FFC00000000
00000FFC00000000
00000FFC00000000
00000FFC00000000
00000FFC00000000
00000FFC00000000
00000FFC00000000
00000FF000000000
00000FE000000000
00000FC000000000
00000F0000000000
00000E0000000000
0000040000000000
ENDCHAR
STARTCHAR T
ENCODING 84
SWIDTH 510 0
DWIDTH 84 0
BBX 58 164 13 1
BITMAP
0000000040000000
00000001C0000000
00000003C0000000
00000007C0000000
0000000FC0000000
0000001FC0000000
0000003FC0000000
0000007FC0000000
0000007FC0000000
000000FFC0000000
000000FFC0000000
000000FFC0000000
000000FFC0000000
000000FFC0000000
000000FFC0000000
000000FFC0000000
000000FFC0000000
000000FFC0000000
000000FFC0000000
000000FFC0000000
000000FFC0000000
000000FFC0000000
000000FFC0000000
000000FFC0000000
000000FFC0000000
000000FFC0000000
000000FFC0000000
000000FFC0000000
000000FFC0000000
000000FFC0000000
000000FFC0000000
000000FFC0000000
000000FFC0000000
000000FFC0000000
000000FFC0000000
000000FFC0000000
000000FFC0000000
000000FFC0000000
000000FFC0000000
000000FFC0000000
000001FFC0000000
000001FFC0000000
000001FFC0000000
000001FFC0000000
000001FFC0000000
000001FFC0000000
000001FFC0000000
000001FFC0000000
000001FFC0000000
000001FFC0000000
000001FFC0000000
000001FFC0000000
000001FFC0000000
000001FFC0000000
000001FFC0000000
000001FFC0000000
000001FFC0000000
000001FFC0000000
000001FFC0000000
000001FFC0000000
000001FFC0000000
000001FFC0000000
000001FFC0000000
000001FFC0000000
000001FFC0000000
000001FFC0000000
000001FFC0000000
000001FFC0000000
000001FFC0000000
000001FFC0000000
000003FFC0000000
000003FFC0000000
000003FFC0000000
000003FFC0000000
000003FFC0000000
000003FFC0000000
000003FFC0000000
000003FFC0000000
000003FFC0000000
000003FFC0000000
000003FFC0000000
000007FFC0000000
000007FFC0000000
000007FFC0000000
00000FFFC0000000
00000FFFC0000000
00000FFF80000000
00001FFF80000000
00001FFF80000000
00001FFF80000000
00003FFF00000000
00003FFF00000000
00003FFF00000000
00007FFE00000000
00007FFE00000000
00007FFE00000000
0000FFFE00000000
0000FFFC00000000
0000FFFC00000000
0001FFFC00000000
0001FFF800000000
0001FFF800000000
0003FFF800000000
0003FFF000000000
0003FFF000000000
0007FFF000000000
0007FFF000000000
0007FFE000000000
000FFFE000000000
000FFFE000000000
000FFFC000000000
001FFFC000000000
001FFFC000000000
001FFFC000000000
003FFF8000000000
003FFF8000000000
003FFF8000000000
007FFF0000000000
007FFF0000000000
007FFF0000000000
00FFFE0000000000
00FFFE0000000000
00FFFE0000000000
01FFFE0000000000
01FFFC0000000000
03FFFC0000000000
03FFFC0000000000
03FFF80000000000
07FFF80000000000
07FFF80000000000
07FFF00000000000
0FFFF00000000000
0FFFF00000000000
0FFFF00000000000
1FFFE00000000000
1FFFE00000000000
1FFFE00000000000
3FFFC00000000000
3FFFC00000000000
3FFFC00000000000
7FFF800000000380
7FFF800000000F80
7FFF800000003F80
FFFF800000003F80
FFFF000000007F80
FFFF000000007F80
FFFF000000007F80
7FFFC0000000FF80
3FFFFE000000FFC0
1FFFFFF80000FFC0
0FFFFFFFE001FFC0
07FFFFFFFFE1FFC0
03FFFFFFFFFFFFC0
01FFFFFFFFFFFFC0
00FFFFFFFFFFFFC0
007FFFFFFFFFFFC0
003FFFFFFFFFFFC0
001FFFFFFFFFFFC0
000FFFFFFFFFFFC0
0007FFFFFFFFFFC0
0003FFFFFFFFC000
0001FFFFFF800000
0000FFFE00000000
00007C0000000000
ENDCHAR
STARTCHAR U
ENCODING 85
SWIDTH 510 0
DWIDTH 84 0
BBX 72 164 6 0
BITMAP
000000000780000000
000000000FF0000000
000000003FFC000000
00000000FFFF800000
00000001FFFFF00000
00000007FFFFFC0000
0000000FFFFFFF0000
0000003FFFFFFF0000
0000007FFFFFFF0000
000001FFFFFFFE0000
000003FFFFFFF80000
00000FFFFFFFE00000
00003FFFFFF8000000
0000FFFFFE00000000
0003FFFFFE00000000
001FFFFFFC00000000
007FFFFFFC00000000
03FFFFFFFC00000000
0FFFFFFFFC00000000
7FFFFFFFFC00000000
FFFFFFFFFC00000000
FFFFFFFFFC00000000
7FFFFFFFFC00000000
3FFFFFFFFC00000000
1FFFFFFFFC00000000
07FFFFFFFC00000000
00FFFFFFFC00000000
000007FFFC00000000
000007FFFC00000000
000007FFFC00000000
000007FFFC00000000
000007FFFC00000000
000007FFFC00000000
000007FFFC00000000
000007FFFC00000000
000007FFFC00000000
000007FFFC00000000
000007FFFC00000000
000007FFF800000000
000007FFF800000000
000007FFF800000000
000007FFF800000000
000007FFF800000000
000007FFF800000000
000007FFF800000000
000007FFF800000000
000007FFF800000000
000007FFF800000000
000007FFF800000000
000007FFF800000000
000007FFF800000000
000007FFF800000000
000007FFF800000000
000007FFF800000000
000007FFF800000000
000007FFF800000000
000007FFF800000000
000007FFF800000000
000007FFF800000000
000007FFF800000000
000007FFF800000000
000007FFF800000000
000007FFF800000000
000007FFF000000000
000007FFF000000000
000007FFF000000000
000007FFF000000000
000003FFF000000000
000003FFF000000000
000003FFF000000000
000003FFF000000000
000003FFF000000000
000003FFF000000000
000003FFF000000000
000003FFF000000000
000003FFF000000000
000003FFF000000000
000003FFF000000000
000003FFF000000000
000003FFF000000000
000003FFF000000000
000003FFF000000000
000003FFF000000000
000003FFF000000000
000003FFF000000000
000003FFF000000000
000003FFF000000000
000003FFF000000000
000003FFFC00000000
000003FFFF80000000
000003FFFFF0000000
000003FFFFFE000000
000003FFFFFF800000
000003FFFFFFF00000
000003FFFFFFFE0000
000003FFFFFFFF8000
000003FFFFFFFFE000
000003FFFFFFFFF000
000003FFFFFFFFE000
000003FFFFFFFFC000
000003FFFFFFFF8000
000003FFFFFFFF0000
000003FFFFFFFC0000
000003FFFFFFC00000
000003FFE000000000
000003FFE000000000
000003FFE000000000
000003FFE000000000
000003FFE000000000
000003FFE000000000
000003FFC000000000
000003FFC000000000
000003FFC000000000
000003FFC000000000
000003FFC000000000
000003FFC000000000
000003FFC000000000
000003FFC000000000
000003FFC000000000
000003FFC000000000
000003FFC000000000
000003FFC000000000
000003FFC000000000
000003FFC000000000
000003FFC000000000
000003FFC000000000
000003FFC000000000
000001FFC000000000
000001FFC000000000
000001FFC000000000
000001FFC000000000
000001FFC000000000
000001FFC000000000
000001FFC000000000
000001FFC000000000
000001FF8000000000
000001FF8000000000
000001FF8000000000
000001FF8000000000
000001FF8000000000
000001FF800000000E
000001FF800000001E
000001FF800000007E
000001FF80000000FE
000001FF80000001FE
000001FF80000001FE
000001FF80000001FE
000001FF80000003FE
000001FF80000003FF
000001FFFF000003FF
000001FFFFFC0003FF
000001FFFFFFF807FF
000001FFFFFFFFE7FF
000001FFFFFFFFFFFF
000000FFFFFFFFFFFF
0000007FFFFFFFFFFF
0000003FFFFFFFFFFF
0000003FFFFFFFFFFF
0000001FFFFFFFFFFF
0000000FFFFFFFFFFF
00000007FFFFFFFFF0
00000003FFFFFFF000
00000003FFFFC00000
00000001FF80000000
ENDCHAR
STARTCHAR V
ENCODING 86
SWIDTH 510 0
DWIDTH 84 0
BBX 68 165 8 0
BITMAP
000000000002000000
00000000000E000000
00000000003E000000
00000000007E000000
0000000001FE000000
0000000007FE000000
000000000FFE000000
000000003FFE000000
000000007FFE000000
00000001FFFE000000
00000007FFFE000000
0000000FFFFE000000
0000000FFFFC000000
0000000FFFFC000000
0000000FFFFC000000
0000000FFFFC000000
00000007FFFC000000
00000007FFFC000000
00000007FFFC000000
00000007FFFC000000
00000007FFFC000000
00000007FFFC000000
00000007FFFC000000
00000007FFFC000000
00000007FFFC000000
00000007FFFC000000
00000007FFFC000000
00000007FFFC000000
00000007FFFC000000
00000007FFFC000000
00000007FFFC000000
00000007FFFC000000
00000007FFFC000000
00000007FFFC000000
00000007FFFFFFF800
00000007FFFFFFFF00
00000007FFFFFFFF80
00000007FFFFFFFFC0
00000007FFFFFFFFE0
00000007FFFFFFFFE0
00000007FFFFFFFFF0
00000007FFFFFFFFC0
00000007FFFFFFFE00
00000007FFFFFFF800
00000007FFFFFFC000
00000007FFFFFE0000
00000007FFFFF80000
00000007FFFFC00000
00000007FFFE000000
00000007FFF8000000
00000007FFF8000000
00000007FFF8000000
00000007FFF8000000
00000007FFF8000000
00000007FFF8000000
00000007FFF8000000
00000007FFF8000000
00000007FFF8000000
00000007FFF8000000
00000007FFFFFFFC00
00000007FFFFFFFF00
00000007FFFFFFFF80
00000007FFFFFFFFC0
00000007FFFFFFFFE0
00000007FFFFFFFFF0
00000007FFFFFFFFF0
00000007FFFFFFFFC0
00000007FFFFFFFE00
00000007FFFFFFF800
00000007FFFFFFC000
00000007FFFFFE0000
00000007FFFFF00000
00000003FFFF800000
00000003FFFC000000
00000003FFF0000000
00000003FFF0000000
00000003FFF0000000
00000003FFF0000000
00000003FFF0000000
00000003FFF0000000
00000003FFF0000000
00000003FFF0000000
00000003FFF0000000
00000003FFF0000000
00000003FFF0000000
00000003FFE0000000
00000003FFE0000000
00000003FFE0000000
00000003FFE0000000
00000003FFE0000000
00000003FFE0000000
00000003FFE0000000
00000003FFE0000000
00000003FFE0000000
00000003FFE0000000
00000003FFE0000000
00000003FFE0000000
00000003FFE0000000
00000003FFE0000000
00000003FFE0000000
00000003FFE0000000
00000003FFE0000000
00000003FFE0000000
00000003FFE0000000
00000003FFE0000000
00000003FFE0000000
00000003FFE0000000
00000003FFE0000000
00000003FFE0000000
00000003FFE0000000
00000003FFE0000000
00000003FFE0000000
00000003FFE0000000
00000003FFE0000000
00000003FFE0000000
00000003FFF8000000
00000003FFFE000000
00000003FFFF800000
00000003FFFFF00000
00000003FFFFFE0000
00000003FFFFFF8000
00000007FFFFFFE000
0000000FFFFFFFF000
0000001FFFFFFFF800
0000003FFFFFFFF800
0000007FFFFFFFFC00
000000FFFFFFFFFC00
000001FFFFFFFFE000
000003FFFFFFFF0000
000007FFFFFFF00000
00000FFFFFFF800000
00001FFFFFFC000000
00003FFFFFE0000000
00007FFFFFC0000000
0000FFFFFFC0000000
0001FFFFFFC0000000
0003FFFFFF80000000
0007FFFFFF80000000
000FFFFFFF80000000
003FFFFFFF80000000
007FFFFFFF80000000
00FFFFFFFF80000000
01FFFFFBFF80000000
03FFFFF3FF80000000
07FFFFC3FF80000000
07FFFF03FF80000000
07FFFE03FF80000000
0FFFF803FF80000000
0FFFE001FF80000000
0FFFC001FF80000000
1FFF0001FF80000000
1FFC0001FF80000000
3FF80001FF00000000
3FE00001FF00000000
3FC00001FF00000000
7F000001FF00000000
7C000001FF00000000
78000001FF00000000
E0000001FF00000000
80000001FE00000000
00000001F800000000
00000001F000000000
00000001C000000000
000000018000000000
000000010000000000
ENDCHAR
STARTCHAR W
ENCODING 87
SWIDTH 510 0
DWIDTH 84 0
BBX 62 164 11 0
BITMAP
0000006000000000
0000007800000000
0000007C00000000
0000007E00000000
0000007F80000000
0000007FC0000000
0000007FE0000000
0000007FE0000000
0000007FE0000000
0000007FE0000000
0000007FE0000000
0000007FE0000000
0000007FE0000000
0000007FE0000000
0000007FE0000000
0000007FE0000000
0000007FE0000000
000000FFE0000000
000000FFE0000000
000000FFE0000000
000000FFE0000000
000000FFE0000000
000000FFE0000000
000000FFE0000000
000000FFE0000000
000000FFE0000000
000000FFF0000000
000000FFF0000000
000000FFF0000000
000000FFF0000000
000000FFF0000000
000000FFF0000000
000000FFF0000000
000000FFF0000000
000000FFF0000000
000000FFF0000000
000000FFF0000000
000000FFF0000000
000000FFF0000000
000000FFF0000000
000000FFF0000000
000000FFF0000000
000000FFF0000000
000000FFF0000000
000000FFF0000000
000000FFF0000000
000000FFF0000000
000000FFF0000000
000001FFF0000000
000001FFF0000000
000001FFF0000000
000001FFF8000000
000001FFF8000000
000001FFF8000000
000001FFF8000000
000001FFF8000000
000001FFF8000000
000001FFF8000000
000001FFF8000000
000001FFF8000000
000001FFF8000000
000001FFF8000000
000001FFF8000000
000001FFF8000000
000001FFF8000000
000000FFFC000000
000000FFFC000000
0000007FFE000000
0000007FFE000000
0000007FFE000000
0000003FFF000000
0000003FFF000000
0000001FFF800000
0000001FFF800000
0000001FFFC00000
0000000FFFC00000
0000000FFFC00000
00000007FFE00000
00000007FFE00000
00000003FFF00000
00000003FFF00000
00000003FFF00000
00000001FFF80000
00000001FFF80000
00000000FFFC0000
00000000FFFC0000
00000000FFFE0000
000000007FFE0000
000000007FFE0000
000000003FFF0000
000000003FFF0000
000000001FFF8000
000000001FFF8000
000000001FFF8000
000000000FFFC000
000000000FFFC000
0000000007FFE000
0000000007FFE000
0000000007FFF000
0000000003FFF000
0000000003FFF000
0000000001FFF800
0000000001FFF800
0000000000FFFC00
0000000000FFFC00
0000000000FFFC00
00000000007FFE00
00000000007FFE00
00000000003FFF00
00000000003FFF00
00000000003FFF80
00000000001FFF80
00000000001FFF80
00000000000FFFC0
00000000000FFFC0
000000000007FFE0
000000000007FFE0
000000000007FFE0
000000000003FFF0
000000000003FFF0
000000000003FFF0
000000000003FFF0
000000000007FFF0
000000000007FFF0
000000000007FFF0
000000000007FFF0
000000000007FFF8
000000000007FFF8
000000000007FFF8
000000000007FFF8
000000000007FFF8
000000000007FFF8
000000000007FFF8
000000000007FFF8
00000000000FFFF8
00000000000FFFF8
00000000000FFFF8
00000000000FFFF8
00000000000FFFF8
20000000000FFFF8
38000000000FFFFC
3C000000000FFFFC
3F000000000FFFFC
3F800000000FFFFC
3FC00000000FFFFC
7FC00000000FFFFC
7FC00000001FFFFC
7FC00000001FFFFC
7FE0000000FFFFF8
7FE000003FFFFFF0
7FE0001FFFFFFFE0
7FF01FFFFFFFFFC0
7FFFFFFFFFFFFF80
7FFFFFFFFFFFFF00
FFFFFFFFFFFFFC00
FFFFFFFFFFFFF800
FFFFFFFFFFFFF000
FFFFFFFFFFFFC000
FFFFFFFFFFFF8000
FFFFFFFFFFFF0000
07FFFFFFFFFE0000
0003FFFFFFF80000
000001FFFFF00000
000000003FE00000
ENDCHAR
STARTCHAR X
ENCODING 88
SWIDTH 510 0
DWIDTH 84 0
BBX 68 164 8 0
BITMAP
0000000000007C0000
000000000001FF0000
000000000003FFE000
00000000000FFFFC00
00000000001FFFFF00
00000000007FFFFFE0
0000000001FFFFFFF0
0000000003FFFFFFF0
000000000FFFFFFFE0
000000001FFFFFFFC0
000000007FFFFFFF80
000000007FFFFFFC00
000000007FFFFE0000
000000007FFFE00000
000000007FFFE00000
000000007FFFE00000
000000007FFFE00000
000000007FFFE00000
000000007FFFE00000
000000003FFFE00000
000000003FFFE00000
000000003FFFE00000
000000003FFFE00000
000000003FFFE00000
000000003FFFE00000
000000003FFFE00000
000000003FFFE00000
000000003FFFE00000
000000003FFFE00000
000000003FFFE00000
000000003FFFE00000
000000003FFFE00000
000000003FFFE00000
000000003FFFE00000
000000003FFFE00000
000000003FFFE00000
000000003FFFE00000
000000003FFFE00000
000000001FFFE00000
000000001FFFE00000
000000001FFFE00000
000000001FFFE00000
000000001FFFE00000
000000001FFFE00000
000000001FFFE00000
000000001FFFE00000
000000001FFFE00000
000000001FFFE00000
000000001FFFE00000
000000001FFFE00000
000000001FFFE00000
000000001FFFE00000
000000001FFFE00000
000000001FFFE00000
000000001FFFE00000
000000001FFFE00000
000000001FFFE00000
000000001FFFE00000
000000001FFFE00000
000000000FFFE00000
000000000FFFE00000
000000000FFFE00000
000000000FFFE00000
000000000FFFE00000
000000000FFFE00000
000000000FFFE00000
000000000FFFE00000
000000000FFFE00000
000000000FFFE00000
000000000FFFE00000
000000000FFFE00000
000000000FFFE00000
000000000FFFE00000
000000000FFFE00000
000000000FFFE00000
000000000FFFE00000
000000000FFFC00000
000000000FFFC00000
000000000FFFC00000
000000000FFFC00000
000000000FFFC00000
000000000FFFC00000
0000000007FFC00000
0000000007FFC00000
0000000007FFC00000
0000000007FFC00000
0000000007FFC00000
0000000007FFC00000
0000000007FFC00000
0000000007FFC00000
0000000007FFC00000
0000000007FFC00000
0000000007FFC00000
0000000007FFC00000
0000000007FFC00000
0000000007FFC00000
0000000007FFC00000
0000000007FFC00000
0000000007FFC00000
0000000007FFC00000
0000000007FFC00000
0000000007FFC00000
0000000007FFC00000
0000000007FFC00000
0000000007FFC00000
0000000007FFC00000
0000000007FFC00000
0000000007FFC00000
0000000003FFC00000
0000000003FFC00000
0000000003FFC00000
0000000003FFC00000
0000000003FFC00000
0000000003FFC00000
0000000003FFC00000
0000000003FFC00000
0000000003FFC00000
0000000003FFC00000
0000000003FFC00000
0000000003FFC00000
0000000003FFC00000
0000000003FFC00000
0000000003FFC00000
0000000003FFC00000
0000000003FFC00000
0000000003FFC00000
0000000003FFC00000
0000000003FFC00000
0000000003FFC00000
0000000003FFC00000
0000000003FFC00000
0000000003FFC00000
0000000003FFC00000
0000000003FFC00000
0000000003FFC00000
0000000003FFC00000
0000000001FFC00000
0000000001FFC00000
0000000001FFC00000
2000000001FFC00000
3800000001FF800000
7C00000001FF800000
7F00000001FF800000
7F00000001FF800000
7F80000001FF800000
7F80000001FF800000
7FC0000001FF800000
7FC0000003FF800000
7FC000001FFF800000
FFC0000FFFFF800000
FFE007FFFFFF800000
FFE1FFFFFFFF800000
FFFFFFFFFFFF800000
FFFFFFFFFFFF000000
FFFFFFFFFFFE000000
FFFFFFFFFFFE000000
FFFFFFFFFFFC000000
FFFFFFFFFFF8000000
FFFFFFFFFFF0000000
3FFFFFFFFFE0000000
003FFFFFFFE0000000
00001FFFFFC0000000
0000000FFF80000000
000000000300000000
ENDCHAR
STARTCHAR Y
ENCODING 89
SWIDTH 510 0
DWIDTH 84 0
BBX 36 164 24 0
BITMAP
0000700000
0000FC0000
0003FF8000
0007FFF000
001FFFFC00
007FFFFF80
00FFFFFFE0
03FFFFFFF0
07FFFFFFE0
1FFFFFFFC0
7FFFFFFF80
FFFFFFFE00
FFFFFFC000
FFFFE00000
FFFF800000
FFFF000000
FFFF000000
FFFF000000
FFFF000000
FFFF000000
FFFF000000
7FFF000000
7FFF000000
7FFF000000
7FFF000000
7FFF000000
7FFF000000
7FFF000000
7FFF000000
7FFF000000
7FFF000000
7FFE000000
7FFE000000
7FFE000000
7FFE000000
7FFE000000
7FFE000000
7FFE000000
7FFE000000
7FFE000000
7FFE000000
7FFE000000
7FFE000000
7FFE000000
7FFE000000
7FFE000000
7FFE000000
7FFE000000
7FFE000000
7FFE000000
7FFE000000
7FFE000000
7FFE000000
7FFC000000
7FFC000000
7FFC000000
7FFC000000
7FFC000000
7FFC000000
7FFC000000
7FFC000000
7FFC000000
7FFC000000
7FFC000000
7FFC000000
7FFC000000
7FFC000000
7FFC000000
7FFC000000
7FFC000000
7FFC000000
7FFC000000
7FFC000000
7FFC000000
7FFC000000
7FFC000000
7FFC000000
7FFC000000
7FFC000000
7FFC000000
7FFC000000
7FFC000000
7FFC000000
7FFC000000
7FFC000000
7FFC000000
3FFC000000
3FFC000000
3FFF000000
3FFFE00000
3FFFF80000
3FFFFF0000
3FFFFFE000
3FFFFFF800
3FFFFFFF00
3FFFFFFFC0
3FFFFFFFC0
3FFFFFFFC0
3FFFFFFF80
3FFFFFFF00
3FFFFFFE00
3FFFFFF800
3FFFFF8000
3FF8000000
3FF8000000
3FF8000000
3FF8000000
3FF8000000
3FF8000000
3FF8000000
3FF8000000
3FF8000000
3FF8000000
3FF8000000
3FF8000000
3FF8000000
3FF8000000
3FF8000000
3FF0000000
3FF0000000
3FF0000000
3FF0000000
3FF0000000
3FF0000000
3FF0000000
3FF0000000
3FF0000000
3FF0000000
3FF0000000
3FF0000000
3FF0000000
3FF0000000
3FF0000000
3FF0000000
3FF0000000
3FF0000000
3FF0000000
3FF0000000
3FF0000000
3FF0000000
3FF0000000
3FF0000000
3FF0000000
3FE0000000
3FE0000000
3FE0000000
3FE0000000
3FE0000000
3FE0000000
3FE0000000
3FE0000000
3FE0000000
3FE0000000
3FE0000000
3FE0000000
3FE0000000
3FE0000000
3FE0000000
3FE0000000
3FE0000000
1FE0000000
07C0000000
03C0000000
00C0000000
ENDCHAR
STARTCHAR Z
ENCODING 90
SWIDTH 510 0
DWIDTH 84 0
BBX 60 164 12 0
BITMAP
0003F00000000000
001FFC0000000000
00FFFE0000000000
03FFFF8000000000
1FFFFFE000000000
7FFFFFF000000000
7FFFFFFC00000000
7FFFFFFF00000000
3FFFFFFF80000000
1FFFFFFFE0000000
03FFFFFFF0000000
001FFFFFF0000000
00003FFFF0000000
00000FFFF0000000
00000FFFF0000000
00000FFFF0000000
00000FFFF0000000
000007FFF0000000
000007FFF0000000
000007FFF0000000
000007FFF0000000
000007FFF0000000
000007FFF0000000
000007FFF0000000
000007FFF0000000
000007FFF0000000
000007FFF0000000
000007FFF0000000
000007FFF0000000
000007FFF0000000
000007FFF0000000
000007FFF0000000
000007FFF0000000
000007FFF0000000
000007FFF0000000
000007FFF0000000
000007FFF0000000
000007FFF0000000
000007FFF0000000
000007FFF0000000
000007FFE0000000
000007FFE0000000
000007FFE0000000
000003FFE0000000
000003FFE0000000
000003FFE0000000
000003FFE0000000
000003FFE0000000
000003FFE0000000
000003FFE0000000
000003FFE0000000
000003FFE0000000
000003FFE0000000
000003FFE0000000
000003FFE0000000
000003FFE0000000
000003FFE0000000
000003FFE0000000
000003FFE0000000
000003FFE0000000
000003FFE0000000
000003FFE0000000
000003FFE0000000
000003FFE0000000
000003FFE0000000
000003FFE0000000
000003FFE0000000
000003FFE0000000
000003FFE0000000
000001FFE0000000
000001FFE0000000
000001FFE0000000
000001FFE0000000
000001FFE0000000
000001FFE0000000
000001FFE0000000
000001FFE0000000
000001FFE0000000
000001FFE0000000
000001FFE0000000
000001FFE0000000
000001FFE0000000
000001FFE0000000
000001FFE0000000
000001FFE0000000
000001FFE0000000
000001FFE0000000
000001FFE0000000
000001FFE0000000
000001FFE0000000
000001FFE0000000
000001FFE0000000
000001FFE0000000
000001FFE0000000
000001FFE0000000
000001FFE0000000
000001FFE0000000
000001FFC0000000
000001FFC0000000
000001FFC0000000
000001FFC0000000
000001FFC0000000
000001FFC0000000
000001FFC0000000
000001FFC0000000
000000FFC0000000
000000FFC0000000
000000FFC0000000
000000FFC0000000
000000FFC0000000
000000FFC0000000
000000FFC0000000
000001FFC0000000
00000FFFC0000030
00007FFFC0000070
0003FFFFC00000E0
000FFFFFC00001E0
007FFFFFC00003E0
03FFFFFFC0000FE0
1FFFFFFFC0001FC0
7FFFFFFFC0003FC0
FFFFFFFFC0007FC0
7FFFFFFFC000FFC0
3FFFFFFFC001FF80
3FFFFFFFC003FF80
0FFFFFFFC00FFF80
03FFFFFFC01FFF00
0013FFFFC03FFF00
000000FFC07FFF00
000000FFC07FFF00
000000FFC07FFE00
000000FFC07FFE00
000000FFC07FFE00
000000FFC07FFE00
000000FFC03FFC00
000000FFC03FFC00
000000FFC03FFC00
000000FFC03FFC00
000000FFC03FF800
000000FFC03FF800
000000FFC01FF800
000000FFC01FF000
000000FFC01FF000
0000007FC01FF000
0000007FC01FF000
0000007FC00FE000
0000007FC00FE000
0000007F800FE000
0000007F800FE000
0000007F800FC000
0000007F800FC000
0000007F8007C000
0000007F80078000
0000007F80078000
0000007F80078000
0000007F80078000
0000007F80030000
0000007F80030000
0000007F80030000
0000007F80030000
0000007F00000000
0000007C00000000
0000003000000000
0000002000000000
ENDCHAR
STARTCHAR underscore
ENCODING 95
SWIDTH 510 0
DWIDTH 84 0
BBX 61 26 12 1
BITMAP
0000000000000060
00000000000001E0
00000000000003E0
0000000000000FF0
0000000000000FF0
0000000000000FF0
0000000000001FF0
0000000000001FF0
0000000000001FF0
0000000000003FF0
0000001FFFFFFFF0
000FFFFFFFFFFFF0
003FFFFFFFFFFFF8
007FFFFFFFFFFFF8
00FFFFFFFFFFFFF8
01FFFFFFFFFFFFF8
01FFFFFFFFFFFFF8
03FFFFFFFFFFFFF8
07FFFFFFFFFFFFF8
0FFFFFFFFFFFFFF8
1FFFFFFFFFFFFFF8
1FFFFFFFFFFFFFF0
3FFFFFFFFFE00000
7FFFFFF000000000
FFFF000000000000
F000000000000000
ENDCHAR
STARTCHAR a
ENCODING 97
SWIDTH 510 0
DWIDTH 84 0
BBX 50 164 17 -1
BITMAP
00000400000000
00000C00000000
00000C00000000
00001C00180000
00001C001C0000
00003C001E0000
00003C001F8000
00007C001FC000
00007C001FE000
0000FC001FF000
0000FC001FF000
0001FC001FF000
0001FC001FF000
0001FC001FF000
0003FC001FF000
0003FC001FF800
0003FC001FF800
0003FC001FF800
0003FC001FF800
0007FC001FF800
0007FC001FF800
0007FC001FF800
0007FC001FF800
0007FC001FF800
000FFC001FF800
000FFC001FF800
000FFC001FF800
000FFC001FF800
000FFC003FF800
001FFC003FF800
001FFC003FF800
001FFC003FF800
001FFC003FF800
001FFC003FF800
003FFC003FF800
003FFC003FF800
003FFC003FF800
003FFC003FF800
003FFC003FF800
003FFC003FF800
007FFC003FFC00
007FFC003FFC00
007FFC003FFC00
007FFC003FFC00
007FFC003FFC00
00FFFC003FFC00
00FFFC003FFC00
00FFFC003FFC00
00FFFC003FFC00
00FFFC003FFC00
01FFFC003FFC00
01FFFC003FFC00
01FFFC003FFC00
01FFFC003FFC00
01FFFC003FFC00
03FFFC003FFC00
03FFFC003FFC00
03FFFC003FFC00
03FFFC003FFC00
03FFFC003FFC00
07FFFC003FFC00
07FFFC003FFC00
07FFFC003FFC00
07FFFC003FFE00
07FFFC003FFE00
07FFFC003FFE00
0FFFFC003FFE00
0FFFFC003FFE00
0FFFFC003FFE00
0FFFFC003FFE00
0FFFFC003FFE00
1FFFFC003FFE00
1FFFFC003FFE00
1FFFFC003FFE00
1FFFFC003FFE00
1FFFFC003FFE00
3FFFFC003FFE00
3FFFFC003FFE00
3FFFFC003FFE00
3FFFFC003FFE00
3FFFFC003FFE00
7FFFFC003FFE00
7FFFFC003FFE00
7FFFFC003FFE00
7FFFFC003FFE00
7FC7FC003FFE00
7F07FC003FFF00
FC07FC003FFF00
F007FC003FFF00
E007FC003FFF00
8007FC003FFF00
0007FC003FFF00
0007FC003FFF00
0007FC003FFF00
0003FC003FFF00
0003FC003FFF00
0003FC003FFF00
0003FC003FFF00
0003FC007FFF00
0003FC007FFF00
0003FC007FFF00
0003FC007FFF00
0003FC007FFF00
0003FC007FFF00
0003FC007FFF00
0003FC007FFF00
0003FC007FFF00
0003FC007FFF00
0003FC007FFF00
0001FC007FFF00
0001FC007FFF80
0001FC007FFF80
0001FC007FFF80
0001FC007FFF80
0001FC007FFF80
0001FC007FFF80
0001FC007FFF80
0001FC007FFF80
00003C007FFF80
000004007FFF80
000000007FFF80
000000007FFF80
000000007FFF80
000000007FFF80
000000007FFF80
000000007FFF80
000000007FFF80
000000007FFF80
000000007FFF80
000000007FFF80
000000007FFF80
000000007FFF80
000000007FFF80
000000007FFF80
000000007FFF80
000000007FFFC0
000000007FFFC0
000000007FFFC0
000000007FFFC0
000000007FFFC0
000000007FFFC0
000000007FFFC0
000000007FFFC0
000000007FFFC0
000000007FFFC0
000000007FFFC0
000000007FFFC0
000000007FFFC0
000000007FFFC0
000000007FFFC0
000000007FFFC0
000000007FFFC0
000000007FFFC0
000000003FFFC0
000000001FFFC0
0000000007FFC0
0000000003FFC0
0000000000FFC0
00000000007FC0
00000000001FC0
000000000007C0
000000000003C0
000000000000C0
00000000000040
ENDCHAR
STARTCHAR b
ENCODING 98
SWIDTH 510 0
DWIDTH 84 0
BBX 52 165 16 0
BITMAP
00000000400000
00000001F80000
00000003FF0000
0000000FFFC000
0000001FFFF800
0000007FFFFF00
000001FFFFFFC0
000003FFFFFFE0
00000FFFFFFFE0
00003FFFFFFFC0
00007FFFFFFF80
0000FFFFFFFE00
0000FFFFFFE000
0000FFFFF80000
0000FFFF800000
0000FFFF800000
0000FFFF800000
0000FFFF800000
0000FFFF800000
0000FFFF800000
0000FFFF800000
0000FFFF800000
0000FFFF800000
0000FFFF800000
0000FFFF800000
0000FFFF800000
0000FFFF800000
0000FFFF800000
0000FFFF800000
0000FFFF800000
0000FFFF800000
0000FFFF000000
0000FFFF000000
0000FFFF000000
0000FFFF000000
0000FFFF000000
0000FFFF000000
0000FFFF000000
0000FFFF000000
0000FFFF000000
0000FFFF000000
0000FFFF000000
0000FFFF000000
0000FFFF000000
0000FFFF000000
0000FFFF000000
0000FFFF000000
0000FFFF000000
0000FFFF000000
0000FFFFC00000
0000FFFFF00000
0000FFFFFE0000
0000FFFFFF8000
0000FFFFFFF000
0000FFFFFFFC00
0000FFFFFFFF80
0000FFFFFFFFF0
0000FFFFFFFFF0
0000FFFFFFFFF0
0000FFFFFFFFE0
0000FFFFFFFFC0
0000FFFFFFFF80
0000FFFFFFFE00
0000FFFFFF8000
0000FFFE000000
0000FFFE000000
0000FFFE000000
0000FFFE000000
0000FFFE000000
0000FFFE000000
0000FFFE000000
0000FFFE000000
0000FFFE000000
0000FFFE000000
0000FFFE000000
0000FFFE000000
0000FFFE000000
0000FFFE000000
0000FFFC000000
0000FFFC000000
0000FFFC000000
0000FFFC000000
0000FFFC000000
0000FFFC000000
0000FFFC000000
0000FFFC000000
0000FFFC000000
0000FFFC000000
0000FFFC000000
0000FFFC000000
0000FFFC000000
0000FFFC000000
0000FFFC000000
0000FFFC000000
C000FFFC000000
E0007FFC000000
70007FFC000000
7C007FFC000000
7E007FFC000000
7F007FFC000000
7F807FFC000000
3FE07FFC000000
3FF07FF8000000
3FF87FF8000000
3FFE7FF8000000
1FFF7FF8000000
1FFFFFF8000000
1FFFFFF8000000
1FFFFFF8000000
0FFFFFF8000000
0FFFFFF8000000
0FFFFFF8000000
0FFFFFF8000000
07FFFFF8000000
07FFFFF8000000
07FFFFF8000000
07FFFFF8000000
03FFFFF8000000
03FFFFF8000000
03FFFFF8000000
03FFFFF8000000
01FFFFF8000000
01FFFFF8000000
01FFFFF8000000
01FFFFF8000000
00FFFFF0000000
00FFFFF0000000
00FFFFF0000000
00FFFFF0000000
007FFFF0000000
007FFFF0000000
007FFFF0000000
007FFFF0000000
003FFFF0000000
003FFFF0000000
003FFFF0000000
003FFFF0000000
001FFFF0000000
001FFFF0000000
001FFFF0000000
001FFFF0000000
000FFFF0000000
000FFFF0000000
000FFFF0000000
000FFFF0000000
0007FFF0000000
0007FFF0000000
0007FFF0000000
0007FFF0000000
0003FFE0000000
0003FFE0000000
0003FFE0000000
0003FFE0000000
0001FFE0000000
0001FFE0000000
0001FFE0000000
0001FFE0000000
0000FFE0000000
0000FFE0000000
0000FFC0000000
0000FF80000000
00007E00000000
00007C00000000
00007800000000
00006000000000
ENDCHAR
STARTCHAR c
ENCODING 99
SWIDTH 510 0
DWIDTH 84 0
BBX 52 164 16 0
BITMAP
00007800000000
0001FF00000000
0007FFC0000000
000FFFF8000000
003FFFFF000000
00FFFFFFC00000
01FFFFFFF00000
07FFFFFFE00000
0FFFFFFFE00000
3FFFFFFFC00000
FFFFFFFF000000
FFFFFFF8000000
FFFFFE00000000
FFFFC000000000
FFFFC000000000
FFFFC000000000
FFFFC000000000
FFFFC000000000
FFFFC000000000
FFFFC000000000
FFFFC000000000
FFFFC000000000
FFFFC000000000
FFFFC000000000
FFFFC000000000
FFFFC000000000
FFFFC000000000
7FFF8000000000
7FFF8000000000
7FFF8000000000
7FFF8000000000
7FFF8000000000
7FFF8000000000
7FFF8000000000
7FFF8000000000
7FFF8000000000
7FFF8000000000
7FFF8000000000
7FFF8000000000
7FFF8000000000
7FFF8000000000
7FFF8000000000
7FFF8000000000
7FFF8000000000
7FFF8000000000
7FFF8000000000
7FFF8000000000
7FFF8000000000
7FFF8000000000
7FFF0000000000
7FFF0000000000
7FFF0000000000
7FFF0000000000
7FFF0000000000
7FFF0000000000
7FFF0000000000
7FFF0000000000
7FFF0000000000
7FFF0000000000
7FFF0000000000
7FFF0000000000
7FFF0000000000
7FFF0000000000
7FFF0000000000
7FFF0000000000
7FFF0000000000
7FFF0000000000
7FFF0000000000
7FFF0000000000
7FFF0000000000
7FFF0000000000
7FFF0000000000
7FFF0000000000
7FFF0000000000
7FFE0000000000
7FFE0000000000
7FFE0000000000
7FFE0000000000
7FFE0000000000
7FFE0000000000
7FFE0000000000
7FFE0000000000
7FFE0000000000
7FFE0000000000
7FFE0000000000
7FFE0000000000
7FFE0000000000
7FFE0000000000
7FFE0000000000
7FFE0000000000
7FFE0000000000
7FFE0000000000
7FFE0000000000
7FFE0000000000
7FFE0000000000
7FFE0000000000
7FFE0000000000
7FFE0000000000
7FFC0000000000
7FFC0000000000
3FFC0000000000
3FFC0000000000
3FFC0000000000
3FFC0000000000
3FFC0000000000
3FFC0000000000
3FFC0000000000
3FFC0000000000
3FFC0000000000
3FFC0000000000
3FFC0000000000
3FFC0000000000
3FFC0000000000
3FFC0000000000
3FFC0000000000
3FFC0000000000
3FFC0000000000
3FFC0000000000
3FFC0000000000
3FFC0000000000
3FFC0000000000
3FFC0000000000
3FFC0000000000
3FFC0000000000
3FFC0000000000
3FF80000000000
3FF80000000000
3FF80000000000
3FF80000000000
3FF80000000000
3FF80000000000
3FF80000000000
3FF80000000000
3FF80000000000
3FF80000000000
3FF80000000000
3FF80000000000
3FF80000000000
3FF80000000000
3FF80000000040
3FF800000001C0
3FF800000003C0
3FF80000000FC0
3FF80000001FE0
3FF80000001FE0
3FF80000003FE0
3FF80000003FE0
3FF80000003FE0
3FFF0000003FE0
3FFFFE00007FE0
1FFFFFFC007FE0
1FFFFFFFF87FE0
1FFFFFFFFFFFE0
0FFFFFFFFFFFF0
0FFFFFFFFFFFF0
07FFFFFFFFFFF0
03FFFFFFFFFFF0
01FFFFFFFFFFF0
01FFFFFFFFFFF0
00FFFFFFFFFFC0
007FFFFFFF8000
003FFFFF800000
001FFE00000000
001C0000000000
ENDCHAR
STARTCHAR d
ENCODING 100
SWIDTH 510 0
DWIDTH 84 0
BBX 62 165 11 -2
BITMAP
0000000000080000
00000000003E0000
00000000007FC000
0000000001FFF800
0000000007FFFE00
020000000FFFFFC0
030000003FFFFFF8
03C000007FFFFFFC
03E00001FFFFFFF8
03F00003FFFFFFF0
03FC000FFFFFFFE0
03FE001FFFFFFF80
03FE001FFFFFF800
07FE001FFFFE0000
07FE001FFFF00000
07FE001FFFF00000
07FE001FFFF00000
07FE001FFFF00000
07FE001FFFF00000
07FE001FFFF00000
07FE001FFFF00000
07FE001FFFF00000
07FE001FFFF00000
07FE001FFFF00000
07FE001FFFF00000
07FE001FFFE00000
07FE001FFFE00000
07FE001FFFE00000
07FE001FFFE00000
07FE001FFFE00000
07FE001FFFE00000
07FE001FFFE00000
07FE001FFFE00000
07FE001FFFE00000
07FE001FFFE00000
07FE001FFFE00000
07FE001FFFE00000
07FE001FFFE00000
0FFE001FFFE00000
0FFE001FFFE00000
0FFE001FFFE00000
0FFE001FFFE00000
0FFE001FFFE00000
0FFF001FFFE00000
0FFF001FFFE00000
0FFF001FFFE00000
0FFF001FFFE00000
0FFF001FFFC00000
0FFF001FFFC00000
0FFF001FFFC00000
0FFF001FFFC00000
0FFF001FFFC00000
0FFF001FFFC00000
0FFF001FFFC00000
0FFF001FFFC00000
0FFF001FFFC00000
0FFF001FFFC00000
0FFF001FFFC00000
0FFF001FFFC00000
0FFF001FFFC00000
0FFF001FFFC00000
0FFF001FFFC00000
0FFF001FFFC00000
0FFF001FFFC00000
1FFF001FFFC00000
1FFF001FFFC00000
1FFF001FFFC00000
1FFF001FFFC00000
1FFF001FFFC00000
1FFF001FFFC00000
1FFF001FFFC00000
1FFF001FFF800000
1FFF001FFF800000
1FFF001FFF800000
1FFF001FFF800000
1FFF001FFF800000
1FFF001FFF800000
1FFF001FFF800000
1FFF001FFF800000
1FFF001FFF800000
1FFF001FFF800000
1FFF001FFF800000
1FFF001FFF800000
1FFF001FFF800000
1FFF001FFF800000
1FFF001FFF800000
1FFF001FFF800000
1FFF001FFF800000
1FFF001FFF800000
1FFF801FFF800000
3FFF800FFF800000
3FFF800FFF800000
3FFF800FFF800000
3FFF800FFF800000
3FFF800FFF000000
3FFF800FFF000000
3FFF800FFF000000
3FFF800FFF000000
3FFF800FFF000000
3FFF800FFF000000
3FFF800FFF000000
3FFF800FFF000000
3FFF800FFF000000
3FFF800FFF000000
3FFF800FFF000000
3FFF800FFF000000
3FFF800FFF000000
3FFF800FFF000000
3FFF800FFF000000
3FFF800FFF000000
3FFF800FFF000000
3FFF800FFF000000
3FFF800FFF000000
3FFF800FFF000000
3FFF800FFF000000
3FFF800FFF000000
3FFF800FFF000000
3FFF800FFE000000
7FFF800FFE000000
7FFF800FFE000000
7FFF800FFE000000
7FFF800FFE000000
7FFF800FFE000000
7FFF800FFE000000
7FFF800FFE000000
7FFF800FFE000000
7FFF800FFE000000
7FFF800FFE000000
7FFF800FFE000000
7FFF800FFE000000
7FFF800FFE000000
7FFFC00FFE000000
7FFFC00FFE000000
7FFFC00FFE000000
7FFFC00FFE000000
7FFFC00FFE000000
7FFFC00FFE000000
7FFFC00FFE000000
7FFFC00FFE000180
7FFFC00FFE000780
7FFFC00FFE000F80
7FFFC00FFC003F80
7FFFC00FFC007F80
7FFFC00FFC00FF80
7FFFC00FFC00FF80
7FFFC00FFC00FF80
7FFFC00FFC00FF80
7FFFF80FFC01FF80
7FFFFFFFFC01FF80
7FFFFFFFFC01FF80
FFFFFFFFFF03FF80
FFFFFFFFFFFFFF80
FFFFFFFFFFFFFF80
7FFFFFFFFFFFFF80
7FFFFFFFFFFFFF80
3FFFFFFFFFFFFF80
1FFFFFFFFFFFFF80
07FFFFFFFFFFFF80
03FFFFFFFFFFFF80
01FFFFFFFFFFE000
00FFFFFFFFF00000
007FFFFFF8000000
003FFFFC00000000
001FFF0000000000
000F800000000000
ENDCHAR
STARTCHAR e
ENCODING 101
SWIDTH 510 0
DWIDTH 84 0
BBX 56 165 14 -1
BITMAP
00000000070000
000000001FE000
000000003FFC00
00000000FFFF80
00000003FFFFE0
00000007FFFFFC
0000001FFFFFFF
0000003FFFFFFF
000000FFFFFFFE
000001FFFFFFFC
000003FFFFFFF8
00000FFFFFFFE0
00001FFFFFF800
00007FFFFC0000
0001FFFFFC0000
000FFFFFFC0000
007FFFFFFC0000
01FFFFFFFC0000
0FFFFFFFFC0000
3FFFFFFFFC0000
FFFFFFFFFC0000
FFFFFFFFFC0000
7FFFFFFFFC0000
3FFFFFFFFC0000
1FFFFFFFFC0000
07FFFFFFF80000
01FFFFFFF80000
00000FFFF80000
00000FFFF80000
00000FFFF80000
00000FFFF80000
00000FFFF80000
00000FFFF80000
00000FFFF80000
00000FFFF80000
00000FFFF80000
00000FFFF80000
00000FFFF80000
00000FFFF80000
00000FFFF80000
00000FFFF80000
00000FFFF80000
00000FFFF80000
00000FFFF80000
00000FFFF80000
00000FFFF80000
00000FFFF80000
00000FFFF80000
00000FFFF00000
000007FFF00000
000007FFF00000
000007FFF00000
000007FFF00000
000007FFF00000
000007FFF00000
000007FFF00000
000007FFF00000
000007FFF00000
000007FFF00000
000007FFF00000
000007FFF00000
000007FFF00000
000007FFF00000
000007FFF00000
000007FFF00000
000007FFF00000
000007FFF00000
000007FFF00000
000007FFF00000
000007FFF00000
000007FFF00000
000007FFF00000
000007FFE00000
000007FFE00000
000007FFE00000
000007FFE00000
000007FFE00000
000007FFE00000
000007FFE00000
000007FFE00000
000007FFE00000
000007FFE00000
000007FFE00000
000007FFE00000
000007FFE00000
000007FFE00000
000007FFE00000
000007FFE00000
000007FFE00000
000007FFE00000
000007FFE00000
000007FFE00000
000007FFE00000
000007FFE00000
000007FFE00000
000007FFE00000
000007FFC00000
000007FFC00000
000007FFC00000
000007FFC00000
000007FFC00000
000007FFC00000
000007FFC00000
000007FFC00000
000007FFC00000
000007FFC00000
000007FFC00000
000007FFC00000
000007FFC00000
000007FFC00000
000007FFC00000
000007FFC00000
000003FFC00000
000003FFC00000
000003FFC00000
000003FFC00000
000003FFC00000
000003FFC00000
000003FFC00000
000003FFC00000
000003FF800000
000003FF800000
000003FF800000
000003FF800000
000003FF800000
000003FF800000
000003FF800000
000003FF800000
000003FF800000
000003FF800000
000003FF800000
000003FF800000
000003FF800000
000003FF800000
000003FF800000
000003FF800000
000003FF800000
000003FF800000
000003FF800000
000003FF800000
000003FF800000
000003FF800000
000003FF800000
000003FF800000
000003FF000000
000003FF000000
000003FF000000
000003FF000000
000003FF000000
000003FF000000
000003FF000000
000003FF000000
000003FF000000
000003FF000000
000003FF000000
000003FF000000
000003FF000000
000003FF000000
000003FF000000
000003FE000000
000003F8000000
000003F0000000
000003E0000000
00000380000000
00000300000000
ENDCHAR
STARTCHAR f
ENCODING 102
SWIDTH 510 0
DWIDTH 84 0
BBX 74 165 5 1
BITMAP
00000008000000000000
0000003FE00000000000
0000007FFFC000000000
000000FFFFFF80000000
000001FFFFFFFE000000
000003FFFFFFFFF80000
000007FFFFFFFFFFE000
00000FFFFFFFFFFFFF80
00003FFFFFFFFFFFFFC0
00007FFFFFFFFFFFFFC0
0000FFFFFFFFFFFFFFC0
0001FFFFFFFFFFFFFF80
0003FFFFFFFFFFFFFF80
0003FFFFFFFFFFFFFF80
0003FFFFFFFFFFFFFF80
0003FFFFFFFFFF87FF80
0003FFFFFFFFC003FF80
0003FFFFFFE00003FF80
0003FFFFF8000003FF80
0003FFFF00000001FF80
0003FFFF00000001FF80
0003FFFF00000001FF80
0003FFFF00000001FF80
0003FFFF00000000FF80
0003FFFF000000007F80
0003FFFF000000003F80
0003FFFF000000000F80
0001FFFF000000000300
0001FFFF000000000000
0001FFFF000000000000
0001FFFF000000000000
0001FFFF000000000000
0001FFFF000000000000
0001FFFF000000000000
0001FFFF000000000000
0001FFFF000000000000
0001FFFF000000000000
0001FFFF000000000000
0001FFFF000000000000
C001FFFF000000000000
7001FFFF000000000000
7801FFFF000000000000
7C01FFFF000000000000
7F01FFFF000000000000
7F81FFFF000000000000
3FC1FFFF000000000000
3FF1FFFF000000000000
3FF9FFFF000000000000
3FFDFFFE000000000000
1FFEFFFE000000000000
1FFFFFFE000000000000
1FFFFFFE000000000000
1FFFFFFE000000000000
0FFFFFFE000000000000
0FFFFFFE000000000000
0FFFFFFE000000000000
0FFFFFFE000000000000
07FFFFFE000000000000
07FFFFFE000000000000
07FFFFFE000000000000
07FFFFFE000000000000
07FFFFFE000000000000
03FFFFFE000000000000
03FFFFFE000000000000
03FFFFFE000000000000
03FFFFFE000000000000
01FFFFFE000000000000
01FFFFFE000000000000
01FFFFFE000000000000
01FFFFFE000000000000
00FFFFFE000000000000
00FFFFFE000000000000
00FFFFFE000000000000
00FFFFFE000000000000
007FFFFE000000000000
007FFFFE000000000000
007FFFFE000000000000
007FFFFE000000000000
003FFFFE000000000000
003FFFFE000000000000
003FFFFE000000000000
003FFFFC000000000000
001FFFFC000000000000
001FFFFC000000000000
001FFFFC000000000000
001FFFFC000000000000
000FFFFC000000000000
000FFFFC000000000000
000FFFFC000000000000
000FFFFC000000000000
0007FFFC000000000000
0007FFFC000000000000
0007FFFC000000000000
0007FFFC000000000000
0003FFFC000000000000
0003FFFC000000000000
0003FFFC000000000000
0003FFFC000000000000
0001FFFC000000000000
0001FFFC000000000000
0001FFFC000000000000
0001FFFC000000000000
0000FFFC000000000000
0000FFFC000000000000
0000FFFC000000000000
0000FFFC000000000000
00007FFC000000000000
00007FFC000000000000
00007FFC000000000000
00007FFC000000000000
00007FFC000000000000
00007FFC000000000000
00007FFC000000000000
00007FFC000000000000
00007FFC000000000000
00007FF8000000000000
00007FF8000000000000
00007FF8000000000000
00007FF8000000000000
00007FF8000000000000
00007FF8000000000000
00007FF8000000000000
00007FF8000000000000
00007FF8000000000000
00003FF8000000000000
00003FF8000000000000
00003FF8000000000000
00003FF8000000000000
00003FF8000000000000
00003FF8000000000000
00003FF8000000000000
00003FF8000000000000
00003FF8000000000000
00003FF8000000000000
00003FF8000000000000
00003FF8000000000000
00003FF8000000000000
00003FF8000000000000
00003FF8000000000000
00003FF8000000000000
00003FF8000000000000
00003FF8000000000000
00003FF8000000000000
00003FF8000000000000
00003FF8000000000000
00003FF8000000000000
00003FF8000000000000
00003FF8000000000000
00003FF8000000000000
00003FF0000000000000
00003FF0000000000000
00003FF0000000000000
00003FF0000000000000
00003FF0000000000000
00003FF0000000000000
00003FF0000000000000
00003FF0000000000000
00003FF0000000000000
00001FF0000000000000
00001FE0000000000000
00001FC0000000000000
00001F00000000000000
00001E00000000000000
00001C00000000000000
00001000000000000000
ENDCHAR
STARTCHAR g
ENCODING 103
SWIDTH 510 0
DWIDTH 84 0
BBX 62 164 11 1
BITMAP
0000000400000000
0000000600000000
0000000700000000
0000000780000000
00000007C0000000
00000007E0000000
00000007F0000000
00000007F8000000
00000007FC000000
00000007FC000000
00000007FC000000
00000007FC000000
00000007FC000000
00000007FC000000
00000007FC000000
00000007FC000000
00000007FC000000
00000007FC000000
00000007FC000000
00000007FC000000
00000007FC000000
00000007FC000000
00000007FC000000
00000007FE000000
00000007FE000000
00000007FE000000
00000007FE000000
00000007FE000000
00000007FE000000
00000007FE000000
00000007FE000000
00000007FE000000
00000007FE000000
00000007FE000000
00000007FE000000
00000007FE000000
00000007FE000000
00000007FE000000
00000007FE000000
00000007FE000000
00000007FE000000
00000007FE000000
00000007FE000000
00000007FE000000
00000007FE000000
00000007FE000000
00000007FE000000
00000007FE000000
00000007FE000000
00000007FE000000
00000007FE000000
00000007FE000000
00000007FE000000
00000007FE000000
00000007FE000000
00000007FE000000
00000007FE000000
00000007FF000000
00000007FF000000
00000007FF000000
00000007FF000000
00000007FF000000
00000007FF000000
00000007FF000000
00000007FF000000
00000007FF000000
00000007FF000000
00000007FF000000
00000007FF000000
00000007FF000000
00000007FF000000
00000007FF000000
00000007FF000000
00000007FF000000
00000007FF000000
00000007FF000000
00000007FF000000
00000007FF000000
00000007FF000000
00000007FF000000
00000007FF800000
00000007FF800000
00000007FF800000
00000007FFC00000
80000007FFC00000
E0000007FFC00000
F0000007FFE00000
78000007FFE00000
7E000007FFE00000
7F000003FFF00000
3F800003FFF00000
3FE00003FFF00000
3FF00001FFF80000
3FF80001FFF80000
1FFE0001FFF80000
1FFF0001FFFC0000
1FFF8000FFFC0000
0FFFC000FFFC0000
0FFFE000FFFE0000
0FFFF0007FFE0000
07FFF0007FFE0000
07FFE0007FFF0000
07FFE0003FFF0000
03FFE0003FFF0000
03FFE0003FFF8000
03FFE0003FFF8000
01FFE0001FFF8000
01FFE0001FFFC000
01FFE0001FFFC000
00FFC0000FFFC000
00FFC0000FFFE000
00FFC0000FFFE000
007FC0000FFFE000
007FC00007FFF000
007FC00007FFF000
007FC00007FFF000
003F800003FFF800
003F800003FFF800
003F800003FFF800
001F800001FFFC00
001F800001FFFC00
001F800001FFFC00
000F800001FFFE00
000F000000FFFE00
000F000000FFFE00
0007000000FFFF00
00070000007FFF00
00070000007FFF00
00030000007FFF80
00020000007FFF80
00020000003FFF80
00000000003FFFC0
00000000003FFFC0
00000000001FFFC0
00000000001FFFE0
00000000001FFFE0
00000000001FFFE0
00000000000FFFF0
00000000000FFFF0
00000000000FFFF0
030000000007FFF8
03C000000007FFF8
03E000000007FFF8
03F000000007FFFC
07F800000003FFFC
07F800000003FFFC
07FC00000003FFFC
07FC00000003FFF8
07FC0000001FFFF0
07FE00000FFFFFE0
07FE0003FFFFFFC0
07FE01FFFFFFFF80
0FFE7FFFFFFFFF00
0FFFFFFFFFFFFE00
0FFFFFFFFFFFFE00
0FFFFFFFFFFFFC00
0FFFFFFFFFFFF800
0FFFFFFFFFFFF000
0FFFFFFFFFFFE000
0FFFFFFFFFFFC000
007FFFFFFFFF8000
00007FFFFFFF0000
0000001FFFFE0000
0000000007FC0000
ENDCHAR
STARTCHAR h
ENCODING 104
SWIDTH 510 0
DWIDTH 84 0
BBX 59 164 13 0
BITMAP
0000F80000000000
0003FF0000000000
000FFFE000000000
001FFFFC00000000
007FFFFF00000000
01FFFFFFC0000000
03FFFFFFF0000000
0FFFFFFFE0000000
1FFFFFFFC0000000
7FFFFFFF80000000
FFFFFFFF00000000
FFFFFFF000000000
FFFFF80000000000
FFFF800000000000
FFFF800000000000
FFFF800000000000
FFFF800000000000
FFFF800000000000
FFFF800000000000
FFFF800000000000
FFFF800000000000
FFFF800000000000
FFFF800000000000
FFFF800000000000
FFFF800000000000
FFFF800000000000
FFFF800000000000
FFFF800000000000
FFFF800000000000
FFFF800000000000
FFFF800000000000
FFFF800000000000
FFFF800000000000
FFFF800000000000
FFFF800000000000
FFFF000000000000
FFFF000000000000
FFFF000000000000
FFFF000000000000
FFFF000000000000
FFFF000000000000
FFFF000000000000
FFFF000000000000
FFFF000000000000
FFFF000000000000
FFFF080000000000
FFFF0C0000000000
FFFF070000000000
FFFF078000018000
FFFF07E00001C000
FFFF03F00001E000
FFFF03F80001F000
FFFF03FE0001F800
FFFF01FF0001FC00
FFFF01FF8001FC00
FFFF01FFC001FC00
FFFF00FFF001FC00
FFFF00FFF801FE00
FFFE00FFFC01FE00
FFFE007FFE01FE00
FFFE007FFF01FE00
FFFE007FFF01FE00
FFFE007FFF01FE00
FFFE003FFF01FE00
FFFE003FFF01FE00
FFFE003FFF01FE00
FFFE001FFF01FE00
FFFE001FFF01FE00
FFFE001FFF01FE00
FFFE000FFE01FE00
FFFE000FFE01FE00
FFFE000FFE01FE00
FFFE0007FE03FE00
FFFE0007FE03FE00
FFFE0007FE03FE00
FFFE0003FE03FE00
FFFE0003FE03FE00
FFFE0003FC03FE00
FFFE0001FC03FE00
FFFE0001FC03FE00
7FFE0001FC03FE00
7FFE0000FC03FF00
7FFC0000FC03FF00
7FFC0000FC03FF00
7FFC00007803FF00
7FFC00007803FF00
7FFC00007803FF00
7FFC00003803FF00
7FFC00003803FF00
7FFC00003803FF00
7FFC00001803FF00
7FFC00001003FF00
7FFC00001003FF00
7FFC00000003FF00
7FFC00000003FF00
7FFC00000003FF00
7FFC00000003FF00
7FFC00000003FF00
7FFC00000003FF00
7FFC00000003FF00
7FFC00000003FF00
7FFC00000003FF00
7FFC00000003FF00
7FFC00000003FF00
7FFC00000003FF00
7FF800000003FF80
7FF800000003FF80
7FF800000003FF80
7FF800000003FF80
7FF800000003FF80
7FF800000003FF80
7FF800000003FF80
7FF800000003FF80
7FF800000003FF80
7FF800000003FF80
7FF800000003FF80
7FF800000003FF80
7FF800000003FF80
7FF800000003FF80
7FF800000003FF80
7FF800000007FF80
7FF800000007FF80
7FF800000007FF80
7FF800000007FF80
7FF800000007FF80
7FF800000007FF80
7FF800000007FF80
7FF800000007FF80
7FF800000007FF80
7FF000000007FF80
7FF000000007FFC0
7FF000000007FFC0
7FF000000007FFC0
7FF000000007FFC0
7FF000000007FFC0
7FF000000007FFC0
7FF000000007FFC0
7FF000000007FFC0
7FF000000007FFC0
7FF000000007FFC0
7FF000000007FFC0
7FF000000007FFC0
7FF000000007FFC0
7FF000000007FFC0
7FF000000007FFC0
7FF000000007FFC0
7FF000000007FFC0
7FF000000007FFC0
3FF000000007FFC0
3FF000000007FFC0
3FF000000007FFC0
3FF000000007FFC0
3FF000000003FFC0
3FF000000001FFC0
3FE0000000007FC0
3FE0000000003FC0
3FE0000000001FE0
3FE0000000000FE0
3FC00000000007E0
3F800000000001E0
3F000000000000E0
3E00000000000060
3C00000000000000
3000000000000000
ENDCHAR
STARTCHAR i
ENCODING 105
SWIDTH 510 0
DWIDTH 84 0
BBX 58 164 13 0
BITMAP
0000000000100000
0000000000700000
0000000001F00000
0000000003F00000
000000000FF00000
000000003FF00000
000000007FF00000
00000001FFF00000
00000003FFF00000
0000000FFFF00000
0000001FFFF00000
0000001FFFF00000
0000001FFFF00000
0000001FFFF00000
0000001FFFF00000
0000001FFFF00000
0000001FFFF00000
0000001FFFF00000
0000001FFFF00000
0000001FFFF00000
0000001FFFF00000
0000001FFFF00000
0000001FFFF00000
0000001FFFF00000
0000001FFFE00000
0000001FFFE00000
0000001FFFE00000
0000001FFFE00000
0000001FFFE00000
0000001FFFE00000
0000001FFFE00000
0000001FFFE00000
0000001FFFE00000
0000001FFFE00000
0000001FFFE00000
0000001FFFE00000
0000001FFFE00000
0000001FFFE00000
0000001FFFE00000
0000001FFFE00000
0000001FFFE00000
0000001FFFE00000
0000001FFFE00000
0000001FFFE00000
0000001FFFE00000
0000001FFFE00000
0000001FFFE00000
0000001FFFE00000
0000001FFFE00000
0000001FFFC00000
0000001FFFC00000
0000001FFFC00000
0000001FFFC00000
0000001FFFC00000
0000001FFFC00000
0000001FFFC00000
0000001FFFC00000
0000001FFFC00000
0000001FFFC00000
0000001FFFC00000
0000001FFFC00000
0000001FFFC00000
0000001FFFC00000
0000001FFFC00000
0000001FFFC00000
0000001FFFC00000
0000001FFFC00000
0000001FFFC00000
0000001FFFC00000
0000001FFFC00000
0000001FFFC00000
0000001FFFC00000
0000001FFFC00000
0000001FFF800000
0000001FFF800000
0000001FFF800000
0000001FFF800000
0000001FFF800000
0000001FFF800000
0000001FFF800000
0000001FFF800000
0000001FFF800000
0000001FFF800000
0000001FFF800000
0000001FFF800000
0000001FFF800000
0000001FFF800000
0000001FFF800000
0000001FFF800000
0000001FFF800000
0000001FFF800000
0000001FFF800000
0000001FFF800000
0000001FFF800000
0000001FFF800000
0000001FFF000000
0000001FFF000000
0000001FFF000000
0000001FFF000000
0000001FFF000000
0000001FFF000000
0000001FFF000000
0000001FFF000000
0000001FFF000000
0000001FFF000000
0000001FFF000000
0000001FFF000000
0000001FFF000000
0000001FFF000000
0000001FFF000000
0000001FFF000000
0000001FFF000000
0000001FFF000000
0000001FFF000000
0000001FFF800000
0000001FFFF00000
0000001FFFFF0000
0000001FFFFFE000
0000001FFFFFFC00
0000001FFFFFFF00
0000003FFFFFFF80
0000007FFFFFFF80
000000FFFFFFFFC0
000001FFFFFFFFC0
000003FFFFFFFFC0
000003FFFFFFFE00
000007FFFFFFF800
00000FFFFFFFC000
00001FFFFFFE0000
00003FFFFFF80000
00007FFFFFC00000
0000FFFFFE000000
0001FFFFFE000000
0001FFFFFE000000
0003FFFFFE000000
0007FFFFFE000000
000FFFFFFE000000
001FFFFFFE000000
003FFFFFFE000000
007FFFFFFE000000
00FFFFFFFE000000
00FFFFFFFE000000
01FFFFEFFE000000
03FFFF8FFC000000
07FFFF0FFC000000
0FFFFE0FFC000000
1FFFF80FFC000000
1FFFF00FFC000000
1FFFC00FFC000000
3FFF800FFC000000
3FFF000FFC000000
3FFC000FFC000000
3FF8000FFC000000
7FF0000FFC000000
7FC0000FFC000000
7F80000FFC000000
7E00000FFC000000
FC00000FFC000000
F000000FF8000000
E000000FF0000000
8000000FC0000000
0000000F80000000
0000000F00000000
0000000C00000000
ENDCHAR
STARTCHAR j
ENCODING 106
SWIDTH 510 0
DWIDTH 84 0
BBX 36 165 24 0
BITMAP
0000700000
0001FE0000
0003FFC000
000FFFF800
003FFFFE00
007FFFFFC0
01FFFFFFF0
03FFFFFFF0
0FFFFFFFE0
1FFFFFFFC0
7FFFFFFF80
FFFFFFFE00
FFFFFF8000
FFFFC00000
FFFFC00000
FFFFC00000
FFFFC00000
FFFFC00000
FFFFC00000
FFFFC00000
FFFFC00000
FFFFC00000
FFFFC00000
FFFFC00000
FFFFC00000
FFFF800000
FFFF800000
FFFF800000
FFFF800000
FFFF800000
FFFF800000
FFFF800000
FFFF800000
FFFF800000
FFFF800000
FFFF800000
FFFF800000
FFFF800000
FFFF800000
FFFF800000
FFFF800000
FFFF800000
FFFF800000
FFFF800000
FFFF800000
FFFF800000
FFFF800000
FFFF800000
7FFF000000
7FFF000000
7FFF000000
7FFF000000
7FFF000000
7FFF000000
7FFF000000
7FFF000000
7FFF000000
7FFF000000
7FFF000000
7FFF000000
7FFF000000
7FFF000000
7FFF000000
7FFF000000
7FFF000000
7FFF000000
7FFF000000
7FFF000000
7FFF000000
7FFF000000
7FFF000000
7FFE000000
7FFE000000
7FFE000000
7FFE000000
7FFE000000
7FFE000000
7FFE000000
7FFE000000
7FFE000000
7FFE000000
7FFE000000
7FFE000000
7FFE000000
7FFE000000
7FFE000000
7FFE000000
7FFE000000
7FFE000000
7FFE000000
7FFE000000
7FFE000000
7FFE000000
7FFE000000
7FFE000000
7FFC000000
7FFC000000
7FFC000000
7FFC000000
7FFC000000
7FFC000000
7FFC000000
7FFC000000
7FFC000000
7FFC000000
7FFC000000
7FFC000000
7FFC000000
7FFC000000
7FFC000000
3FFC000000
3FFC000000
3FFC000000
3FFC000000
3FFC000000
3FFC000000
3FFC000000
3FFC000000
3FFC000000
3FF8000000
3FF8000000
3FF8000000
3FF8000000
3FF8000000
3FF8000000
3FF8000000
3FF8000000
3FF8000000
3FF8000000
3FF8000000
3FF8000000
3FF8000000
3FF8000000
3FF8000000
3FF8000000
3FF8000000
3FF8000000
3FF8000000
3FF8000000
3FF8000000
3FF8000000
3FF8000000
3FF8000000
3FF0000000
3FF0000000
3FF0000000
3FF0000000
3FF0000000
3FF0000000
3FF0000000
3FF0000000
3FF0000000
3FF0000000
3FF0000000
3FF0000000
3FF0000000
3FF0000000
3FF0000000
3FE0000000
3FC0000000
3F80000000
3F00000000
3E00000000
3800000000
3000000000
ENDCHAR
STARTCHAR k
ENCODING 107
SWIDTH 510 0
DWIDTH 84 0
BBX 58 165 13 0
BITMAP
0000000000E00000
0000000003FC0000
000000000FFF0000
000000003FFFE000
000000007FFFFC00
00000001FFFFFF00
00000007FFFFFFC0
0000000FFFFFFFC0
0000003FFFFFFF80
000000FFFFFFFF00
000001FFFFFFFE00
000003FFFFFFF800
000003FFFFFE0000
000003FFFF800000
000003FFFF000000
000003FFFF000000
000003FFFF000000
000003FFFF000000
000003FFFF000000
000003FFFF000000
000003FFFF000000
000003FFFF000000
000003FFFF000000
000003FFFF000000
000003FFFF000000
000003FFFF000000
000003FFFF000000
000003FFFF000000
000001FFFF000000
000001FFFF000000
000001FFFF000000
000001FFFF000000
000001FFFF000000
000001FFFE000000
800001FFFE000000
E00001FFFE000000
700001FFFE000000
7C0001FFFE000000
7E0001FFFE000000
7F0001FFFE000000
3FC001FFFE000000
3FE001FFFE000000
3FF001FFFE000000
1FFC01FFFE000000
1FFE01FFFE000000
1FFF01FFFE000000
1FFFC1FFFE000000
0FFFE1FFFE000000
0FFFF9FFFE000000
0FFFFFFFFE000000
07FFFFFFFE000000
03FFFFFFFE000000
01FFFFFFFE000000
00FFFFFFFE000000
00FFFFFFFE000000
007FFFFFFE000000
003FFFFFFE000000
001FFFFFFC000000
000FFFFFFC000000
0007FFFFFC000000
0003FFFFFC000000
0001FFFFFC000000
0001FFFFFC000000
0000FFFFFC000000
00007FFFFC000000
00003FFFFC000000
00001FFFFC000000
00000FFFFC000000
000007FFFC000000
000003FFFC000000
000003FFFC000000
000001FFFC000000
000001FFFC000000
000001FFFC000000
000001FFFC000000
000001FFFC000000
000001FFFC000000
000001FFFC000000
000001FFFC000000
000001FFFC000000
000001FFFC000000
000001FFFC000000
000001FFF8000000
000001FFF8000000
000001FFF8000000
000001FFF8000000
000001FFF8000000
000001FFF8000000
000001FFF8000000
00000FFFF8000000
00007FFFF8000000
0003FFFFF8000400
000FFFFFF8001C00
007FFFFFF8003C00
03FFFFFFF8007800
0FFFFFFFF800F800
7FFFFFFFF803F800
FFFFFFFFF807F000
7FFFFFFFF80FF000
7FFFFFFFF81FF000
3FFFFFFFF87FE000
1FFFFFFFF8FFE000
07FFFFFFF9FFE000
00FFFFFFFBFFE000
000000FFFFFFC000
000000FFFFFFC000
000000FFFFFFC000
000000FFFFFF8000
000000FFFFFF8000
000000FFFFFF8000
000000FFFFFF8000
000000FFFFFF0000
000000FFFFFF0000
000000FFFFFF0000
000000FFFFFE0000
000000FFFFFE0000
000007FFFFFE0000
00003FFFFFFC0000
0001FFFFFFFC0000
000FFFFFFFFC0000
003FFFFFFFFC0000
01FFFFFFFFF80000
0FFFFFFFFFF80000
3FFFFFFFFFF80000
FFFFFFFFFFF00000
FFFFFFFFFFF00000
7FFFFFFFFFF00000
3FFFFFFFFFE00000
1FFFFFFFFFE00000
0FFFFFFFFFE00000
007FFFFFFFE00000
000000FFFFC00000
000000FFFFC00000
000000FFFFC00000
000000FFFF800000
000000FFFF800000
000000FFFF800000
000000FFFF000000
000000FFFF000000
000000FFFF000000
000000FFFF000000
000000FFFE000000
000000FFFE000000
000000FFFE000000
000000FFFC000000
000000FFFC000000
000000FFFC000000
000000FFF8000000
000000FFF8000000
000000FFF8000000
000000FFF8000000
000000FFF0000000
000000FFF0000000
000000FFF0000000
000000FFE0000000
000000FFE0000000
000000FFE0000000
000000FFC0000000
000000FFC0000000
000000FF80000000
0000007E00000000
0000007C00000000
0000007800000000
0000006000000000
0000004000000000
ENDCHAR
STARTCHAR l
ENCODING 108
SWIDTH 510 0
DWIDTH 84 0
BBX 68 164 8 0
BITMAP
000000000800000000
000000003800000000
000000007800000000
00000000F800000000
00000003F800000000
00000007F800000030
0000000FF8000000F0
0000000FF8000001E0
0000000FF8000007E0
0000000FF800001FE0
0000000FF800003FC0
0000000FF80000FFC0
0000000FFC0003FFC0
0000000FFC0007FF80
0000000FFC001FFF80
0000000FFC003FFF00
0000001FFC00FFFF00
0000001FFC03FFFF00
0000001FFC07FFFE00
0000001FFC1FFFFE00
0000001FFC7FFFFC00
0000001FFCFFFFF800
0000001FFFFFFFF000
0000001FFFFFFFE000
0000001FFFFFFFC000
0000001FFFFFFF8000
0000001FFFFFFF0000
0000001FFFFFFE0000
0000001FFFFFFC0000
0000001FFFFFF80000
0000003FFFFFF00000
0000003FFFFFE00000
000000FFFFFFC00000
00000FFFFFFF800000
00007FFFFFFF000000
0003FFFFFFFE000000
003FFFFFFFFC000000
01FFFFFFFFF8000000
03FFFFFFFFF0000000
01FFFFFFFFE0000000
01FFFFFFFFC0000000
00FFFFFFFF80000000
007FFFFFFF00000000
003FFFFFFE00000000
0007FFFFFC00000000
0001FFFFFC00000000
00003FFFFC00000000
00000FFFFC00000000
000001FFFC00000000
0000007FFC00000000
0000003FFC00000000
0000003FFC00000000
0000003FFC00000000
0000003FFC00000000
0000003FFC00000000
0000003FFC00000000
0000003FFC00000000
0000003FFC00000000
0000003FFC00000000
0000007FFC00000000
0000007FFC00000000
0000007FFC00000000
0000007FFC00000000
0000007FFC00000000
0000007FFC00000000
0000007FFC00000000
0000007FFC00000000
0000007FFC00000000
0000007FFC00000000
0000007FFC00000000
0000007FFC00000000
0000007FFC00000000
0000007FFC00000000
0000007FFC00000000
0000007FFC00000000
0000007FFC00000000
0000007FFC00000000
0000007FFE00000000
0000007FFE00000000
0000007FFE00000000
0000007FFE00000000
0000007FFE00000000
0000007FFE00000000
0000007FFE00000000
0000007FFE00000000
000000FFFE00000000
000000FFFE00000000
000000FFFE00000000
000000FFFE00000000
000000FFFE00000000
000001FFFE00000000
00000FFFFE00000000
00007FFFFE00000000
0003FFFFFE00000000
000FFFFFFE00000000
007FFFFFFE00000000
03FFFFFFFE00000000
0FFFFFFFFE00000000
7FFFFFFFFE00000000
FFFFFFFFFE00000000
7FFFFFFFFE00000000
3FFFFFFFFE00000000
1FFFFFFFFE00000000
0FFFFFFFFE00000000
03FFFFFFFE00000000
007FFFFFFE00000000
000001FFFE00000000
000001FFFE00000000
000001FFFE00000000
000001FFFE00000000
000001FFFE00000000
000001FFFE00000000
000001FFFE00000000
000001FFFE00000000
000001FFFE00000000
000003FFFE00000000
00000FFFFE00000000
00007FFFFE00000000
0003FFFFFE00000000
001FFFFFFE00000000
007FFFFFFE00000000
03FFFFFFFE00000000
1FFFFFFFFE00000000
7FFFFFFFFE00000000
7FFFFFFFFE00000000
7FFFFFFFFE00000000
3FFFFFFFFE00000000
1FFFFFFFFE00000000
0FFFFFFFFE00000000
03FFFFFFFE00000000
003FFFFFFE00000000
000001FFFE00000000
000003FFFE00000000
000003FFFE00000000
000003FFFE00000000
000003FFFE00000000
000003FFFE00000000
000003FFFE00000000
000003FFFE00000000
000003FFFF00000000
000003FFFF00000000
000003FFFF00000000
000003FFFF00000000
000003FFFF00000000
000003FFFF00000000
000003FFFF00000000
000003FFFF00000000
000003FFFF00000000
000003FFFF00000000
000003FFFF00000000
000003FFFF00000000
000003FFFF00000000
000003FFFF00000000
000003FFFF00000000
000003FFFC00000000
000003FFF000000000
000003FFE000000000
000003FF8000000000
000003FE0000000000
000003FC0000000000
000007F00000000000
000007C00000000000
000007800000000000
000002000000000000
ENDCHAR
STARTCHAR m
ENCODING 109
SWIDTH 510 0
DWIDTH 84 0
BBX 62 164 11 0
BITMAP
00000000003F0000
00000000007FE000
0000000001FFF800
0000000007FFFF00
000000000FFFFFE0
000000003FFFFFF8
000000007FFFFFFC
00000001FFFFFFF8
00000003FFFFFFF0
0000000FFFFFFFE0
0000001FFFFFFFC0
0000001FFFFFFC00
0000001FFFFE0000
0000001FFFF00000
0000001FFFF00000
0000001FFFF00000
0000001FFFF00000
0000001FFFF00000
0000001FFFF00000
0000001FFFF00000
0000001FFFF00000
0000001FFFF00000
0000001FFFF00000
0000001FFFF00000
0000001FFFF00000
0000001FFFF00000
0000001FFFF00000
0000001FFFF00000
0000001FFFF00000
0000001FFFF00000
0000001FFFF00000
0000001FFFE00000
0000001FFFE00000
0000001FFFE00000
0000001FFFE00000
0000001FFFE00000
0000001FFFE00000
0000001FFFE00000
0000001FFFE00000
0000001FFFE00000
0000001FFFE00000
0000001FFFE00000
0000001FFFE00000
0000001FFFE00000
0000001FFFE00000
8000001FFFE00000
C000001FFFE00000
E000001FFFE00000
F800001FFFE00000
7C00001FFFE00000
7E00001FFFE00000
7F80001FFFE00000
3FC0001FFFE00000
3FE0001FFFC00000
3FF0001FFFC00000
1FFC001FFFC00000
1FFE001FFFC00000
1FFF001FFFC00000
0FFF801FFFC00000
0FFFE01FFFC00000
0FFFF01FFFC00000
07FFF01FFFC00000
07FFF01FFFC00000
07FFE01FFFC00000
07FFE01FFFC00000
03FFE01FFFC00000
03FFE01FFFC00000
03FFE01FFFC00000
01FFE01FFFC00000
01FFE01FFFC00000
01FFE01FFFC00000
00FFC01FFFC00000
00FFC01FFFC00000
00FFC01FFFC00000
007FC01FFFC00000
007FC01FFFC00000
007FC01FFF800000
003FC01FFF800000
003F801FFF800000
003F801FFF800000
001F801FFF800000
001F801FFF800000
001F801FFF800000
000F801FFF800000
000F801FFF800000
000F001FFF800000
0007001FFF800000
0007000FFF800000
0007000FFF800000
0003000FFF800000
0003000FFF800000
0002000FFF800000
0000000FFF800000
0000000FFF800000
0000000FFF800000
0000000FFF800000
0000000FFF800000
0000000FFF800000
0000000FFF800000
0000000FFF000000
0000000FFF000000
0000000FFF000000
0000000FFF000000
0000000FFF000000
0000000FFF000000
0000000FFF000000
0000000FFF000000
0000000FFF000000
0000000FFF000000
0000000FFF000000
0000000FFF000000
0000000FFF000000
0000000FFF000000
0000000FFF000000
0000000FFF000000
0000000FFF000000
0000000FFF000000
0000000FFF000000
0000000FFF000000
0000000FFF000000
0000000FFF000000
0000000FFF000000
0000000FFE000000
0000000FFE000000
0000000FFE000000
0000000FFE000000
0000000FFE000000
0000000FFE000000
0000000FFE000000
0000000FFE000000
0000000FFE000000
0000000FFE000000
0000000FFE000000
0000000FFE000000
0000000FFE000000
0000000FFE000000
0000000FFE000000
0000000FFE000000
0000000FFE000000
00000007FE000000
00000007FE000000
00000007FE000000
00000007FE000000
00000007FE000000
00000007FE000000
00000007FE000000
00000007FC000000
00000007FC000000
00000007FC000000
00000007FC000000
00000007FE000000
00000007FFFFC000
00000007FFFFFF00
00000007FFFFFFE0
00000003FFFFFFF0
00000000FFFFFFF8
000000007FFFFFFC
000000001FFFFFFC
000000000FFFFFF0
0000000007FFFFC0
0000000001FFFE00
0000000000FFF800
00000000003FC000
00000000001C0000
ENDCHAR
STARTCHAR n
ENCODING 110
SWIDTH 510 0
DWIDTH 84 0
BBX 62 165 11 0
BITMAP
00000000000E0000
00000000003F8000
0000000000FFF000
0000000003FFFE00
0000000007FFFFC0
000000001FFFFFF0
000000007FFFFFFC
00000000FFFFFFFC
00000003FFFFFFF8
00000007FFFFFFF0
0000001FFFFFFFE0
0000003FFFFFFF80
0000003FFFFFE000
0000003FFFF80000
0000003FFFF00000
0000003FFFF00000
0000003FFFF00000
0000003FFFF00000
0000003FFFF00000
0000003FFFF00000
0000003FFFF00000
0000003FFFF00000
0000003FFFF00000
0000003FFFF00000
0000003FFFF00000
0000003FFFF00000
0000003FFFF00000
0000001FFFF00000
0000001FFFF00000
0000001FFFF00000
0000001FFFF00000
0000001FFFE00000
0000001FFFE00000
0000001FFFE00000
0000001FFFE00000
0000001FFFE00000
0000001FFFE00000
0000001FFFE00000
0000001FFFE00000
0000001FFFE00000
0000001FFFE00000
0000001FFFE00000
0000001FFFE00000
0000001FFFE00000
0000001FFFE00000
0000001FFFE00000
8000001FFFE00000
C000001FFFE00000
F000001FFFE00000
F800001FFFE00000
7C00001FFFE00000
7F00001FFFE00000
7F80001FFFE00000
3FC0001FFFE00000
3FF0001FFFE00000
3FF8001FFFC00000
1FFC001FFFC00000
1FFE001FFFC00000
1FFF801FFFC00000
0FFFC01FFFC00000
0FFFE01FFFC00000
0FFFF01FFFC00000
07FFF01FFFC00000
07FFF01FFFC00000
07FFE01FFFC00000
03FFE01FFFC00000
03FFE01FFFC00000
03FFE01FFFC00000
03FFE01FFFC00000
01FFE01FFFC00000
01FFE01FFFC00000
01FFE01FFFC00000
00FFC01FFFC00000
00FFC01FFFC00000
00FFC01FFFC00000
007FC01FFFC00000
007FC01FFFC00000
007FC01FFFC00000
003FC01FFF800000
003FC01FFF800000
003F801FFF800000
001F801FFF800000
001F801FFF800000
001F801FFF800000
000F801FFF800000
000F801FFF800000
000F801FFF800000
0007001FFF800000
0007001FFF800000
0007001FFF800000
0003000FFF800000
0003000FFF800000
0003000FFF800000
0000000FFF800000
0000000FFF800000
0000000FFF800000
0000000FFF800000
0000000FFF800000
0000000FFF800000
0000000FFF800000
0000000FFF800000
0000000FFF800000
0000000FFF000000
0000000FFF000000
0000000FFF000000
0000000FFF000000
0000000FFF000000
0000000FFF000000
0000000FFF000000
0000000FFF000000
0000000FFF000000
0000000FFF000000
0000000FFF000000
0000000FFF000000
0000000FFF000000
0000000FFF000000
0000000FFF000000
0000000FFF000000
0000000FFF000000
0000000FFF000000
0000000FFF000000
0000000FFF000000
0000000FFF000000
0000000FFF000000
0000000FFF000000
0000000FFE000000
0000000FFE000000
0000000FFE000000
0000000FFE000000
0000000FFE000000
0000000FFE000000
0000000FFE000000
0000000FFE000000
0000000FFE000000
0000000FFE000000
0000000FFE000000
0000000FFE000000
0000000FFE000000
0000000FFE000000
0000000FFE000000
0000000FFE000000
0000000FFE000000
0000000FFE000000
0000000FFE000000
0000000FFE000000
0000000FFE000000
0000000FFE000000
0000000FFE000000
0000000FFE000000
0000000FFE000000
0000000FFC000000
0000000FFC000000
0000000FFC000000
0000000FFC000000
0000000FFC000000
0000000FFC000000
0000000FFC000000
00000007FC000000
00000007FC000000
00000007F8000000
00000007F0000000
00000007C0000000
0000000780000000
0000000700000000
0000000400000000
ENDCHAR
STARTCHAR o
ENCODING 111
SWIDTH 510 0
DWIDTH 84 0
BBX 70 164 7 0
BITMAP
000000000100000000
000000000180000000
0000040001C0000000
00003C0001F0000000
0001FC0003F8000000
0001FC0003FC000000
0001FC0003FE000000
0001FC0003FF000000
0001FC0003FF000000
0001FC0003FF000000
0001FC0003FF000000
0001FC0003FF000000
0001FC0003FF000000
0001FC0003FF000000
0001FC0003FF000000
0003FC0003FF000000
0003FC0003FF000000
0003FC0003FF000000
0003FC0003FF000000
0003FC0003FF000000
0003FC0003FF000000
0003FC0003FF000000
0003FC0003FF000000
0003FC0003FF000000
0003FC0003FF000000
0003FC0003FF000000
0003FC0003FF000000
0003FC0003FF000000
0003FC0003FF000000
0007FC0003FF000000
0007FC0003FF800000
0007FC0003FF800000
C007FC0003FF800000
E007FC0003FF800000
F807FC0007FF800000
FE07FC0007FF800000
FF87FC0007FF800000
7FE7FC0007FF800000
7FFFFC0007FF800000
7FFFFC0007FF800000
7FFFFC0007FF800000
7FFFFC0007FF800000
3FFFFC0007FF800000
3FFFFC0007FF800000
3FFFFC0007FF800000
3FFFFC0007FF800000
3FFFFC0007FF800000
1FFFFC0007FF800000
1FFFFC0007FF800000
1FFFFC0007FF800000
1FFFFC0007FF800000
1FFFFC0007FF800000
0FFFFC0007FF800000
0FFFFC0007FF800000
0FFFFC0007FF800000
0FFFFC0007FF800000
0FFFFC0007FF800000
0FFFFC0007FF800000
07FFFC0007FF800000
07FFFC0007FF800000
07FFFC0007FFC00000
07FFFC0007FFC00000
07FFFC0007FFC00000
03FFFC0007FFC00000
03FFFC0007FFC00000
03FFFC0007FFC00000
03FFFC0007FFC00000
03FFFC0007FFC00000
01FFFC0007FFC00000
01FFFC0007FFC00000
01FFFC0007FFC00000
01FFFC0007FFC00000
01FFFC0007FFC00000
00FFFC0007FFC00000
00FFFC0007FFC00000
00FFFC000FFFC00000
00FFFC000FFFC00000
00FFFC000FFFC00000
007FFC000FFFC00000
007FFC000FFFC00000
007FFC000FFFC00000
007FFC000FFFC00000
007FFC000FFFC00000
003FFC000FFFC00000
003FFC000FFFC00000
003FFC000FFFC00000
003FFC000FFFC00000
003FFC000FFFC00000
001FFC000FFFC00000
001FFC000FFFC00000
001FFC000FFFC00000
001FFC000FFFC00000
001FFF000FFFE00000
001FFFE00FFFE00000
000FFFF80FFFE00000
000FFFFF0FFFE00000
000FFFFFEFFFE00000
000FFFFFFFFFE00000
000FFFFFFFFFE00000
0007FFFFFFFFE00000
0007FFFFFFFFE00000
0007FFFFFFFFE00000
0007FFFFFFFFE00000
0007FFFFFFFFE00000
0003FFFFFFFFE00000
0003FFFC0FFFE00000
0003FC000FFFE00000
0003FC000FFFE00000
0003FC000FFFE00000
0001FC000FFFE00000
0001FC000FFFE00000
0001FC000FFFE00000
0001FC000FFFE00000
0000FC000FFFE00000
0000FC000FFFE00000
00007C000FFFE00000
00007C001FFFE00000
00003C001FFFE00000
00003C001FFFE00000
00001C001FFFE00000
00001C001FFFE00000
00000C001FFFE00000
000004001FFFF00000
000004001FFFF00000
000000001FFFF00000
000000001FFFF00000
000000001FFFF00000
000000001FFFF00000
000000001FFFF00000
000000001FFFF00000
000000001FFFF00000
000000001FFFF00000
000000001FFFF00000
000000001FFFF00000
000000001FFFF00000
000000001FFFF00000
000000001FFFF00000
000000001FFFF00000
000000001FFFF00000
000000001FFFF00000
000000001FFFF00000
000000001FFFF00000
000000001FFFF00000
000000001FFFF00000
000000001FFFF00000
000000001FFFF00000
000000001FFFF00000
000000001FFFF00000
000000001FFFF00000
000000001FFFF80000
000000001FFFFC0000
000000001FFFFFF000
000000001FFFFFFF80
000000000FFFFFFFE0
0000000003FFFFFFF0
0000000001FFFFFFF8
00000000007FFFFFFC
00000000003FFFFFFC
00000000000FFFFFE0
000000000007FFFF80
000000000001FFFC00
0000000000007FE000
0000000000003F8000
0000000000000C0000
ENDCHAR
STARTCHAR p
ENCODING 112
SWIDTH 510 0
DWIDTH 84 0
BBX 68 164 8 0
BITMAP
000000001000000000
000000001800000000
000000001C00000000
000000001E00000000
000000001F80000000
000000001FC0000000
000000001FE0000000
000000001FF0000000
000004001FF0000000
000004001FF0000000
000004001FF0000000
00000C001FF0000000
00000C001FF0000000
00001C001FF0000000
00001C001FF0000000
00003C001FF0000000
00003C003FF8000000
00007C003FF8000000
00007C003FF8000000
0000FC003FF8000000
0000FC003FF8000000
0001FC003FF8000000
0001FC003FF8000000
0001FC003FF8000000
0001FC003FF8000000
0003FC003FF8000000
0003FC003FF8000000
0003FC003FF8000000
0003FC003FF8000000
0003FC003FF8000000
0003FC003FF8000000
0007FC003FF8000000
0007FC003FF8000000
0007FC003FF8000000
0007FC003FF8000000
0007FC003FF8000000
000FFC003FF8000000
000FFC003FF8000000
000FFC003FF8000000
000FFC003FF8000000
000FFC003FF8000000
001FFC003FFC000000
001FFC003FFC000000
001FFC003FFC000000
001FFC003FFC000000
001FFE003FFC000000
003FFE003FFC000000
003FFE003FFC000000
003FFE003FFC000000
003FFE003FFC000000
003FFE003FFC000000
007FFE003FFC000000
007FFE003FFC000000
007FFE003FFC000000
007FFE003FFC000000
007FFE003FFC000000
007FFE003FFC000000
00FFFE003FFC000000
00FFFE003FFC000000
00FFFE003FFC000000
00FFFE003FFC000000
00FFFE003FFC000000
01FFFE003FFC000000
01FFFE003FFC000000
01FFFE003FFC000000
01FFFE003FFC000000
01FFFE003FFE000000
03FFFE003FFE000000
03FFFE003FFE000000
03FFFE007FFE000000
03FFFE007FFE000000
03FFFE007FFE000000
07FFFE007FFE000000
07FFFE007FFE000000
07FFFE007FFE000000
07FFFE007FFE000000
07FFFE007FFE000000
07FFFE007FFE000000
0FFFFE007FFE000000
0FFFFE007FFE000000
0FFFFE007FFE000000
0FFFFE007FFE000000
0FFFFE007FFE000000
1FFFFE007FFE000000
1FFFFE007FFE000000
1FFFFE007FFE000000
1FFFFE007FFE000000
1FFFFE007FFE000000
3FFFFE007FFE000000
3FFFFE007FFE000000
3FFFFE007FFE000000
3FFFFE007FFE000000
3FFFFE007FFF000000
3FFFFE007FFF000000
7FFFFE007FFF000000
7FE7FE007FFF000000
7F87FE007FFF000000
7E07FE007FFF000000
7807FE007FFF000000
7007FE007FFF000000
C007FE007FFF000000
0003FE007FFF000000
0003FE007FFF000000
0003FE007FFF000000
0003FE007FFF000000
0003FE007FFF000000
0003FE007FFF000000
0003FE007FFF000000
0003FE007FFF000000
0003FE007FFF000000
0003FE007FFF000000
0003FE007FFF000000
0003FE007FFF000000
0003FE007FFF000000
0001FE007FFF000000
0001FE007FFF000000
0001FE007FFF000000
0001FE007FFF800000
0001FE007FFF800000
0001FE007FFF800000
0001FE007FFF800000
0001FC007FFF800000
0001FC007FFF800000
0001FC007FFF800000
0001FC00FFFF800000
0001FC00FFFF800000
0001FC00FFFF800000
0000FC00FFFF800000
0000FC00FFFF800000
00001C00FFFF800000
00000000FFFF800000
00000000FFFF800000
00000000FFFF800000
00000000FFFF800000
00000000FFFF800000
00000000FFFF800000
00000000FFFF800000
00000000FFFF800000
00000000FFFF800000
00000000FFFFC00000
00000000FFFFC00000
00000000FFFFC00000
00000000FFFFC00000
00000000FFFFC00000
00000000FFFFC00000
00000000FFFFC00000
00000000FFFFC00000
00000000FFFFC00000
00000000FFFFC00000
00000000FFFFC00000
00000000FFFFC00000
00000000FFFFFC0000
00000000FFFFFFF800
00000000FFFFFFFF00
000000003FFFFFFF80
000000000FFFFFFFC0
0000000007FFFFFFE0
0000000001FFFFFFF0
0000000000FFFFFFC0
00000000003FFFFE00
00000000000FFFF800
000000000007FFC000
000000000001FF0000
000000000000F80000
ENDCHAR
STARTCHAR q
ENCODING 113
SWIDTH 510 0
DWIDTH 84 0
BBX 58 165 13 0
BITMAP
0000000000800000
0000000003F00000
000000000FFE0000
000000001FFF8000
000000007FFFF000
00000001FFFFFC00
00000003FFFFFF80
0000000FFFFFFFC0
0000001FFFFFFF80
0000007FFFFFFF00
000001FFFFFFFE00
000003FFFFFFFC00
000003FFFFFFC000
000003FFFFE00000
000003FFFF000000
000003FFFF000000
000003FFFF000000
000003FFFF000000
000003FFFF000000
000003FFFF000000
000003FFFF000000
000003FFFF000000
000003FFFF000000
000003FFFE000000
000003FFFE000000
000003FFFE000000
000003FFFE000000
000003FFFE000000
000003FFFE000000
000003FFFE000000
000003FFFE000000
000003FFFE000000
000003FFFE000000
000003FFFE000000
000003FFFE000000
800003FFFE000000
C00003FFFE000000
F00003FFFE000000
780003FFFE000000
7E0003FFFE000000
7F0003FFFE000000
7F8003FFFE000000
3FE003FFFE000000
3FF003FFFE000000
3FFC03FFFE000000
3FFE03FFFE000000
1FFF03FFFC000000
1FFFC3FFFC000000
1FFFE3FFFC000000
0FFFFBFFFC000000
0FFFFFFFFC000000
07FFFFFFFC000000
03FFFFFFFC000000
01FFFFFFFC000000
01FFFFFFFC000000
00FFFFFFFC000000
007FFFFFFC000000
003FFFFFFC000000
001FFFFFFC000000
000FFFFFFC000000
0007FFFFFC000000
0003FFFFFC000000
0003FFFFFC000000
0001FFFFFC000000
0000FFFFFC000000
00007FFFFC000000
00003FFFFC000000
00001FFFFC000000
00000FFFFC000000
00000FFFF8000000
000007FFF8000000
000003FFF8000000
000001FFF8000000
000001FFF8000000
000001FFF8000000
000001FFF8000000
000001FFF8000000
000001FFF8000000
000001FFF8000000
000001FFF8000000
000001FFF8000000
000001FFF8000000
000001FFF8000000
000001FFF8000000
000001FFF8000000
000001FFF8000000
000001FFF8000000
000001FFF8000000
000001FFF8000000
000001FFF8000000
000001FFF8000000
000001FFF8000000
000001FFF8000C00
000001FFF8001800
000001FFF8007800
000001FFF800F800
000001FFF001F000
000001FFF003F000
000001FFF00FF000
000001FFF01FF000
000001FFF03FE000
000001FFF07FE000
000001FFF1FFE000
000001FFF3FFC000
000001FFFFFFC000
000001FFFFFFC000
000001FFFFFF8000
000001FFFFFF8000
000001FFFFFF8000
000001FFFFFF8000
000001FFFFFF0000
000001FFFFFF0000
000001FFFFFF0000
000001FFFFFE0000
000001FFFFFE0000
000001FFFFFE0000
000001FFFFFC0000
000001FFFFFC0000
000001FFFFFC0000
000001FFFFFC0000
000000FFFFF80000
000000FFFFF80000
000000FFFFF80000
000000FFFFF00000
000000FFFFF00000
000000FFFFF00000
000000FFFFE00000
000000FFFFE00000
000000FFFFE00000
000000FFFFE00000
000000FFFFC00000
000000FFFFC00000
000000FFFFC00000
000000FFFF800000
000000FFFF800000
000000FFFF800000
000000FFFF000000
000000FFFF000000
000000FFFF000000
000000FFFF000000
000000FFFE000000
000000FFFE000000
000000FFFE000000
000000FFFC000000
000000FFFC000000
000000FFFC000000
000000FFF8000000
000000FFF8000000
000000FFF8000000
000000FFF8000000
000000FFF0000000
000000FFF0000000
000000FFF0000000
000000FFE0000000
000000FFE0000000
000000FFE0000000
000000FFC0000000
000000FFC0000000
000000FFC0000000
000000FF80000000
000000FF00000000
000000FE00000000
000000F800000000
000000F000000000
000000C000000000
ENDCHAR
STARTCHAR r
ENCODING 114
SWIDTH 510 0
DWIDTH 84 0
BBX 53 164 15 1
BITMAP
00000000380000
000000007F0000
00000001FFE000
00000003FFF800
0000000FFFFF00
0000003FFFFFE0
0000007FFFFFF8
000001FFFFFFF8
000003FFFFFFF0
00000FFFFFFFE0
00001FFFFFFFC0
00003FFFFFFF00
00003FFFFFE000
00003FFFF00000
00003FFFE00000
00003FFFE00000
00003FFFE00000
00003FFFE00000
00003FFFE00000
00003FFFE00000
00003FFFE00000
00003FFFE00000
00003FFFE00000
00003FFFE00000
00003FFFE00000
00003FFFE00000
00003FFFE00000
00003FFFE00000
00003FFFE00000
00003FFFE00000
00003FFFE00000
00003FFFE00000
00003FFFE00000
00003FFFC00000
00003FFFC00000
00003FFFC00000
00003FFFC00000
00003FFFC00000
00003FFFC00000
00003FFFC00000
00003FFFC00000
00003FFFC00000
00003FFFC00000
00003FFFC00000
00003FFFC00000
00003FFFC00000
00003FFFC00000
00003FFFC00000
00003FFFC00000
00003FFFF00000
00003FFFFE0000
00003FFFFF8000
00003FFFFFF000
00003FFFFFFE00
00003FFFFFFF80
00003FFFFFFFF0
00003FFFFFFFF8
00003FFFFFFFF8
00003FFFFFFFF0
00003FFFFFFFF0
00003FFFFFFFE0
00003FFFFFFF80
00003FFFFFFC00
00003FFF800000
00003FFF800000
00003FFF800000
00003FFF800000
00003FFF800000
00003FFF800000
00003FFF800000
00003FFF800000
00003FFF800000
00003FFF800000
00003FFF800000
00003FFF800000
00003FFF800000
00003FFF800000
00003FFF800000
00003FFF800000
00003FFF800000
00003FFF000000
00003FFF000000
00003FFF000000
00003FFF000000
00003FFF000000
00003FFF000000
00003FFF000000
00003FFF000000
00001FFF000000
00001FFFC00000
00001FFFF80000
80001FFFFF0000
60001FFFFFE000
70001FFFFFF800
78001FFFFFFF00
7C001FFFFFFFC0
3F001FFFFFFFF8
3F801FFFFFFFF8
3FC01FFFFFFFF8
1FE01FFFFFFFF0
1FF81FFFFFFFE0
1FFC1FFFFFFFC0
1FFE1FFFFFFF00
0FFF3FFFFFF000
0FFFBFFE000000
0FFFFFFE000000
07FFFFFE000000
07FFFFFE000000
07FFFFFE000000
07FFFFFE000000
03FFFFFE000000
03FFFFFE000000
03FFFFFE000000
01FFFFFE000000
01FFFFFE000000
01FFFFFE000000
01FFFFFFC00000
00FFFFFFF80000
00FFFFFFFF0000
00FFFFFFFFE000
007FFFFFFFF800
007FFFFFFFFF00
007FFFFFFFFFE0
003FFFFFFFFFF8
003FFFFFFFFFF8
003FFFFFFFFFF8
003FFFFFFFFFF0
001FFFFFFFFFE0
001FFFFFFFFFC0
001FFFFFFFFF00
000FFFFF820000
000FFFFC000000
000FFFFC000000
0007FFFC000000
0007FFFC000000
0007FFFC000000
0007FFFC000000
0003FFFC000000
0003FFFC000000
0003FFFC000000
0001FFFC000000
0001FFFC000000
0001FFFC000000
0001FFFC000000
0000FFFC000000
0000FFFC000000
0000FFFC000000
00007FFC000000
00007FF8000000
00007FF8000000
00007FF8000000
00003FF8000000
00003FF8000000
00003FF8000000
00003FF8000000
00001FF8000000
00001FF8000000
00001FF8000000
00001FF0000000
00000FE0000000
00000FC0000000
00000F00000000
00000E00000000
00000800000000
ENDCHAR
STARTCHAR s
ENCODING 115
SWIDTH 509 0
DWIDTH 84 0
BBX 59 165 13 -1
BITMAP
0000000030000000
0000000070000000
00000001F0000000
00000007F0000000
0000000FF0000000
0000003FF0000020
0000007FF00000E0
000001FFF00001C0
000007FFF00007C0
00000FFFE0000FC0
00003FFFE0003FC0
00007FFFE0007F80
00007FFFE000FF80
00007FFFE003FF80
00007FFFE007FF00
00007FFFE00FFF00
00007FFFE03FFF00
00007FFFE07FFF00
00007FFFE1FFFE00
00003FFFE3FFFE00
00003FFFE7FFFE00
00003FFFFFFFFC00
00003FFFFFFFF800
00003FFFFFFFF000
00003FFFFFFFE000
00003FFFFFFFC000
00003FFFFFFFC000
00003FFFFFFF8000
00003FFFFFFF0000
00003FFFFFFE0000
00003FFFFFFC0000
00003FFFFFF80000
00003FFFFFF00000
00003FFFFFF00000
00003FFFFFE00000
00003FFFFFC00000
0000FFFFFF800000
0007FFFFFF000000
003FFFFFFE000000
00FFFFFFFC000000
07FFFFFFF8000000
3FFFFFFFF8000000
FFFFFFFFF0000000
FFFFFFFFE0000000
FFFFFFFFE0000000
7FFFFFFFC0000000
3FFFFFFFC0000000
1FFFFFFFC0000000
03FFFFFFC0000000
00FFFFFFC0000000
000FFFFFC0000000
0001FFFFC0000000
00003FFFC0000000
00003FFFC0000000
00003FFFC0000000
00003FFFC0000000
00003FFFC0000000
00003FFFC0000000
00003FFFC0000000
00003FFFC0000000
00003FFF80000000
00003FFF80000000
00003FFF80000000
00003FFF80000000
00003FFF80000000
00003FFF80000000
00003FFF80000000
00003FFF80000000
00003FFF80000000
00003FFF80000000
00003FFF80000000
00003FFF80000000
00003FFF80000000
00003FFF80000000
00003FFF80000000
00003FFF80000000
00003FFF80000000
00003FFF80000000
00003FFF80000000
00003FFF80000000
00003FFF80000000
00003FFF00000000
00003FFF00000000
00003FFF00000000
00003FFF00000000
00001FFF00000000
00001FFF00000000
00001FFF00000000
00001FFF00000000
00001FFF00000000
00001FFF00000000
00001FFF00000000
00001FFF00000000
00001FFF00000000
00001FFF00000000
00001FFF00000000
00001FFF00000000
00001FFF00000000
00001FFF00000000
00001FFF00000000
00001FFF00000000
00001FFF00000000
00001FFF00000000
00001FFF00000000
00001FFE00000000
00001FFE00000000
00001FFE00000000
00001FFE00000000
00001FFE00000000
00001FFE00000000
00001FFE00000000
00001FFE00000000
00001FFE00000000
00001FFE00000000
00001FFE00000000
00001FFE00000000
00001FFE00000000
00001FFE00000000
00001FFE00000000
00001FFE00000000
00001FFE00000000
00001FFE00000000
00001FFE00000000
00001FFE00000000
00001FFE00000000
00001FFE00000000
00001FFE00000000
00001FFC00000000
00001FFC00000000
00001FFC00000000
00001FFC00000000
00001FFC00000000
00001FFC00000000
00001FFC00000000
00001FFC00000000
00001FFC00000000
00001FFC00000000
00001FFC00000000
00001FFC00000000
00001FFC00000000
00001FFC00000000
00001FFC00000000
00001FFC00000000
00001FFC00000000
00001FFC00000000
00001FFC00000000
00001FFC00000000
00001FFC00000000
00001FFC00000000
00001FFC00000000
00001FFC00000000
00001FFC00000000
00001FFC00000000
00001FFC00000000
00001FFC00000000
00001FF800000000
00001FF800000000
00001FF800000000
00000FF800000000
00000FF000000000
00000FC000000000
00000F8000000000
00000F0000000000
00000C0000000000
0000080000000000
ENDCHAR
STARTCHAR t
ENCODING 116
SWIDTH 510 0
DWIDTH 84 0
BBX 58 164 13 1
BITMAP
0000000040000000
00000001C0000000
00000003C0000000
00000007C0000000
0000000FC0000000
0000001FC0000000
0000003FC0000000
0000007FC0000000
0000007FC0000000
000000FFC0000000
000000FFC0000000
000000FFC0000000
000000FFC0000000
000000FFC0000000
000000FFC0000000
000000FFC0000000
000000FFC0000000
000000FFC0000000
000000FFC0000000
000000FFC0000000
000000FFC0000000
000000FFC0000000
000000FFC0000000
000000FFC0000000
000000FFC0000000
000000FFC0000000
000000FFC0000000
000000FFC0000000
000000FFC0000000
000000FFC0000000
000000FFC0000000
000000FFC0000000
000000FFC0000000
000000FFC0000000
000000FFC0000000
000000FFC0000000
000000FFC0000000
000000FFC0000000
000000FFC0000000
000000FFC0000000
000001FFC0000000
000001FFC0000000
000001FFC0000000
000001FFC0000000
000001FFC0000000
000001FFC0000000
000001FFC0000000
000001FFC0000000
000001FFC0000000
000001FFC0000000
000001FFC0000000
000001FFC0000000
000001FFC0000000
000001FFC0000000
000001FFC0000000
000001FFC0000000
000001FFC0000000
000001FFC0000000
000001FFC0000000
000001FFC0000000
000001FFC0000000
000001FFC0000000
000001FFC0000000
000001FFC0000000
000001FFC0000000
000001FFC0000000
000001FFC0000000
000001FFC0000000
000001FFC0000000
000001FFC0000000
000003FFC0000000
000003FFC0000000
000003FFC0000000
000003FFC0000000
000003FFC0000000
000003FFC0000000
000003FFC0000000
000003FFC0000000
000003FFC0000000
000003FFC0000000
000003FFC0000000
000007FFC0000000
000007FFC0000000
000007FFC0000000
00000FFFC0000000
00000FFFC0000000
00000FFF80000000
00001FFF80000000
00001FFF80000000
00001FFF80000000
00003FFF00000000
00003FFF00000000
00003FFF00000000
00007FFE00000000
00007FFE00000000
00007FFE00000000
0000FFFE00000000
0000FFFC00000000
0000FFFC00000000
0001FFFC00000000
0001FFF800000000
0001FFF800000000
0003FFF800000000
0003FFF000000000
0003FFF000000000
0007FFF000000000
0007FFF000000000
0007FFE000000000
000FFFE000000000
000FFFE000000000
000FFFC000000000
001FFFC000000000
001FFFC000000000
001FFFC000000000
003FFF8000000000
003FFF8000000000
003FFF8000000000
007FFF0000000000
007FFF0000000000
007FFF0000000000
00FFFE0000000000
00FFFE0000000000
00FFFE0000000000
01FFFE0000000000
01FFFC0000000000
03FFFC0000000000
03FFFC0000000000
03FFF80000000000
07FFF80000000000
07FFF80000000000
07FFF00000000000
0FFFF00000000000
0FFFF00000000000
0FFFF00000000000
1FFFE00000000000
1FFFE00000000000
1FFFE00000000000
3FFFC00000000000
3FFFC00000000000
3FFFC00000000000
7FFF800000000380
7FFF800000000F80
7FFF800000003F80
FFFF800000003F80
FFFF000000007F80
FFFF000000007F80
FFFF000000007F80
7FFFC0000000FF80
3FFFFE000000FFC0
1FFFFFF80000FFC0
0FFFFFFFE001FFC0
07FFFFFFFFE1FFC0
03FFFFFFFFFFFFC0
01FFFFFFFFFFFFC0
00FFFFFFFFFFFFC0
007FFFFFFFFFFFC0
003FFFFFFFFFFFC0
001FFFFFFFFFFFC0
000FFFFFFFFFFFC0
0007FFFFFFFFFFC0
0003FFFFFFFFC000
0001FFFFFF800000
0000FFFE00000000
00007C0000000000
ENDCHAR
STARTCHAR u
ENCODING 117
SWIDTH 510 0
DWIDTH 84 0
BBX 72 164 6 0
BITMAP
000000000780000000
000000000FF0000000
000000003FFC000000
00000000FFFF800000
00000001FFFFF00000
00000007FFFFFC0000
0000000FFFFFFF0000
0000003FFFFFFF0000
0000007FFFFFFF0000
000001FFFFFFFE0000
000003FFFFFFF80000
00000FFFFFFFE00000
00003FFFFFF8000000
0000FFFFFE00000000
0003FFFFFE00000000
001FFFFFFC00000000
007FFFFFFC00000000
03FFFFFFFC00000000
0FFFFFFFFC00000000
7FFFFFFFFC00000000
FFFFFFFFFC00000000
FFFFFFFFFC00000000
7FFFFFFFFC00000000
3FFFFFFFFC00000000
1FFFFFFFFC00000000
07FFFFFFFC00000000
00FFFFFFFC00000000
000007FFFC00000000
000007FFFC00000000
000007FFFC00000000
000007FFFC00000000
000007FFFC00000000
000007FFFC00000000
000007FFFC00000000
000007FFFC00000000
000007FFFC00000000
000007FFFC00000000
000007FFFC00000000
000007FFF800000000
000007FFF800000000
000007FFF800000000
000007FFF800000000
000007FFF800000000
000007FFF800000000
000007FFF800000000
000007FFF800000000
000007FFF800000000
000007FFF800000000
000007FFF800000000
000007FFF800000000
000007FFF800000000
000007FFF800000000
000007FFF800000000
000007FFF800000000
000007FFF800000000
000007FFF800000000
000007FFF800000000
000007FFF800000000
000007FFF800000000
000007FFF800000000
000007FFF800000000
000007FFF800000000
000007FFF800000000
000007FFF000000000
000007FFF000000000
000007FFF000000000
000007FFF000000000
000003FFF000000000
000003FFF000000000
000003FFF000000000
000003FFF000000000
000003FFF000000000
000003FFF000000000
000003FFF000000000
000003FFF000000000
000003FFF000000000
000003FFF000000000
000003FFF000000000
000003FFF000000000
000003FFF000000000
000003FFF000000000
000003FFF000000000
000003FFF000000000
000003FFF000000000
000003FFF000000000
000003FFF000000000
000003FFF000000000
000003FFF000000000
000003FFFC00000000
000003FFFF80000000
000003FFFFF0000000
000003FFFFFE000000
000003FFFFFF800000
000003FFFFFFF00000
000003FFFFFFFE0000
000003FFFFFFFF8000
000003FFFFFFFFF000
000003FFFFFFFFF000
000003FFFFFFFFE000
000003FFFFFFFFC000
000003FFFFFFFF8000
000003FFFFFFFF0000
000003FFFFFFFC0000
000003FFFFFFC00000
000003FFE000000000
000003FFE000000000
000003FFE000000000
000003FFE000000000
000003FFE000000000
000003FFE000000000
000003FFC000000000
000003FFC000000000
000003FFC000000000
000003FFC000000000
000003FFC000000000
000003FFC000000000
000003FFC000000000
000003FFC000000000
000003FFC000000000
000003FFC000000000
000003FFC000000000
000003FFC000000000
000003FFC000000000
000003FFC000000000
000003FFC000000000
000003FFC000000000
000003FFC000000000
000001FFC000000000
000001FFC000000000
000001FFC000000000
000001FFC000000000
000001FFC000000000
000001FFC000000000
000001FFC000000000
000001FFC000000000
000001FF8000000000
000001FF8000000000
000001FF8000000000
000001FF8000000000
000001FF8000000000
000001FF800000000E
000001FF800000001E
000001FF800000007E
000001FF80000000FE
000001FF80000001FE
000001FF80000001FE
000001FF80000001FE
000001FF80000003FE
000001FF80000003FF
000001FFFF000003FF
000001FFFFFC0003FF
000001FFFFFFF807FF
000001FFFFFFFFE7FF
000001FFFFFFFFFFFF
000000FFFFFFFFFFFF
0000007FFFFFFFFFFF
0000003FFFFFFFFFFF
0000003FFFFFFFFFFF
0000001FFFFFFFFFFF
0000000FFFFFFFFFFF
00000007FFFFFFFFF0
00000003FFFFFFF000
00000003FFFFC00000
00000001FF80000000
ENDCHAR
STARTCHAR v
ENCODING 118
SWIDTH 510 0
DWIDTH 84 0
BBX 68 165 8 0
BITMAP
000000000002000000
00000000000E000000
00000000003E000000
00000000007E000000
0000000001FE000000
0000000007FE000000
000000000FFE000000
000000003FFE000000
000000007FFE000000
00000001FFFE000000
00000007FFFE000000
0000000FFFFE000000
0000000FFFFC000000
0000000FFFFC000000
0000000FFFFC000000
0000000FFFFC000000
00000007FFFC000000
00000007FFFC000000
00000007FFFC000000
00000007FFFC000000
00000007FFFC000000
00000007FFFC000000
00000007FFFC000000
00000007FFFC000000
00000007FFFC000000
00000007FFFC000000
00000007FFFC000000
00000007FFFC000000
00000007FFFC000000
00000007FFFC000000
00000007FFFC000000
00000007FFFC000000
00000007FFFC000000
00000007FFFC000000
00000007FFFFFFF800
00000007FFFFFFFF00
00000007FFFFFFFF80
00000007FFFFFFFFC0
00000007FFFFFFFFE0
00000007FFFFFFFFE0
00000007FFFFFFFFF0
00000007FFFFFFFFC0
00000007FFFFFFFE00
00000007FFFFFFF800
00000007FFFFFFC000
00000007FFFFFE0000
00000007FFFFF80000
00000007FFFFC00000
00000007FFFE000000
00000007FFF8000000
00000007FFF8000000
00000007FFF8000000
00000007FFF8000000
00000007FFF8000000
00000007FFF8000000
00000007FFF8000000
00000007FFF8000000
00000007FFF8000000
00000007FFF8000000
00000007FFFFFFFC00
00000007FFFFFFFF00
00000007FFFFFFFF80
00000007FFFFFFFFC0
00000007FFFFFFFFE0
00000007FFFFFFFFF0
00000007FFFFFFFFF0
00000007FFFFFFFFC0
00000007FFFFFFFE00
00000007FFFFFFF800
00000007FFFFFFC000
00000007FFFFFE0000
00000007FFFFF00000
00000003FFFF800000
00000003FFFC000000
00000003FFF0000000
00000003FFF0000000
00000003FFF0000000
00000003FFF0000000
00000003FFF0000000
00000003FFF0000000
00000003FFF0000000
00000003FFF0000000
00000003FFF0000000
00000003FFF0000000
00000003FFF0000000
00000003FFE0000000
00000003FFE0000000
00000003FFE0000000
00000003FFE0000000
00000003FFE0000000
00000003FFE0000000
00000003FFE0000000
00000003FFE0000000
00000003FFE0000000
00000003FFE0000000
00000003FFE0000000
00000003FFE0000000
00000003FFE0000000
00000003FFE0000000
00000003FFE0000000
00000003FFE0000000
00000003FFE0000000
00000003FFE0000000
00000003FFE0000000
00000003FFE0000000
00000003FFE0000000
00000003FFE0000000
00000003FFE0000000
00000003FFE0000000
00000003FFE0000000
00000003FFE0000000
00000003FFE0000000
00000003FFE0000000
00000003FFE0000000
00000003FFE0000000
00000003FFF8000000
00000003FFFE000000
00000003FFFF800000
00000003FFFFF00000
00000003FFFFFE0000
00000003FFFFFF8000
00000007FFFFFFE000
0000000FFFFFFFF000
0000001FFFFFFFF800
0000003FFFFFFFF800
0000007FFFFFFFFC00
000000FFFFFFFFFC00
000001FFFFFFFFE000
000003FFFFFFFF0000
000007FFFFFFF00000
00000FFFFFFF800000
00001FFFFFFC000000
00003FFFFFE0000000
00007FFFFFC0000000
0000FFFFFFC0000000
0001FFFFFFC0000000
0003FFFFFF80000000
0007FFFFFF80000000
000FFFFFFF80000000
003FFFFFFF80000000
007FFFFFFF80000000
00FFFFFFFF80000000
01FFFFFBFF80000000
03FFFFF3FF80000000
07FFFFC3FF80000000
07FFFF03FF80000000
07FFFE03FF80000000
0FFFF803FF80000000
0FFFE001FF80000000
0FFFC001FF80000000
1FFF0001FF80000000
1FFC0001FF80000000
3FF80001FF00000000
3FE00001FF00000000
3FC00001FF00000000
7F000001FF00000000
7C000001FF00000000
78000001FF00000000
E0000001FF00000000
80000001FE00000000
00000001F800000000
00000001F000000000
00000001C000000000
000000018000000000
000000010000000000
ENDCHAR
STARTCHAR w
ENCODING 119
SWIDTH 510 0
DWIDTH 84 0
BBX 62 164 11 0
BITMAP
0000006000000000
0000007800000000
0000007C00000000
0000007E00000000
0000007F80000000
0000007FC0000000
0000007FE0000000
0000007FE0000000
0000007FE0000000
0000007FE0000000
0000007FE0000000
0000007FE0000000
0000007FE0000000
0000007FE0000000
0000007FE0000000
0000007FE0000000
0000007FE0000000
000000FFE0000000
000000FFE0000000
000000FFE0000000
000000FFE0000000
000000FFE0000000
000000FFE0000000
000000FFE0000000
000000FFE0000000
000000FFE0000000
000000FFF0000000
000000FFF0000000
000000FFF0000000
000000FFF0000000
000000FFF0000000
000000FFF0000000
000000FFF0000000
000000FFF0000000
000000FFF0000000
000000FFF0000000
000000FFF0000000
000000FFF0000000
000000FFF0000000
000000FFF0000000
000000FFF0000000
000000FFF0000000
000000FFF0000000
000000FFF0000000
000000FFF0000000
000000FFF0000000
000000FFF0000000
000000FFF0000000
000001FFF0000000
000001FFF0000000
000001FFF0000000
000001FFF8000000
000001FFF8000000
000001FFF8000000
000001FFF8000000
000001FFF8000000
000001FFF8000000
000001FFF8000000
000001FFF8000000
000001FFF8000000
000001FFF8000000
000001FFF8000000
000001FFF8000000
000001FFF8000000
000001FFF8000000
000000FFFC000000
000000FFFC000000
0000007FFE000000
0000007FFE000000
0000007FFE000000
0000003FFF000000
0000003FFF000000
0000001FFF800000
0000001FFF800000
0000001FFFC00000
0000000FFFC00000
0000000FFFC00000
00000007FFE00000
00000007FFE00000
00000003FFF00000
00000003FFF00000
00000003FFF00000
00000001FFF80000
00000001FFF80000
00000000FFFC0000
00000000FFFC0000
00000000FFFE0000
000000007FFE0000
000000007FFE0000
000000003FFF0000
000000003FFF0000
000000001FFF8000
000000001FFF8000
000000001FFF8000
000000000FFFC000
000000000FFFC000
0000000007FFE000
0000000007FFE000
0000000007FFF000
0000000003FFF000
0000000003FFF000
0000000001FFF800
0000000001FFF800
0000000000FFFC00
0000000000FFFC00
0000000000FFFC00
00000000007FFE00
00000000007FFE00
00000000003FFF00
00000000003FFF00
00000000003FFF80
00000000001FFF80
00000000001FFF80
00000000000FFFC0
00000000000FFFC0
000000000007FFE0
000000000007FFE0
000000000007FFE0
000000000003FFF0
000000000003FFF0
000000000003FFF0
000000000003FFF0
000000000007FFF0
000000000007FFF0
000000000007FFF0
000000000007FFF0
000000000007FFF8
000000000007FFF8
000000000007FFF8
000000000007FFF8
000000000007FFF8
000000000007FFF8
000000000007FFF8
000000000007FFF8
00000000000FFFF8
00000000000FFFF8
00000000000FFFF8
00000000000FFFF8
00000000000FFFF8
20000000000FFFF8
38000000000FFFFC
3C000000000FFFFC
3F000000000FFFFC
3F800000000FFFFC
3FC00000000FFFFC
7FC00000000FFFFC
7FC00000001FFFFC
7FC00000001FFFFC
7FE0000000FFFFF8
7FE000003FFFFFF0
7FE0001FFFFFFFE0
7FF01FFFFFFFFFC0
7FFFFFFFFFFFFF80
7FFFFFFFFFFFFF00
FFFFFFFFFFFFFC00
FFFFFFFFFFFFF800
FFFFFFFFFFFFF000
FFFFFFFFFFFFC000
FFFFFFFFFFFF8000
FFFFFFFFFFFF0000
07FFFFFFFFFE0000
0003FFFFFFF80000
000001FFFFF00000
000000003FE00000
ENDCHAR
STARTCHAR x
ENCODING 120
SWIDTH 510 0
DWIDTH 84 0
BBX 68 164 8 0
BITMAP
0000000000007C0000
000000000001FF0000
000000000003FFE000
00000000000FFFFC00
00000000001FFFFF00
00000000007FFFFFE0
0000000001FFFFFFF0
0000000003FFFFFFF0
000000000FFFFFFFE0
000000001FFFFFFFC0
000000007FFFFFFF80
000000007FFFFFFC00
000000007FFFFE0000
000000007FFFE00000
000000007FFFE00000
000000007FFFE00000
000000007FFFE00000
000000007FFFE00000
000000007FFFE00000
000000003FFFE00000
000000003FFFE00000
000000003FFFE00000
000000003FFFE00000
000000003FFFE00000
000000003FFFE00000
000000003FFFE00000
000000003FFFE00000
000000003FFFE00000
000000003FFFE00000
000000003FFFE00000
000000003FFFE00000
000000003FFFE00000
000000003FFFE00000
000000003FFFE00000
000000003FFFE00000
000000003FFFE00000
000000003FFFE00000
000000003FFFE00000
000000001FFFE00000
000000001FFFE00000
000000001FFFE00000
000000001FFFE00000
000000001FFFE00000
000000001FFFE00000
000000001FFFE00000
000000001FFFE00000
000000001FFFE00000
000000001FFFE00000
000000001FFFE00000
000000001FFFE00000
000000001FFFE00000
000000001FFFE00000
000000001FFFE00000
000000001FFFE00000
000000001FFFE00000
000000001FFFE00000
000000001FFFE00000
000000001FFFE00000
000000001FFFE00000
000000000FFFE00000
000000000FFFE00000
000000000FFFE00000
000000000FFFE00000
000000000FFFE00000
000000000FFFE00000
000000000FFFE00000
000000000FFFE00000
000000000FFFE00000
000000000FFFE00000
000000000FFFE00000
000000000FFFE00000
000000000FFFE00000
000000000FFFE00000
000000000FFFE00000
000000000FFFE00000
000000000FFFE00000
000000000FFFC00000
000000000FFFC00000
000000000FFFC00000
000000000FFFC00000
000000000FFFC00000
000000000FFFC00000
0000000007FFC00000
0000000007FFC00000
0000000007FFC00000
0000000007FFC00000
0000000007FFC00000
0000000007FFC00000
0000000007FFC00000
0000000007FFC00000
0000000007FFC00000
0000000007FFC00000
0000000007FFC00000
0000000007FFC00000
0000000007FFC00000
0000000007FFC00000
0000000007FFC00000
0000000007FFC00000
0000000007FFC00000
0000000007FFC00000
0000000007FFC00000
0000000007FFC00000
0000000007FFC00000
0000000007FFC00000
0000000007FFC00000
0000000007FFC00000
0000000007FFC00000
0000000007FFC00000
0000000003FFC00000
0000000003FFC00000
0000000003FFC00000
0000000003FFC00000
0000000003FFC00000
0000000003FFC00000
0000000003FFC00000
0000000003FFC00000
0000000003FFC00000
0000000003FFC00000
0000000003FFC00000
0000000003FFC00000
0000000003FFC00000
0000000003FFC00000
0000000003FFC00000
0000000003FFC00000
0000000003FFC00000
0000000003FFC00000
0000000003FFC00000
0000000003FFC00000
0000000003FFC00000
0000000003FFC00000
0000000003FFC00000
0000000003FFC00000
0000000003FFC00000
0000000003FFC00000
0000000003FFC00000
0000000003FFC00000
0000000001FFC00000
0000000001FFC00000
0000000001FFC00000
2000000001FFC00000
3800000001FF800000
7C00000001FF800000
7F00000001FF800000
7F00000001FF800000
7F80000001FF800000
7F80000001FF800000
7FC0000001FF800000
7FC0000003FF800000
7FC000001FFF800000
FFC0000FFFFF800000
FFE007FFFFFF800000
FFE1FFFFFFFF800000
FFFFFFFFFFFF800000
FFFFFFFFFFFF000000
FFFFFFFFFFFE000000
FFFFFFFFFFFE000000
FFFFFFFFFFFC000000
FFFFFFFFFFF8000000
FFFFFFFFFFF0000000
3FFFFFFFFFE0000000
003FFFFFFFE0000000
00001FFFFFC0000000
0000000FFF80000000
000000000300000000
ENDCHAR
STARTCHAR y
ENCODING 121
SWIDTH 510 0
DWIDTH 84 0
BBX 36 164 24 0
BITMAP
0000700000
0000FC0000
0003FF8000
0007FFF000
001FFFFC00
007FFFFF80
00FFFFFFE0
03FFFFFFF0
07FFFFFFE0
1FFFFFFFC0
7FFFFFFF80
FFFFFFFE00
FFFFFFC000
FFFFE00000
FFFF800000
FFFF000000
FFFF000000
FFFF000000
FFFF000000
FFFF000000
FFFF000000
7FFF000000
7FFF000000
7FFF000000
7FFF000000
7FFF000000
7FFF000000
7FFF000000
7FFF000000
7FFF000000
7FFF000000
7FFE000000
7FFE000000
7FFE000000
7FFE000000
7FFE000000
7FFE000000
7FFE000000
7FFE000000
7FFE000000
7FFE000000
7FFE000000
7FFE000000
7FFE000000
7FFE000000
7FFE000000
7FFE000000
7FFE000000
7FFE000000
7FFE000000
7FFE000000
7FFE000000
7FFE000000
7FFC000000
7FFC000000
7FFC000000
7FFC000000
7FFC000000
7FFC000000
7FFC000000
7FFC000000
7FFC000000
7FFC000000
7FFC000000
7FFC000000
7FFC000000
7FFC000000
7FFC000000
7FFC000000
7FFC000000
7FFC000000
7FFC000000
7FFC000000
7FFC000000
7FFC000000
7FFC000000
7FFC000000
7FFC000000
7FFC000000
7FFC000000
7FFC000000
7FFC000000
7FFC000000
7FFC000000
7FFC000000
7FFC000000
3FFC000000
3FFC000000
3FFF000000
3FFFE00000
3FFFF80000
3FFFFF0000
3FFFFFE000
3FFFFFF800
3FFFFFFF00
3FFFFFFFC0
3FFFFFFFC0
3FFFFFFFC0
3FFFFFFF80
3FFFFFFF00
3FFFFFFE00
3FFFFFF800
3FFFFF8000
3FF8000000
3FF8000000
3FF8000000
3FF8000000
3FF8000000
3FF8000000
3FF8000000
3FF8000000
3FF8000000
3FF8000000
3FF8000000
3FF8000000
3FF8000000
3FF8000000
3FF8000000
3FF0000000
3FF0000000
3FF0000000
3FF0000000
3FF0000000
3FF0000000
3FF0000000
3FF0000000
3FF0000000
3FF0000000
3FF0000000
3FF0000000
3FF0000000
3FF0000000
3FF0000000
3FF0000000
3FF0000000
3FF0000000
3FF0000000
3FF0000000
3FF0000000
3FF0000000
3FF0000000
3FF0000000
3FF0000000
3FE0000000
3FE0000000
3FE0000000
3FE0000000
3FE0000000
3FE0000000
3FE0000000
3FE0000000
3FE0000000
3FE0000000
3FE0000000
3FE0000000
3FE0000000
3FE0000000
3FE0000000
3FE0000000
3FE0000000
1FE0000000
07C0000000
03C0000000
00C0000000
ENDCHAR
ENDFONT
